<mxfile host="Electron" modified="2024-02-10T07:59:56.639Z" agent="Mozilla/5.0 (Windows NT 10.0; Win64; x64) AppleWebKit/537.36 (KHTML, like Gecko) draw.io/23.0.2 Chrome/120.0.6099.109 Electron/28.1.0 Safari/537.36" etag="ql-C5lYLUOHgaMbv5TmS" version="23.0.2" type="device">
  <diagram name="Page-1" id="bqpNc-LZ1ZurujXE-2tx">
    <mxGraphModel dx="1950" dy="1175" grid="1" gridSize="10" guides="1" tooltips="1" connect="1" arrows="1" fold="1" page="1" pageScale="1" pageWidth="850" pageHeight="1100" background="none" math="0" shadow="0">
      <root>
        <mxCell id="0" />
        <mxCell id="1" parent="0" />
        <mxCell id="x2NzetM9BmsE3J9apZ8J-1" value="" style="shape=image;verticalLabelPosition=bottom;labelBackgroundColor=none;verticalAlign=top;aspect=fixed;imageAspect=0;image=data:image/png,iVBORw0KGgoAAAANSUhEUgAAB9AAAAfQCAMAAACt5jRLAAACT1BMVEVNTU1PT0/U1dVLS0vU1dVPT09QSUPS0tNOTk5RT1HLzMxQUFDFxsZXV1dRUVG8vL3e3+BZWVnFxseMjIxvb29RUVFkZGRcWFTq6+yVlZXQ0dNPT0/g4uNra2tYWFiKiorP0dJPT09OTk7r7O1ycnJTU1PU1tdLS0usra3h4uNYWFja3N3R09RJSUnMzs/i4+RLTEujpKRGRkaBgoJ1dXXk5ebMztBCQkJubW7Nzs9lZWbl5ufLzM3X2Nnv6ubs5/N7g4BeW1RiskF1n0EFmTFJVU14vUB5uUERdrpVXUtTVkz+/v72///49fHz9PTv8PHw7Onh6e7l5ufc5u3l4t/k4d7T4Orb3N3S1NXC1uXNz9Cwy+DExMSlwtusv8CbwNu3t7iutLeurq6Lt9Z9r9Odnp59vkBtps+Nsjt0oMtvu0CUlZZin8uEqDdtsEJftUGKiotoqUJTmchUsEJSsEJ7nDJPr0JNlcd7mD5MrkJ7hotbi8CAgYJqlEQbmuxyki1CjMJIicByjjg4p0NXlkRAokJgkUFuen9rfmkUket1dnZgikZtgj5Yi0UQjfNzc3Rzc3M8gLsyhL0ai9Eon0Ijn0Q6kkRef0YRhd8GgvtqamtkdEVTeUg7b7APmEVpZV4cerlfZmEAnzEKmTErb7IAmzcOkjQAlz0ClEISi0MZiD9bZUZVZVFQaEwYbbIme0JAaF4efz8Rb7NXXklZWVovcURVWVoObLIodERVWE04aEYFbLNSV0sBbLMBa7M/XUhPT1FHVEpAQEA2NjUtLS295YJcAAAAS3RSTlMABAgNERkbICUqLjU7O0lKTVFaXF5fZGdrb3N2fICAgo2Nj5qbnqGnq62ytLS9w8bHyM/U1t3e3+Tr7vP29/j5+/z9/f39/v7+/v5+okEOAADUNElEQVR42uzdzYpcV7Yo6lPGIBCGEm4Zo4bBYBBl7JYMRj7nvkGsPHOfxVoE2TCGau3OfoD9BLtVbXcu5x3uA1zOfbGLlBmx5s+YKyJSsp2x4vucljIjM1UuKZUjxpzj57/9NwAAAAAAAAAAAAAAAAAAAAAAAAAAAAAAAAAAAAAAAAAAAAAAAAAAAAAAAAAAAAAAAAAAAAAAAAAAAAAAAAAAAAAAAAAAAAAAAAAAAAAAAAAAAAAAAAAAAAAAAAAAAAAAAAAAAAAAAAAAAAAAAAAAAAAAAAAAAAAAAAAAAAAAAAAAAAAAAAAAAAAAAAAAAAAAAAAAAAAAAAAAAAAAAAAAAAAAAAAAAAAAAAAAAAAAAAAAAAAAAAAAAAAAAAAAAAAAAAAAAAAAAAAAAAAAAAAAAAAAAAAAAAAAAAAAAAAAAAAAAAAAAAAAAAAAAAAAAAAAAAAAAAAAAAAAAAAAAAAAAAAAAAAAAAAAAAAAAAAAAAAAAAAAAAAAAAAAAAAAAAAAAAAAAAAAAAAAAAAAAAAAAAAAAAAAAAAAAAAAAAAAAAAAAAAAAAAAAAAAAAAAAAAAAAAAAAAAAAAAAAAAAAAAAAAAAAAAAAAAAAAAAAAAAAAAAAAAAAAAAAAAAAAAAAAAAAAAAAAAAAAAAAAAAAAAAAAAAAAAAAAAAAAAAAAAAAAAAAAAAAAAAAAAAAAAAAAAAAAAAAAAAAAAAAAAAAAAAAAAAAAAAAAAAAAAAAAAAAAAAAAAAAAAAAAAAAAAAAAAAAAAAAAAAAAAAAAAAAAAAAAAAAAAAAAAAAAAAAAAAAAAAAAAAAAAAAAAAAAAAAAAAAAAAAAAAAAAAAAAAAAAAAAAAAAAAAAAAAAAAAAAAAAAAAAAAAAAAAAAAAAAAAAAAAAAAAAAAAAAAAAAAAAAAAAAAAAAAAAAAAAAAAAAAAAAAAAAAAAAAAAAAAAAAAAAAAAAAAAAAAAAAAAAAAAAAAAAAAAAAAAAAAAAAAAAAAAAAAAAAAAAAAAAAAAAAAAAAAAAAAAAAAAAAAAAAAAAAAAAAAAAAAAAAAAAAAAAAAAAAAAAAAAAAAAAAAAAAAAAAAAAAAAAAAAAAAAAAAAAAAAAAAAAAAAAAAAAAAAAAAAAAAAAAAAAAAAAAAAAAAAAAAAAAAAAAAAAAAAAAAAAAAAAAAAAAAAAAAAAAAAAAAAAAAAAAAAAAAAAAAAAAAAAAAAAAAAAAAAAAAAAAAAAAAAAAAAAAAAAAAAAAAAAAAAAAAAAAAAAAAAAAAAAAAAAAAAAAAAAAAAAAAAAAAAAAAAAAAAAAAAAAAAAAAAAAAAAAAAAAAAAAAAAAAAAAAAAAAAAAAAAAAAAAAAAAAAAAAAAAAAAAAAAAAAAAAAAAAAAAAAAAAAAAAAAAAAAAAAAAAAAAAAAAAAAAAAAAAAAAAAAAAAAAAAAAAAAAAAAAAAAAAAAAAAAAAAAAAAAAAAAAAAAAAAAAAAAAAAAAAAAAAAAAAAAAAAAAAAAAAAAAAAAAAAAAAAAAAAAAAAAAAAAAAAAAAAAAAAAAAAAAAAAAAAAAAAAAAAAAAAAAAAAAAAAAAAAAAAAAAAAAAAAAAAAAAAAAAAAAAAAAAAAAAAAAAAAAAAAAAAAAAAAAAAAAAAAAAAAAAAAAAAAAAAAAAAAAAAAAAAAAAAAAAAAAAAAAAAAAAAAAAAAAAAAAAAAAAAAAAAAAAAAAAAAAAAAAAAAAAAAAAAAAAAAAAAAAAAAAAAAAAAAAAAAAAAAAAAAAAAAAAAAAAAAAAAAAAAAAAAAAAAAAAAAAAAAAAAAAAAAAAAAAAAAAAAAAAAAAAAAAAAAAAAAAAAAAAAAAAAAAAAAAAAAAAAAAAAAAAAAAAAAAAAAAAAAAAAAAAAAAAAAAAAAAAAAAAAAAAAAAAAAAAAAAAAAAAAAAAAAAAAAAAAAAAAAAAAAAAAAAAAAAAAAAAAAAAAAAAAAAAAAAAAAAAAAAAAAAAAAAAAAAAAAAAAAAAAAAAAAAAAAAAAAAAAAAAAAAAAAAAAAAAAAAAAAAAAAAAAAAAAAAAAAAAAAAAAAAAAAAAAAAAAAAAAAAAAAAAAAAAAAAAAAAAAAAAAAAAAAAAAAAAAAAAAAAAAAAAAAAAAAAAAAAAAAAAAAAAAAAAAAAAAAAAAAAAAAAAAAAAAAAAAAAAAAAAAAAAAAAAAAAAAAAAAAAD6Nz1++evX69bffvXnz5h//+Mf7fx9+evOP5c3itejNEw/Dtfj++EPz8Pflq99X7zu+PPz0+MPDK98f3/t98aHflz/X/xxe+f79L1C8PPyQvYeP9d13333zzddffvHyM1GBq4zlr16/efvu3bspTWOa0pTe/zg+/PT+kccHjz+k6X8dXp0efvxf6fC54/LY8aE0Pf4Sj+/JPujhzTQdHj2+6/jmh9enw0c8/PvBOB0fyx5ls+ZTr2ZvH3+cp+Xf5ZXH98zFq/2X5q0PP3b/maf+e6IH5+V90c8PHzLnr9yWffbTft7vP/xw/PG99+84vL4/vLa8+QS//Pdffvn5p+++/kJU52p89uKL97H8Iaym/KdjwE5T9mAWhI8f9hCrH4Nu9SmPL8efxyVwZ8E4HYLz4bOyzyhC+5R94vGdxzeOH3H89fJAf/j12FR4n8sfsnfO4SfMVQRvHmgCdxnSm1hd/jSvRvLwkYfP7byr/t9ZXo7xfdp0oN8fw/khpC9vHoP3wz8fF8D73kf1ly/EdZ63v7149frNj+/K3Pvhn5SF65QF78NrY/EMIIvESxQ+vpHqt46fNJUPLwE7C+VL2B47AXk9NU+y942l53P1eh2tp/qVInbPYQR//NAg0M/1D2V+HoX2cyL7kpsfHyjfuWTnc5XEHx9cwvi01ex9v0Tx/b7M1T/E8Q8vf1QcL4P6D999/cXnggbP1YvXP777700EzwL5MVxX8T3K0avIXYT5PM4XIb0J2qnIpctwPk3Nr1VE7bOTb1n6Vcf0OT5vn4tH5/aD81hcRO0ibi/vC8Nz/WaWtj8hltc/ta/NZbCvg/ZU/bu5I/biqP0QxufldP0Q1R8P3f/o0P7Lzz98KabzDM/ZX71+2yTi7QPLCXieeJd5dxXVPzw81jl2+0uVmfvDmXn+UVPxP3v8RcvMPPUD9iiyX/MNefz4XAfxlehehvTssH0uw3AV/qscfnlXFfcfYv4cn8KfH+PbN6t3TPk9+jFTL16vY/m0+bv2IkvfLzH+z8jVf/nh6y+cvvOcDtq/+u7tu3FKT/qnzMOLY/aUZdqpPWivs/Xycr1MvvNz9zopH8s4XwTm8XTUTqL5lUb7OYz985J+lx/WXpgXAToP2nNZIVen3kVs70bxj/mne91eHsq3pXHT3BzLb7w6br/cqj9k5Y8/HYvj9n9CTP9Gos4zCeev3rx7Vyfl7TF7caLeuU+vP6ZIuYsT9yCWB+n4Uhc3VqE9nYjFWS38xZFaZL+CHD0sdpvri/MmXk/RyXsRsaewmr2M4+2x+hJ2o+P4C6P4HGTo9fV6XSDX5ObTlgP44cf6PP5QMVcE9P1y/v4HRvdffvrmpWDCX37U/tWPY/9OPHu4rW9fD/X5YXtx+z4VaXt0jD+WVXRTfafePD2oqubCmDwK2ZuN+HNc6l7XvIchfS6eB8xBfdzc3KgHaXmYpYdhu39pPs1NDdwS35usvKhtn5t6uDn/qE2fsx9P2+e2rv3PKI5bfP/qxd/EFP7C5Pzbt/Fdefd8/Yx3Bw1vY4oP5VNw4F60qhWtbUUkTtGJeaqjdopCuHi+tSS9Ct/h58/Tie60Ms2fo/q2oiGtzdHnsyL6qSP2uX/YXt6dR/VyZTCfNhzI91XN+7H0faXjfP7jj96l6fxl4fyhQe0hmD++dvbN+cqD5WtTlTgX1+TBHXqKonFqf41U/8JL8Vtq79IdsG/piP3k6032Pk/FlfpcTpipc+6wNb29Qa/D98dep3dienMe34b4ObxL334J3CGi74sL9WOBexjA5z+27P27F0ILf340//zVm/H8zHwlrjf5dh2sy9L3elpMmKIHpXFlpXtZApfivD31Y/apcC/MP+so33mg6iOPW9rmtm99rrva5ihJL34o0/DpnLT87Ghepd/BAf2SkN9U/duJETP5YJl5X0+I+9NO33/5Rnc6f7IXXx2y86dH8alTBhf0uEXdblOn0n0MgnldNN+k6MsYuPLSfMw/blTRfotPAeaqCz2YADeVfWlzJ6hP3YgevnHyCv1EhG9v0csi97xxLT9gn25oLmxVHLek7EU6/udepe9//v5LbWz8eT5//fZjonk/TT91/F72mLfjZYoquHb0TFP0FpXApZVkW8vado/i585Je9FA3ob0utotPF7vDHTNi9sviOnzmefvwaSZctT7dM5l+XQbmfrx/nzOytyXXP1PDum//CSk82cVtr9+OxaFcP0etFN5ejvZva1sK87WyzGvvfEyqRPSwwP6LKUvWtPL0vbkUH2DIb0M052WtU5te30iH61e6Z26Vx8Q7WY5EdWr8/NmTHtV+B4Nhi3K4aLBr1sO6vugc22/jG+f8y0t+/kvCOn7H75U8s4fH85fffs+nEf9aQ/h9ymn70HmHryjvEYPOtXrwe9TeJc+hUf3edI+BpftZ9+ec9Vxvrt9bZ7aBLxdwFaVxDUn7GG8vvgw/dQxe33i3nmzCetlJ9uWS9w7F+nHdWvznx6/o5Cu5J0/2Bf/eBf0qaWy77zTxhYE6/4k99TcnveuzYs1K+nhtTStFMllmffYHMCn7lH82cXuwv2zPmafT5S1l0NiTvSyBTl3dUU+dQ7Un3xB3u1Wq2/Gm9kx4dC4Tho+3cjR+6HS/VD1lt2gB3Xu85/bn67knT/06vzVm3oO3InR7XHYTmtJeTMMtj2Cb0/ax2JI3NRJzpvxcE1fXPcCfTyrlF0ov8pr9GauzBzsZuntSG0jeDBWbq7a3qIz9bJsbv2fcwa9rq9cjca8L03qt3CDvg9WtszFOLj5r7tDX+rjvnmp5J0/prD9fXYe5uVPrYurlpWndv56tTg1GNGeN7VlO1nGKdjbEhe4p3B4e4o62ZLYvfVw362Nq7ak53tZ8oAdnK23F+hNql5Nl/kE09vLMvaob60ZFZe9Pt1SW3q7f+05HLgfQ/p36uP49Hfnr9++exzYthLLz0zZo8P3VMft+gi+PIEfs+cCY3XI3i2MG+t6uO4NefVheSFeN5qL8deUnc/njZBrYn1T916vXOtsTw0i+vrc1zNvzHtDYOcT6Xt0Dr+tyL0/9/37fE7cYZPqX5uYlyH9hy8FID5pYftXRWF7dm5+0Wn72nS4qWhAr47b1zaydJeuFJ8wLsl3NVAuHVvOU+9GvErgk2C+nTP3ssC9yc/n9gPmaDF6OL293qsWnLJPU/s558b1cMDrFF6rT8Epe37APsVz26cbyMeLorglpD8vP3z5uTSdTxTOv3j9dkyfZCpcCgvj4t7zvGltJaSnqp8trYyLa1rXo6r1dOqKPAnkm476cxP853olW3kfPkXDZsLz9HJjenHxfvkh+3R+Y3on+M/FCPe1q/ObaEZ/LISbizv0ZxPSv1byzqfw8s27sSheb2N7P9qvr0GPKuWij5miye3hjXjTnT51bszTWnV6e21eRfmoRm4UDJ99cj5Hm9XmTvfaXDec17vSyiS+zt6rjLvasH6q3v1J89vL3LxK0edOd1se2Te7j6Vf475f2tWODWvz8uYzOnr/6RvlcXxsYfsXb9Jq1F4rjfu3cTpZFtfk13nIbEfOxPtSi1vzFJTT1VfsQWlcXfeWosx87MRuifr1nbjPYcdaO8V9ri/Sg/70+h69PD8P9rG0S1TPjd3rRXDtgJky3AfvXdmSOs2bP3IvTtrzKH8I7Q9rVf+6larllPeXDt75iHD+1Zt345TGvGitqnOfeiNmLh3+Wufsqa5EC4fJpHbH2lQ/T5jKBD6VTxeOTewpD9TjqRN49e5bP3Rv4nxdyD5X2XaTps/RI1UBfLyxpY3yHzdrpgr43aXo5Tn8ze1qKTeyzHO1peU5ZOnf/V2azhPvzh8XsJRTXg9vX9h9vhrRg3P2Y0zupejBhLhmB1s9QaZOxFN8QV4PfTc0Zstn8CthvL46n+v29CpXr+7Me+3m09SZGTevRPS1decrl+jtCNgstD/+G+Xl0y2ct+cJ+b6c/1oNmfnrs/Ol5P2V0MSTCtvPuSTPl6GfWw7X1sCl9gy+zNM7R+5BU9tUHeWnY/16qjvRjqXtqY36KQrkvXAuzF/l2fvcr32f2nhf7VYLR7dHQ1/DuTHNWfxFUb23VC0/Ro/Gttcf3e1Jv52FLMtmluUm/XjYPs/PJ5Dn9XGvPjflnYvC+cv3he1prC/J64Q8HdPoC7PyuOh9mvoRvK2LbwvZ09QuQM+nyMWL04vmtX5Buzh+A3Vyc5h5T71nAPPU5tzNjfrcif/z2sNZOJ+fsDF1/Wa9XocerGep39r8Rfr+0L2WT4d7fv1rD3fpP3xtcQuXFLa/jWazl0NlzpsXd+6Q2JVJsJ0L9zHqQktld/rY5uTh3rU8Rlen9OnSEa/C/LMP43OUrPcnzVSrUeuetTnYmBq2pYcPrV+Qn3uBPs9rfelzcKnefc9NLUTfZwPdH1vQl4j+bIrhovWqSt45sxLu5bcPqXl1W96Pxiev0VcWrTUH5Me4XF+LlzE3hY3mbfVctX0t1ctewrXpF8Rk4XtjBfBhdXtRlj51h7+1Je2dpWudya/tKXuv9fyMKvjqOD5PzPOdqVOntH3acj5+qF7Pl6zNx82p83M8Zw+mvL9Q8s7JcP7qoe28KVePXv3oWTMpmCmTwvvyFJbGtYNmoi3oK+fnqamYS70z9ySQb7uPrd6GOpU9aVPd0NYfKtN8SLgBvRvjz9rCdrqzbaWYLutZX6rg2th/MwPcl+P2Oeg8r4e7P5dA/9M3fxfSObOwvThR752YP2HZ2ko8bwN4ME+mrKVrLs6zNL1Z8zJOwcSZqv+svYYfz4rj2tiuPqrPQZwv57oVhe9xdVzYoRbenNfj4abLYnpnR+rqzPa8Kq6tmIvazze7eC1fs3YY5H4Y517eoT/PwrjHLP37v7tLpxfNP18K24s2teXuPJ2Vlp+M3cXrU1UBH2xJa2J5dVyf5eT5x4/hppVjwB3rLrZelE4C9aby8O5Jez5Ypq2Bm4sPqDPvuddzXp7YT3HBe3mifuYytWJce3ubPndmvGcn7VO7YW1qd6hOG87Nj3Nlylw9L4ib88j+7KL6D18oeSeshHv940NR+5jyGXDRlXlQ616n22uJ+Op0mU5Er1+rku+6xC1NzbrUfNtaMLz9mIyP/VvyVF3js5HQPk/RSLi4X61doRaG8Tl6qI7o3Uv1+bw5cv1l51O/2u3wseVN+q10n3ej+/HM/XitfuhGf9ZX6ftfvv/6hehFHc6/ffsQhsep06a20r12Rl3cWsCfgo70aIFqL4a3VevNa8HRenvuXnxIMPN97F6lJxn8lqL+HAyeKWfPnDhnP1UG121Rm05G8Ms62ILz+TyNbwvkprJpbdpqip51oe/npURun41138/XEM8/lLwL6RSH7S++/XB1PrZNanX92zLC/Yl35nEhXLsMvQrv5b7UqT2ID7P0TojP9qhnTwrG/Px97Ax9FbY3kp7PZ3zCXIX4MtifCOOnusw7pfBnxOz1g/j59ByaaoVqGde3eXO+77153J96OF5fbtKfactaeJmuMZ28sH16PGlPQdN5fLr+xCr33jb0h5/HunetqXBrN53HO1WXCrg8fW4T6hMTZNLJhWxsIKrPneP3qk1tKu+5ozXm06kcvWpkixeuzp9uA9tcTo+rp8RVJXDTXA6a2/AZ+/6Yn1d7Wo59a88/Ny9K3r9Q8s5S2F6Utq+Vs5cp+6U9aZ3K9jQ1gbo5gS/v0adTIb26P4961dvz+mqdWupVxInnG7lELyN3eZfejG+f45b1oDmtDu7V1tXgCP7saH5q83lVLHcyr5+b8XE3M/91f5wRN+/zkTLz/goj+v7n74X0W/e3z1+9LVLxsZkAF1x750ta2hB/SUwPi+3qabDRtfnYydLT1EyUKUJyG9nL8rZyxfp4ukmNa66HCwbANZn7HB64Fw+VNe1Vjl48VWgmxMWp/KloPjd17vV7s2r2KcjMm2kzVZ37tOmYvu/n7Pu6DX3eX1F0//6Lz5y833A4f1/YPuYH7PV412iCzJM7zsNXwpg/RStdgmK4MRz3XvWhpao1rZ0jV+5mSevhWyzfdsn73MyIq6N4We/eq2mfm487OTQuyNDP289y3u7U5ilBu031Rivd91mtezlKZt7vrypb/+X7L9XH3aoX3759v+38mJXnUXrshe1To+JONqhHkb6I5v9WX66X5Wvh/Lj3l+/V5Ndm/2mv8j11gnZ8ux6Om2ET8bxb/RZ8Zp2eh6fs1bL0YIv6VFykX3aPHnSsxbPi5rk3iqbI0acswG9qG/q+e42+zyvdDxvWlg62dmjcFYT0H7425f02C9v/+zEmV8G63nje71+bxo8c9Rq2qE/1oJne/rX2JD2Vj4TZeB6pqzFw2UV6iuP7Gsn7NUXy+pV203kztn2lO32uN6HnkT7O0KO77yiin7uf5cRY92kOh8jVYT2e7L7hJWv7wzr0fR7QH8N7G82vILr//PXnLtNvrbD9fZ9aPjkmlY1p7VCZeqLMJxre3gybKY/d68v3qZkKV8f4ziTYpkCuDMQp61qbpk7v+hS/TzDfZrHcPAUFcXNzLN/dij4XSXk1H667kiWO4JdVwJ86hS9G0ORhe7qFpanhSJlD8J6X/SxXmJ4reb9Nr358Oy6lb0VuXr3du0qPy9uaG/ZO5A7O2qMBsXnfeT1RplMO1/2wOuiPU3e3Wooj+Vk36Ulwf/aBew7a1NY+IJzyNlVpeHCl3nS35V1uU70/7YztK5cF8GJy+9Q0sBUF7sU9+tZnygTbU48n7MfT9+sM5FlI/+4Lce5WsvP30bwI3x+uzMepN0embkk/kaafLmpfuUOPov64GsmDhL44fK/y9nHKV6oHsXiso3aK5r9P/Rnw4vl1puXd8/YmRY9GuFc38NWk2O6AuBNp9xM70Mu4vnJ53hy1l4vQpxvIz/PT9yxLv970PCt5F+02X9j+4qsf3431WfrYrF+pongVuv9tjKvdz1yqluJdLZ0BcaktTE/9I/dUFbanx+cDUY1bqtvT0kpITm2YZzMxfV7L5+NMfbXmvUzGm5P5ei78PE2XX5r39qSufPSc5+1zWQR31tX5tMVIfqyO61+VX2Vk/+U7Je9bL2x//fZdnoR34nfVbZ5WjtdPLVE9GdzjsXFFzI5r26ep6Wird7PVd+1lHE9FZp7Oyq8NmNlifj6fbFRvBr62M9+qn/vDYqIquk8xFi6eIFM9OBXF7MVQuLVNbBtNzvf5K1m1+7x0rs3z1fWuFSXvsvQNF7a/fmxHO1awV03o1XF7dyv65fPa24+oI/oUrkCNZ8qlOr0uD96bgXHxVLgw2069VStJCN9IGJ/beB0ds8/1zJk8IAdDaZr6uKn84fTKls55+wVpeFW8HgyCPa5Zy9ekNrPbb6Esbl8k6MsM9zkrcS/D+VX6+WvrVbda2P5QCZequvbqajyL5WMYxC9bhb720ePaSNhUzngN57WnfDFqUBRXZuRjU9fW3LMX5+pjHb7HcyriuO6IP4cT3sOEfo6mz8zdTvRgpPt06to8CuXrkTxLzdc2qJfT4+rs/KbK3PfVK8dVLdl1+hXH9V9++vqlNH1z2fmrN2/HIppPYTifmlGu7ceHn9kveju/jW2KR7fXK9HbN7LYXxzXp2M9XbYLPZgGe/iA8fQNuri92Va1uek87/Sel4Vvc/2+tWlxcZ9a0KV+Rs37yWv1ep7MHLekz82g13KF+tbz9GPX+X6ZNnMI4Xk3+vWm6j9991II3FY4/zEtBXDHoD5Wx+tNA1sV4c9OzM+cJbMy/7XtVq/vwoMpM8Hg19Q7L0/dNrNqrJzOtI3E60463vu8uVjYMgUVbsHIuCa/rw7vmyr5lQv08/vY2tK3qbNlbaqjexXp643om13Vsm8S9Hkuh70ekvT56qvdH0reZenbqYT76h8PwTufAleWwtWt5/0x7s3alicMhctS8jhyt5Nmgvc0b9XT4OOJr6kaI9eZNDPVU+jynjVzX7cZ/8u0e25r5uamtn1utqNPVcIdRO4ooq9F90ur5OJaubZjbQ4O2qetz4oLB8E+rkJfrsyLlHy+/oC+//m7L42E3UZh+/s+teO+8ylbq1ak6Pm5emd83Nkz28/54Hjqa4q62IIRMvWs2Hose2rvzlO0Dn3K58WvpfJBEJelbyCFn1cL3eeqp3zqHcnPceY+h+9sQvul7WrnzH2d4lmvzWaWqWo9n6vD9k3G833nNn2phdtACG9C+g9C+tW3nX/++t2SnAdL1aL5rlVN+1QWxk/VMrbgan1ld+rKHPc24U7RA9kMmWrQa5raLDzf8FK3o6eouj04Wk9lWZw4vsVCuPrIvdqOHm05rw/Tp6APPUy+27C9XuD+UY1rzYLV6ip9zk7fg5x8m7Pc9/uqBf0xlM95y1q5FT2M8NcW9n/60nrVa746/+L1uzHfc/6QqE/RfNeqCb1oVj90nKePydJPHrtXEf3wjjHenFp9VpGEj9FO9BTef6c2K09LMp6iAng2m7HPTbZeP9K8a27T+HDtWlsLN02nitxPxPSVQvdT72q2sd3c6tR9vTn18cx934yX2Va2/sPXL4X06y1s79WyVyftbfl6NM39ZAncxXH+ZOP6ao17mqbODNjgucE0BWtTo7P3lbUsZ5TDCfvXFMHnqIRubiP8tDLOtap4ayfDxttXejXvZ6Xg6zPcV/vW2+y8XNRSRflps5G8d5PerEHf2OH7Lz99I6RfYzh/+WMRrKPQvqxCbw7eT7Wbr12qn5GVt/G8PnVv6tubo/Wp3c4WLGIZ68idmty72Lc2ZrF97MR0YXs7Fe/zGW/N1Q61pve8CPzNbpaViH5878fPcg+7zaOr9Ka2fTojQ5+2FMDzI/f9cR/LYaBMdv6eH7pvKK7/8t0LIf3KKuFe/eNDFVx0YR7tWImXpTZz43qx/v1s93Oy896s1yohn6Z4Q3p9cz5OzdCZoK+t6UDr5eDRLLh0RhouvG+pyL1zED83zef5trT6tD0sYq/3o0/dmvePGAZ7KsgX9+jF1NdyheqNnbxnh+3zcpW+wcq4D+5/+e7v6uOuq7C9id5j9/S9mexeJeorPWxh8r5+vn5inns3k5/Cgrn+BrZgJ/pYHb2PUzsY9nSQFr+vP2yfzNnrNrYqAS+r5Iud59Gy1LnTvRaMeb9oC3pv3/mZA2Lb/Lye314Uuk8bi+L7suJ9OW+fy2nuG1i8puT9mg/bX797nB8znXqpBsFNvTUtKbwk//iauHz32jSFCfs0tQ3rzWyZaLbc1DS3jcHMmfJ/ZAyr35rEn2s9bZ9XOtfm9U+bo6FwZQ1c1KRWz52Zw3i/Pt29P8Z1bbFac7heV8SVTWtT9dO01Uv0x9x72cyyX4a5L5Xux9mvVTjfUFz/6e8O3q+hsP1tE8zH48/d2H6cFdcc0q8G73My87Pmw7XBfAq616a1HvUgqqeVk/TU1rk3k9xz3cnubCzez3URe5CcVyPfqnP3uQ70cSdatyKuPM5/SuNafAIfr2yZghUt+Ra2mzh0P25l2efJ+gZT86rkXch89oXtY77XvK5XH9dz9mnlDH11MWq95bz4mCCGdw/hq0GvqVmEXm0+jevbyzlxqax9S+0Q9zbsj1UrW//QXcp+VT1p5wyFnYNz+XBzWtugVvekV/fjnTr3tZq4yy7R62P3ekzcVDelT038njpH7lsudK+mvD6Wx+23MvhVyftVevnj4zy4pR0tXsXSKXwPWtODmD5FH/nx/ejRwNcsoo/RHpde11oQ1qsmtjHvZm9z9Xx6XAqit3nuGwv1bbRvTs6LivcpnPAa9aIFbzYBeOrG8ieUx62MjAsmxdUlcdtfxrKvBsYdJ8tkc2Xm4zCZDefnh5J361WfaWH7m3fj8eD8ENfHJoqn1E6Eq67Up2baTDU9rn/4/rRz93Ag+1Q3q5WJdrcabmoWo4fH76tT4oLj9hMVcqL7FvrZon3pU1PDPteTYvND9+h+fW7GwkZjZIrz+k9T6j6H4Ty4Y8+z8fL+/JymtqvNzY9hfV8sXztG+M1Mcl+tj/tGyfuz8/mHie1Vc9oxIBcTZNo8PVuB3kb0YHTcZePbT9e2B+881Kd1p8ikqTNYptqPWm89H4s8O3XL35oiOhF7m+E7bl2Lps40WXy52rxZdN6+BMvOp5U2tTBhvySi99aqFitWi1a2LW9lWR8os8TtOetGXx38up2Q/v2XdrE9t8L2LITnd+cr5+nTYzdbeabevDWVTxMuS8lT7+L8zMVsvSw82LSWx/gxvx4vcvLUvn1q//mkhW1DUXzlQ+Jy97YoLgrmUVrefmBT0t45bz85Webs2rj65jxeqhqtQp82ffCevfJ4W37sPV8eyQretx7Ulbw/o5lwr9+m6kQ9nAs3Bcfvvcv0pg6unUNz6erUtXHuqVimkrqn7o//Ic3R+zStx/1jkC9/7s5/DRP3Sw7YRfrnHeDnIGTPp58FzFM5H24Oe9fqavdOEt+E9jnsXpufnpaHy9Kn5ia9TNPbtWsbj+37Za7MY54+F2n5fAPx/H3J+5dK3p+DL759W6xGHbNj9uq+vLeUZUr1lJjleH6K58etnrJfHNFPTZQLJsX0lqKfzOajqDsefs2xqXcXmW8r2s+djvI2yrfdbXNZK1cUxq8Utkfx+2REP+P+vIrbUzkUbur1rU3brnHfN28d7833+2M/+vHAvZnlvuUutm9eiKd/dWH7P/JT86UiLk/Tx3pGTLA+NdjMstbQtn7wvrbJZepNfZ2aqexT1YoeV9HVh+fVKNi6Uj3Vx+xR3B6nalnbJ4nrnhs811P3ubcPval2z6viiza1autam3oXx+vnbmWZLp8mc2LSTL4+NQjX06YT8n0Q1LO+83IEbFnnPt9Ajr7f/yKk/6WVcK/evDvG8uPUmLFJyQ9hfkrtDvNsg0tqj9mDdedxML/gWny1/zzcjd6Wt6VecXvzce0StdRE8c4e9G5CnwTua783X/3MOr8O79SL0/dwMHtTGN+Wx63Pl7kkroezX7tta81+tbBx7Qaq4vb7/EJ9nw+Nm5dla/PNhPT7n7/5Qsn7XxTOv/rx3UOUrobCNRPi6u60lIIMvaqhS0XPWlMPn/Wen1vtnrrzZYLS9RS8VcT7bjCfVt6XmpjeuSxfj+zi9pZC/zxNzel4c6jeVKu3B+318fzc2Yg+x1l6k82fH857D4e17uW8uKk4V5/mGypuX07a56UCbg4O128jOf8Qzj+UvH/3peD6F5TCffVurKvZ0yG+Fw1qY3PSPgZz2duW9LZVLVXt6NOppelrqXpny8ra7XuwKTX1LtTbM/joUH4s17HGm9RSFMRTEPaF+ytK20+8PVdlcN1D+rkT2OeViD51G807gfmSg/klRkcn8cddrdUdeyea30J032fzZR7vzB872ba3Df3M+XFK3v/swvav3hYT2rPAXR+Qx0Xvx9q5pj29jdW9d13SjB52sK1Od0/d+/Px5Hl7dFAf1ro1Gf3S61YNiRtF6tvqZGtmudc36VViPkXtaM0smrneih4fuD/pJr1X1N4eukeN6HlIn+o3Nn6lfhjhnofw/Kcbiur3DyH9hy+tTP/T/O1Q2J7KWXCHH8Z6V1q8aW25cZ/qX6Q3ZyZocuvOhD15cz6m+kQ9NcNa29a2dGpbaqpT8KkokAtifJo6+1lSJynvhXax/qrP3ee15WxzOxE+nNEexvbeRrXLT9fXEvlgPFz5YFHOXpS9tyXt279Ir1ehH6fDLUfs8y1Mlelk6T98rT7uz/Hiw4jXx7FwY56HF/1n8f35FK08D0vlptTtVMtK5p6wRbV+ZZyqrSyHd479brQmhjdX5/ml+TINPkzRH7rV8m3p1U176h6tC+FXm5bPwaC4OWpImzsFc3P4awXz35rT93ja+2WlcP2cvNitVp+5z82PU91vPt3Agfu+mhF3zNP3hxP3eb6dS/T7+LFfvlEe9ycUtn/7blwq1/O9p1XyPJ63DD3K4tsT8TSFs96zuHzBafy0fr1eRvn4tj3ft7Iy0L0pckv58Xlzx74y5lXkvp2r9bkK93O4UTUcEbcy77U5sQ/Wo39s41pcGNdd2TK1eXo8S2bzC1vmfGdqNgL2eJl+Y+4PJe8vjYT9Ywvb37wby5Exh9R8bIa/hcfsY284XKpL5JqNa72pr+NT1qpFyXovcKdqkFyzbyVFHxfdrE/hYJoqXT8nltuFvsHAXgXuaZo6c+CqZehzfQh/TkSP58msLEQ9Wda+Mh2uvU2vJrhP+dzXOoRvvTBuX891P86U4afv/i6k/2G+evtuLALu4d+xaEFbierF9JgmQFcZeLNzbX0mXPE/cX6EjyvY2zL3tTy9sxU9LftV6oa11KlkH+Md6Olpi9Xk9c89K5/j1StznYkHQ2PnYOBMOOG9KXuf202rc3+o+0cOf80P34tj+mKuexC1Nx/Hs7L2vDTuuAt9ZS/LfCtJ+vvL9C9E3j+iEu7FV2/Hpot8TE2XWnbkPgYpettn1i5kWTrblur0JpBftGMlfqgf2VOn/q1abR6Ww0W1alUsXz5srE7jj2E9W/PCrcT4OSprX+1YKy/NT29hqd9xiL7BCtVPcebeTe3L3Hwqytmn22hF33dmyD1Uus+3Vt4ehvP7xynvLtM/dTh/+e2PKaViSntTxn7cgj6tp+hT2e8WbURvf45CeTe6n1sPt9KkFqxMz943rU6IKyfStHE86m1bwvfYJtjpnAw8yc2v7768TsvDW/Mp7jI764h9DlvT5+b6vBfFPyKuN6Piim2pVS968ehN9KPXAb2pc6/60G/3CP5eyfunLmz/drk6r5el5Vl5Slna3q2E+3BG34Tszi70uB+912ee1ofHpXyeSx6xqwCeqgr1eF9qcY/eK41rq9ZTeA1+Tjg+na2L49dd+h52qNUBvgjObVn7dG5En4oc/UmZ+Zld6Svd6OGt+S2MjNsvMf1wvn6YFXdYqnrTOfpy6P7h55++0Zf+CQvbs3BcnLuXIX2sTs+zavdePl03twVX5GEWfmLE6znLVMe8U60dB1e1saVgPuzh57EX0vNm9LoR7XFfetRmXi1wCSfFNQvWucIiuDZwl0G+GvRafkx+UN5L1MuEvc3Pi6vzoFLu42rcT1XOVcVw/QB/A0fv+d612x0StxLdf/5ayfsnCedv3o5Z7p2PhGlCertFrTNOpm5Wm4ID/E4yni6bD3duW/pYHbb357xW9W55kB87Z+9xV1qq29lWg3M5Ki5FmbnYfr3hfQ7q4uY40GdRfm4b07trV8o3ygv2TuPaUyri2tK4ahRslqC39+jtqpb5dgL7/nDqfjx4v62N6Kcu05W8f/zd+au37x4jd9lwVt6mV2Nel0Bfna23h+xlWXz+LKA+eG9T9pVB7tMFde6pu3CtW/SWpnhFehj/o8P5oIyurYafepk5Wzlsn6OT97mqZW8uy6OetvDqvDtgZo4nx8XH7pfH8rX1a0Xj+TSFx+vd2TLTlm7Ol5z8uPj8UOF+bD8vd6fOW65yvz/j/b98r+T9Iya2v/jqx1TOiUnLyNfy5nxsJramunC9swm9zL3rJerH6D5deOh+svi9OV+PFq617w33ozaL2+L+83h6THfAa4q71oT2DRW1x3fqzWrUbiF8PXIm3syycq4er08to/X0pKieR+6pqGsv17PMxTzYsCBu2vBR+3GJ6nFA3BK157pPbb7lu/T3r93vv//7527Tn+Tl6x9TOS8mP1pfovbYNpiPxbLz/Bb98V1Nk1sR18PK+GBU+zkdbHkE761jqbLx1E6Aa3ao1eG9SrNTu5K1Hv9at60V5+pFX1tbLyeUb7Uubl6L/UFy3qbjvRa13mS4tST8RL59YblctBm9rWuvJsVtchDsPjhuPzak7/PDdh5D+lIhp+T9qYXt+TrUsky9qpCrPmZssvIgfw+HwAVT3ae2tj2L+53s/Glz49LU37EefNI0RSF8uU2PVqVXB/FjeKd+dm+alP2K4/d8Knkvd6UH5+VNAl/k450H2gP2ODF/WlV7M+O9PXKvS9+jHD00zdsM6PtjmXv+1r7Yozrf9N15/eovP32tMf2ySriXj+E8VTtOswP36JA9Hws7FkvU+hNf64a0ZkXL6ln7k6vhylEyTSg/LkYrO9CLE/nyXH0Mtp7XF+1FEVxVNZd66Xhb9pYE8euO5nNwwh483mTmc7MOtW1Fn+IBMtVAuc7NeS+Sf4Li9mps+1Qdvc+dSe6bLo47LGbZl/Xu+30+xH2+wTy8juz3eYR///KTkvcL7s5fvXlcjzql4Nq8XGTeDImpztTHU3vX2o8pS96nVKfjeQQ/GdK7Wfm/jSuDXVM+FCZVy9OibWu9HWyp6UQbm9r2OoSPJ8rcBfLNn70X9+dRJVw7Hi48aW9ieDDhtd7Aem4YP5WlVxvVyhXoU13PXuTo1Yj3jQf2/bzE9SUfn/c3fu5+3+Tp99lj9z9984W79PPC+dt3SzifUh7Xg3vv4sQ9P4uvp9A0g9nbRram4L07qj0cM3MqRQ8nvjbj4poaubIXfXWKexWqg0WpTalcai7LUx24z5oTJ8g/9+vxUx8718Pfugfx3fd2I3p/G9vU6VK7KD0/tZ6lM9Z9aoL6zfSf75su9MPQ17lIz9vetVtYoXpfxvN2DdvDLjYl72cUtr/6MR/RPi6T2uuJMo9342Nw8x3PdKuK3Xur1KbOfpboHr3boXZBtXuwgW2Jv9UBfW9HajxzptmLHsb7KGSn4NETreqC+eZi/xzUsEfVbtNUNKZ3BsK29XPhENiPmBbTZu3hJJn2/nye+ytatjzw9TjvddmyNmcvNq4V4f2+iOcf/v3l+y+UvK9Wwr3+MTthH49jWo+BfSxv0Etjd2lqkKXnJ+7tQXsK8vAwTBcjbZ78T7sNvYzHYy+kR4tZssA9BoVwU1vd3r47DtO60W8hss/d4rmoBb3eqdbrOg/mx8Xj4z56Dlz0w1Qcrce70OvCuGO+Pm070O/LDWxRNj7fTOBeffC++OFDjP/le4tbVgrb3+YX5uUYuDg+16vLe5XsK8taepl1k/af2rT29GL3sve8OZ+PitzD9DsL6WMV31NTE58X062l4OXDY6+RXaC/yvA9B68GVWzBnLi5OmiPtq1W89x7JXD50vOnl8PltezlL9ZuaWkvyqsM/aYGxe2PxXH7LFO/xZ2pncP11ZCu5D0+bH/5+t2Y70Nt1qpla1Kn4F69rXkvr9nrWvjDG1PzMdFetbZT7amjXi/K2Mvj8vryvAnQTVNbb4LcVJ/s15F4vKxzTRy/kjP1+USvWtyJXoTsqkltavvX5qonPQjSvR71c/e0XFYK35yzZ6ftzUb0unlt2nhmvj8cu2d35vNx29rtJuydBrbi5P3h5aevXyh5ryvhPvSplfVtRclbdcQ+ZjF7bNP345n9OAWFcW0tfNywNuXbU/t9av30/mRWHk+AS3Xd+odj+CJyl/1rQShPdZ1bEJTryXFpfbB7ms4a+s7V1cSFI+PmaM1aOy8uOkuPetvmpgquP3VmvvzkvVsQV1e21/XsUdH7dDtb0fMC9+Mc93ne9pTXs/arFe1q983MuOLlp2/UxxXh/Md3QZfaGOxGLZvSizh+GBlXJeljihrPi2lydbR+vFhfL18veteO//zbmYVw4bi4x6Py5fGxKmVrm9NSW8MWTaBrl62N5Ti4tWP0p4dwcf/ZBfi5k7B3XpujW/Q5mAXfbkyfy+Q+iPDl1JnOepanbkDv5vLNXJmmOW26qWVrWSt6sZZlvrVl6PdnvCMI6Q/j437+/qVA/rB/5fNXP5YjYbK2s6maJ3MMtuVl+ljtW+tNkXl4bKymyVXFbWdNk8uWt6zm4/3D9PLhYE1qMzsujufdaTPdWN7MaB+bJPyMeJ5E7U0k7HOdkrc1cvmJenQt3utMCzP0lYg+t6vaVgJ7G8vDNWvlyLh5DprSi2q4Mrxv91J9fxwrs7yeTYsz+zXMxqv79fus/v2X775wmf6hsP1dsRe12rdyuPWuTuPzsbBRg3n50xg1nk9FLX2aqg64qZ4TF89zv+ikfSVXT5329HYjy0qRe7BeLSybq0N6HtjHpfJtqZlLk77zzYb5+XTZ+9xsTc0/cw4i/9yuaOvcpscX6CdHvZ49F7bsU+/sQp9usCRuX810z47c91UP+rYP3+97q1hODZMrQ/29kvf/9vnrZorMMYIXx+5TNTsmrY+Hqce/Lc8OpsMTgSBKp05d+79FUTxa2nJusdzKyXu3mL2I7Wt96GUwT9UqlnxKbAqK28fuvbk4fu2p+XxJjJ87m9XmOp7PU5i0n7gon1YWp146UCbeuXYqthcf2RkCu7XlqfEV+n4+5ufZYJlOrfttXatHN+j35dSZQ0j/sF71p1sO6e8L25spMuWl+dj0rI3lIXn5DKDalD7Fk+KyIvix8yFVRB+DUTPRmPcykJ+RqoexvCpmf+xDn6L696gPfeVsPdWV7/XUmbw9fbUrLQnu2zuKn1cP5uegWm7u3p/Xk2DP2XceJe8X9p+ft1u1KZPrDJaZbqPO/SGclxNljlH7lhen7sMb82KbapGiv3/56csXtzlr5rNXS9t5HiCbRDwsay9XqT1G3LFZxDY2g12nFFyxxyG/aGIL29nOHRx3/nb03tS4ZsdKquN2c+/elNC3U+PK+BysS19f1cLNHLu3l+xzf257tEW1nQs7HYvZ24jeGQJ7YYV7PERmbpe11LNkpu2ftq8Ed+G7OmC/L7vX7vfdtz9k7j98c4uLW179o8jO68ntxdK0IraXqfcYLmppy+LjeB0F8+6l+ZSqyB5cfD917VpZj57y9vAU1LxFQXuqB703/eUpiNljWe+e1cAH02q6zwe4tvDd2Xs+R/tY5jasr01sjz6gt5elO/41a2C78AY9LGdvWtKnpeotXLcWxfRpu8H9WNx+KI4rD9tvtoetLmqv2tXuqyP3x5dffv7uxkreP3+c2J71qeX/LgfuZTHc2Jymj2tbVqZ2qEyQj0cj4OuBrmGQzhrEL4rm8U6WMFnvFMAF21mKpwNZH1qqT9N7y9bS5RE66VPbWH4+Vz/F89+qCD9HdXHFFrbsF6ur2HtRePqYua9TZx962WueDYQ9Lm0p6+U2nZ/nVe7zoVGt6j+XqIdLWu6rjvX7fJ3LseT9drL0F199yM7rg/ZiUHux+bwpXF/q3upNaamsWY+P1eMUPUzW49cuTskvnRTXGTJTJ+thl1rT2V5Okisr4Oq5c3lgH7sH7eL2hvvYqna1cMTM6a3oczuivdNsXsbhE2fnF0X4bo96sCx1PSWftnvsvj8uZzmMjTteo9/4bpb7tQq5PEGvovxDSP/5uxupj3sobD+k51EVe9VanlIzPm4qDuu7G1GnYpFLvWFtijL6KYrjvXL2C+/JU3teHk6OS3EePkWrztd62MJgncJC9mP8Tisj4oL3iexXG7mzw/E5nBU3t/Vw8YSYcI9aON51aivds9kzc6cH/aL8PFrBVrapHz+2GAGbr265jdVr+yJfLwvc98uUmfnmovp9v4etd3Fenb0/drH98OXms/TPXrx+aFMby90rUaN5vfqsydGrUrcxOFSvo2/x8vgJY7AqfT0zX4vmZ2bnZdXbVMya6U+FS1PUyxbMhsvmzk2ri9Gr1HzsncCPZ565c11V7dF75uij80ntzX17d8bM3D4dqGvg4ugcDZDpJu7NeXsU2dsT9maHahTBt52lL11rywT34yrV9SP3eePp+D6a3V5l4vdhSD+87/1I2C9fbL+wPTtLT3U8n8KpMcVS9OMJ/FjUs091sVs+NCYaPTMGx/F5k1o9V+Y4FO7xoU6ov7TAfeyfuDeL19qt572xr+W2lqlqUEtTtKElHBSXLrlB59rT9zpXn4Or9fbKvLsDfZ7CJvR6oMzH7kw93bKW341XXWtTPFFmcx1r+9VT9/l4xj5no17nKIjPt5in3+/bFrUolFfT4+5/+eHrl5vtYnv15m0RqqeqJe0Q2/Pl51l9XHnkXp7Yp2rWzNhvRK/r3aPKuWZf6rS6afX9DPfxKWvVwgazoGVtmqZgAk3VTx70pOfjZYIz8zR1EvUiMTdXZvMxfa4r3epA3p61B1F97sX16GC+HRhbH9d/1F6W9WXpx964sIetKXTfWG6+bwfEHRPzrG1tPu5cKxvTb7cc7j5K56sK9+Lg/aEx/ZtNZumff/EmFQNgxmPUrq7Lp7oAPi+cm4LZM8V49/GY349BtVs7dqY5og9O7FOVoAen+FN6SgPb9FDX95imVxPewwAerWb78AvkJXDFWrb6iUHUaL68Ok7N6fv0tBZ0cf+ac/a6Bq5tJW+y7+ZOvjcobo7a0uego+2c3D1YyBIH8XqEe3YEH4xuX2tf28gxe5237w+zX+d9uVFVXdx9tQW9bFy73wfZ+n128v7L9hrTX3z15l0QprOdK1lpe1sed4jhxdH8WA+SO6bmU7O2JSiZO9F83vScV51sZ9aun/sh/Ta1oJQuj9BjkJQfHxibhatFQ3unbj2FD6ztZ2Grte7BOJmmq62/iyUoi4sr3os29N4/nQf7nzM38bsc/1qNea/Wod/CQPciO98fJ7nP5aG77rW8L61ekX7fhvL77Ir9wyf9/N3ft1Ty/vmHBSzH8DumoARuPN6GH0LyWM2KK6fFVOfmy68xRXG7P9u1yt+zg/gpqHZvnwCsHsSfHtneLXBPdb16mtqtbHWHW3CDHoxtLx/MHh2jkTGrE2C7QV2sv6LgPa9m6lX3eXPYflFEDw/Ui+cGH7WOpZ/EV21s+Y362qjXaYvpeZWSLyG8aEUvR8DewgTY+/Nmvt6H9+r3UYp+DOr3P2+m5P2zz1+/rZPzMqindmRcVbxW1btPdVn8VG88T0HHeT+SN5Ne89VrKztYVoN4uEotGvS6EtHr4vZqAGzUpn48eW+i+/hY9Z6a0/VlrVqagumy09p0d3H8qm7KT5+0V/vLg2r3auhbMMo9v3dv0/h6T+pHtav17847N+lNSVxe+h7G980vW9svzWnHlejVpfl8q6ftUYperkKP8vP7slH94T0/fPn59dfH/e2L12/LivQ6zR6rredjWdPe1selKpY/jpCJ0vCxmdteB+8w4W5P3PP78ygfv7Qcbu0wvpkJV7y+3JpHfecp2sF2bD5vE+txKi7epxN9amshWyy/woT9jBgfjJeZ66cH4RrzIO8u3uoesn/MeLg4eldr0+d601r76uYXs4Sr0ffHqrlTIXy+1ch+Xwb4JkWvcvr7/Eb9fcn7tYfzN29XVqHVU9zrc/ix3qvW3IqXHeVtz3ozt32KQvpahA+nzGTLWaLQfu5N+urG9N7Q184cmdQJ5vUA9/GYkKfw1rw6pS/2r0WVcuL4ppL3ubkun8voX85+bYbGNLXvwZl7J2gfk/sLd6hOK2Vxczdf71W1BwtTpy2etlevPp64l8ft841m5fft8XowRKY9k28L3rN69w///PLTN1cb0j/77POXb9KTjRd/RnPjPpa/0lQl+1NqJ8tlnzcGu9fzmrx8XHz0dCLc2Fbvdknh8X293K33jGJ6rORfu8Tv9L6vl+PHrfHNJ4/FO8Lh9GNn+k37bGOcgl69erRd6h4geGLBH1PtP9XXCGudeRf0181Vkf1tnAac0yJ/WBdznHVzaKQ7+QzjCp6C/PzNi88/u7rr9Bevvvr2zY9Duuyfcx4uH6k/4tQv1fu8+pHyHZ3/+ZO/2vIyfPjxfzaPfHhJD28sP6XlvdnHPr5Wv5mKB/PPKT/lOdudfHy32+0Orz38+/gBH159/OHRw+sPn7w7/PP4snv4sOHxh+WTWsPqm6uPRh8xZA88/Hcd/gvP+I04571/8h/XLvyvevhtf/xx9/j/9PDj4//9hz+w3eOPh9+Uxw87/nYtf1DHX2n5k3/8atgtf/DDrvjP2T3T37q/Slp+zr8FFW+n5ufjW3fZN88nfz/Pvp3e9Mu7H799/dXLa6p6f/ntj28v+pNf/1Jp36jfdQiHxTvqX24of5Uh/6j8i778HxiKj07534HO2+VnFH95UhXGy6AdxOa0ke8nu/iBw/fwIf/OfYi0x2/72bfuoQyMj2Ehj9JtjD0dc7lR+ddb+NUzlE8ugq+z4mlL9Vyt+LLfbeXpRTr5ViofScX3z5t/+fDDu7c/vr6SeTOfvfqxDGqX/Hv64ZWfUi+StvEx1YE1f3aQZ8Bp/U+mDOfR09z/Wf2nlM+Wi3+b/Lr5S5O2ENSzTHtY8rTHf4bye+nxA+IQPeyWlL34NLGKNkAPnXcXX2HFEUH2RHKJ60N77nL4in4M5rtjgN/ICUFaebz8FpaaDKg5b7zxkL78bn57BfNmPnv15l0VBi/9ef2h6EAo/CLqZvKp/Pj+E4OV/9Hs4eYDwj/A9vy9e3SeNhC8uzF9F6Qqh2+Ap78TH1Kp4fhdtP3oQTznaXn6kmKXX2LdxDw7JxoOx0pD8TW+1aP+JmGqU5FUpCd3dbi/9Qz94ed33z73Qe8vvn03PCWIrwboMyJ5Kp4P1r9E99S8OrPvxuT6gP7Ex7YH7e2Xc3AIkepQPzz8Xbj24/Xg/Yc85pjKHNLzYzZUfMdtE6TlAvbyE3bxXgA/huShl7Pvsq/GLHTvhuJ8KD9uH/LwvkV3bTFP+3pqkxNhvBsw3r5+znfpn718O6xHuzOiYSdKp/M/N60/EYgT5rP+J9PJZxlVqp6GTslaGtpLhThZL57hnnUO9lyje17NloX2slhtqOrHdvUVefa9NL/XrIqpYD2oV08GlyK84zPO3XI93lzpFCWOu+ysabfLj6HCn642mPfieZ2PtDW/wng3+rx5vtNmPv/q3WWhNF3+jObCz73s1Pzj/9easrciwA9FkG/vlHqFJds5ft+V1dCHb6tD8b0zPHQvK52LuD00VeRwMqQP0Zl7/ZyxKsRcInjx6wx5KWf1JX6dgfyuPB6Mz9TTiRy9Kl0SvcOT5bevnulN+mev/8dwyXn0uZHz0kB/+Sdc8L927pOUFMTmlP11SfET3vDzVv7CXWEwL+P3sagt+/44FOnQUJ2MhmekgjhPOHcforS9/tIrCzPa+sy8ea46c9/tNniLnoI3U+fIvW2XE9ib8+G3Xz3TeP4x0fkTZehPS9Y/cYbe9sSlpjK+88FhI0i6hhx9d947dk1Dzy6vdM/bxrMa+Oxwfhiqk/ZhOL+mGU4E+WFXtbOVFe7Zk4HiWeeQN1o+5xkCl+TnZxXGtTl5UBbk4H0t+Lx7dS3x/IyS76eH9HMfi965+pwpXfwrdxsT7gbyyJ0fTNYlRnlOlI8Vya8zy9fPqogT17mk2L09lB/yBL55/jg0nevD8tR0GHZtwya3nai3vc/vnt+p+9++etf8p0/7/T0A8MF+nspu6ffF7l88u361t9VQgfnX3wCAwv1UHQW/eWbda5//WJ4jzL/+9uv9PE2JazUsr9w9vnZ3mEb8+NhwfOSueaOeun/45y77sX40+OeuOJ26C19/fLnLXz3cndwtN313zR3I3V9/NXnXTBy4O/w/yOsn7/JX/4gfz/mQ4qfs066kCaM87Lwblt/nu6U3tPq6Kr/Wmi/N7I3467l5MHsj+yty18z7rv6qDdnfx4e/iMFfVK7CNO3vf/3tfi6/fb1+Xofur4vL/vnDf6/JvfWlSV0I1xSXXP9A16babdhlCzt2w5AvTMlHvg67pYctazHPX3ZDcXNezXWvJ9KEDcPXfbs+XPRxQ33de+gSXOkYaEeZD2f+T1/nb2Y23Oi4Tib6iGo4bFm/mX99N1/v5Zd+XhJab+fZXdkFeFPzXn2nC7ZVCAWPL+8z3vspf+R/PKvCuJdv8z+9/W+/Tv4Am7LGZqVLsVUmnG2X+lOZrrwZffkOdyxjj3uAqha2YrHacS7noPyNj3tyNAzDUH8ZDas97MUMuXzz2zL7PYveu931l8SlE8Xr7ViNM8d13V5ASMP+t9/GfJDoj58/rwr35Q/s/rf75A8w+jpvZ8St1OrH22o2MlpmN+TDtZbWtWy5Wr0AI0t42oEygwlxXDBKJoztQ7FsZVeOM4o/MQvdy3y5IufeXXF5+13z49DOb2/b0Ydh6GykEguypzrTr7/lx+7vvnpWFXHLf9n+t3168lSZbY7uTScO29NZQ13TsLGVLbs8dmfpeqfXt+lj6zSdi+w8JWPPpwdnC3uXSUflBcRQzDYcslC+u+om9LuzMvXyjWKuTDXwOgUzM6XoH3749dc5nwH72XO6QT/+h02/3fvzWptDN0T7X9tVbL0hc1sYFZfH9GoBar2aemi3Xu3KUXLNqjYBnXPP2as282U2wlAt6d1VW1myCo+lPT2bDJdfml/zYXtvLFyKR2MVG6ny0O4KNozov+WPvnw2J+5Zgj4dzts9IWuXtQzN2vbOwKV208GVl8wFw+Ly73356Ldiw1XxTfe4pW054qwyestTOS+W90N7WV+5nKKXR0P11+wyxriY5n6dh+13K4+nYejuXIuj/0eOAt9yljf9+mv24LfPJaC/ypLN+9+mjx31uvXoHs577VybN8daG5o+t8xtPc5/Xb6lFhflw3KHvsx+rcfJWbTGE8P8kNdhFFtT6/1AVQ9FvnhgGHb5UvRhyNYVbHDIW52X9zaslY8KAeXL/rf98ua7F88koH+7/IlNv+09JVsbXNs8nU1tYh4+Yd5KVVy1/HyXp9pD3WtVNKhluXhRslS9D87I04vz86ZQI2ugHIZgumv1tXnsX1vdsbbbTjQPv2mleKp7883PyxIjixT9mZTF5UNl7n/1LGx1hnyUozenV+HR+2Za13b5Dfqxwr38FjmUZ6C7ctZ7m743VXRw+VF8/gxxqdisnwlkR0THg6J8ffpG0/L4W1SKat4fv8vdpaZoTjQos7wpT9GfyZn7hyb0x/+o/D/PkXt30VCdo2f3U20g3+CCl+y6cQnVVTFcVv6eNa0dfmoWXMJHHbvvyhXnu/D54VDuXau3twzFiJk6rO82GdbLAqHgClEgXyus+vV+efSZtKK/enf8Q51/mz5+IfrmnonVhSFRw1p/utLVF7d3+tV2uyyZyUvZs2vy4Xh1mfWi74p1lf31qUI95wTzIZ8S186EW/3ksixzqQi5rEz0eZfHpVMn79GIuDR87IrNG7mHnX9bosPb51Hn/tX/KG4EZOjRHIH8eL09gIoGzqRe0+c2psoULei75hZzKBvY8ii+q9qJ4ONu08tj96G5Yy/jfL7wt/oK3dVjXcuRC9df6p6in3oJSZzEeClXkv42H3+T3j6L8a9/e7385/12749otba9+xcirh49rI3YzK15Wx63G+oJHfGd5lDWH5+aSQ5nZeftl1q7OmCodwTkT0WHqgp+O2frd+GbKSpwb3PzU3vARYTHl1+XuS3vnkVA/+z1MnLeUJn+pL+4OjTVLeft+w9/m+6uOqK3M7SWoa3Dbiha0Kq43hyutzG9+ZYLZ9fC5UVtQRV8VupR1b+Vv+KwpPTX3IXehvG7LLrfxRfpwQxMIf2cI/f066/LgpZnUeb+Wda19r5pzZ9WN57HT2Wjvwir5+6bSNKLxVS7cKLrsMsmz+yWBRqXtZwL75zxFTLUzxeHIW+syObHFZOQhqKZPRt4uI0yuLvo2084BquuF2pHwgrp4d61+9+Ovyn/1zMJ6NmYuL0/o+CJWHdnQdP/EVxFBUNl0lWH8qUtKA/pQ/W9cTfson2o+SXnklW1hcciOReH9eIrLLsUrz9wyDf9ZuV0hzP4rB392gN7OqvQvco8mlD/8C3wTkgPjtzvf1veeG4Z+vuA7g+rU+aeuqtRU7SraFNrWOLL8+M21GHZ1D3UOdJQDXUNjkbLnemiOU84tFmeQw7tXqDD0oGh2v23rHDZ1Q3snee1u01E9dT7KfV6zrMYJiYUR+7vM/RnNVnms2+P/5HNnDhPxMrnsXfRcIYUPrWND8C2USKXLZwc8m+D4bfboe4SGqprzCHMo+BUXM9OeIb6NryZabSL5hEO1U/ZodOmGs6PP901uXm7UaoYs3FicqYMPTtyT8/syD05cl9dhV6POO72fwwrk+Ku/wJ9tzStFWVx+fbpqLd8OM7PLkqSVbvzqVL2oDltmYmwLGDJ7tWHYkZCscTlOtPyu86bd2HGnjpVvikawOElenn2R+7+kFK8pCAY4Z66tSNbOnTftZ3oWbdasbUyaCBabibzB7Mr+PzcHT4iog9DNX9wCKbNNE0Wy2Ck5Sv62Hu+u+bpMncn8vZmgkybrdRJu5cqQjz7I3d/RmuVcSmI1cFCgxS/a7j2WXF5T0+W9ezyAR5tpdJQdbMVBcV5LB8UufPkq/Qh/FIa8qnD9YX7sMu3uByOkIZynPv19KbfnXODnoazH0jlxaOQHrw4cr/OqrioZzNFYxrOLDC9mrR8Vzbl5mPihmWPWrvcPO/r3RUfNgzddanu0vmYqD5kJ+z1sLjyfr0ooCt/tWz5wBVXwp1RH9dZKBneOT683AkIQYbuyP0K29CDY6r6r0k6Fco3sqZlWUpZnqIPu6EzKq6qYwrz8aI22UxYLo7nQ3tvM1Q36+2qv+ILOKvv2J0+YN9db1BPUeFPO8K9DenCQZShO3K/qgS96kXv5ujbq4aLv3EVVXHDEAXyctzmEJQmZ5Pd43Z1eEpcH8qVAvGEwmr6UfZwtlhoGYx05Wn6XVALFx061n07aWiWTTp3D4riHLlfWZV7cZGe6uky0YlWuVL1yYUrzzW27/JpsFlxUb2dOjuAH+qj+MEGdP648D7U+1nWDoaOX74b25h6l3+HuRvCwp+hmZXVK4SXojty31LTYRXgh+7V07aGyuyKQL5k58NxVEe1Cb280RzyxedDe8FuKzofnZoP9RlQPa6oqtCsvuiG7Pb92IS52w1bGQBbhvG79vtZWDdUZy+60LsZuiP3K6uJW9vWMoSLDfLPLhazpKsM6HUbT97ssxxRFquu2nP1IbuqzOveh/oqFD5h+fswlME++4ocgk8b8rGw9V+F3RVl5mfUxbWVQIfxMync2yJDD9vWHLlfX8daip6eVl3oKZjANGwoY88LhYosu9d1NkQFS9FNpmjOR9+dD0VtZf6kMxw9Uwf8Iet0W10Z/Oxr5O7OydTTEOQmwQP5zFej3MOiOEfuV3TYnqIVBvGo19Sd3tD5a3Z3Ndfpu3yH6nGFxa7adp4P8sjC99KJPgzFN9niwwbX6TztsrwO2UFhXP11NtRFdEPV8lZNW9jKsftdfVGeqty7GZVV360LC47cr7ljrWnYTJ16ueIr/26j+1nKhehZn88u6FErw3ZWOLzrVCepdOfja+CGfNParhxlOIRfpFmszybLbOj+PM4p1idkNRVzatwNltlCgp7CPaidr/r+OLlNdKUfvzuWzWu7dqhMmEcN+SyPYlG6qMQnP4Ef8kVq5ULfot+8eEpZ7mnZRFncXTAuo9NcW8667BX8ejHL/YoT9LrIM9jcEj4fro/p764+Nd8Vkf2Yy5SBuzzMPE7TLMqO2ht2uLzcrXlvWW6ZTUkon08OZYncbpkQO9QH7LtrLIq7KG1PnRHucX2QqGCW+9XfoN+1YXyoezs6GXnaVGFc1qjWrDwdmvPLrPx9aJdjDLuVnmC4LNK3rZPHJ5HLSMOqSLOZeJQtBNx1dgxeX25+N5RrU6sBGVXHef0d7q6Zbe3Fkft1D5a5a+N4O2op1Sfvqfz7s42r811WKlQvsSor3ssjzqJmLki6jHDnk2XvxdyDIat3q2rZg2v044iF5Wu8Onjf0qr0pk8n5d3q+beyzg4LL47cr3F9arsYfQjK5oInvU3mfnd9kbw8fsynuGdBPTtTL5t/wgpk+MNCepGhF+0Xu6rKo1rfkt0OHTf+XkGP2uV9bKkb04e8P3cI2nIduTty38ZVeipHLdTPau+ivxxpc03oxyh9vHGs24LWzs+Hpseoyc4HZ+987N16uBK9PgYamvHv+bOApgT0epPzu3MuAVNb0F5/s0vyc0fuG7pKb6+QejNhU/D3Z1OTZZZyo2aA+1D2Dg1DniM1W6+Gof3OCp8swi+Dhcsj93BCXHCdXtWBXn80r98VNfDU6bys3Cz3rU1+jVYDR4NfU1AourUG9N0xOT9WD+2CmrdjFC+bfD9lUTNi9lrFe9mWVp2+Bxl9NV3uOERpAw1rUXbRqddttlENOtcMltnWXpZgDXoaTsXzYbXm/aomyOT1QLtsdcUxtmeDO+qyuKrs/dTBvBDO0wN8VtdePYE8PhVtajrqR4ZqUNywnUFxaeXovZultDtZxAWz3LewRDX79y6sGFkP2ddb6n78dlYOxAyKkeqR7VnM7608F8H5YzL3fFBctiSo7b1Yetbzerkttp53u3HqqRvRUeOdhWuq3DeynaUadVztUW1nxG1j8Ouu6VXLztibbp+hOnsfurVwwxBWyknWedqZ+1LdPuyCr8K2dqPpk8wK4pYsP0vRs7Op7STp7XewcohcedB+Nzht7xXFOXK/suy8mZnYrEbv7CSMRytebQt61s2TFbo3c12z76VB4dxuKFdixZFbOOfy4F7UZw7V1+GwG4r2jCLmL9vQy0ulqzx0vzv74dTLRdLQNLMJBr07dEfuV5WdB8vRo9kyaeXC6m4jufrxznwYyiHtzRCuvFVoyF8bsilyg8DNJwzp/bucofySHZplvtlI2LgW7vpS87v1x8NVkXUdcDk+zosq92sviBuakrhw2ntc2L6VKvfjOpZyyvXxjnwXjHJdOtuCnt98NYaQzqcsd+/NMhiajaq7aibsMCy9lscv+ys8Y7/rn7SnlcQjBcl6auO72O7IfQOta8UImXha4vYC+bHmd1cMvmzu0qulVvX4mE7IHmxn4dOWwe3qAXC7ob7yKZ9dDlV+XmxHz+pAd82MpeuL8HfrDWzVd7Jgd0u5Od2LI/frvES/y7+6U3uP3h7Ht4tV74bNxPhsZEw1IbtOlfJL9zxrHwYBnE8f1od6wOvST3nm3Xt+WTSUC9K3cuBeFLitzNnIvt/V7WrCgiP3K87Oy+elYTzvhfInDnF6Pun5rp3nvrQD7aLW3ubgvborH9rrzqXyWKauOvCP+S1sVw3sygW/+Q9FXdxw9Xfpa7XuKcrBi1UWbeGcFN2R+9U3rYUdHvW9eeofuV/bIfyu7cItqn/ztZRDE42HdhlGWQ3XKWSCj3yeMwTLeYfqmWNWJFd9sQ55C9ywLAnO6jmv2V3nWn11/Ey0okJoMFjmesvilo3oQXFJVR1614xc2sRomTprz2djD/VpZ3CFPjQjNSWf/AFhPW6BHIZmlUDzSXn/eXXQvrv+CH5Xlf+kurY9dY/d22EcXgyWudY1aym/Smor2VPnWeymStyr72jZyI2yUH0pKCo2VA6rHUXDamUyPCXOLxfonYGG4Un8ocBjaVvbZWl5sA79mQ6aueumEOVYuLtebXvYgJ5/s7sTHRy5X+matVQm4c2XfbssNXUaRK69c634jra0rBXD24c8rJdNauXSq9WkSmDniQfvxTKgISjXHIbOtrVsWNJQjHSPovZ1Ju0p3ELRnR6XmiK4NLhFV+V+/cvW4v7y1H9eu525r2VF3JBdLy6ZelUaN3QidjOGU9zmk4TzaGrwULRWFCt/D/l4u72lOEsqxiMOG7o+b48RUzxmJoj04TgOVe6O3K917GtULdc8/03B36O7a79F35Vl7seL86VLt8zTi+Xo2XvqUe6Gyyhy/9Tl7E28H3ZVn/pQDow7ns8vYX8YsrmIW5LCmre2KCi1Z5Au061PvfIb9ObOqCqDS90zrbutJOrVYeSuHAO3FLAPden6UBTFFbtcxCr+kIvzuDSjXilQD4irn13mw193K2ftu2vLylPdjF5/Q0vNtaEjdlXuWylxj7L1FDxl7awjTMMG7fL+s0MBUd2P1gyNq+7SJZ/y8T+nLi7bI7Q8+QxK45bYPxSL14r5C9d+0n7Xie290vfoGt1LUxTnyP36+taa6/Neq3mK/8JceZqeDcOsyn/zQ81qdNxQ3acP7fFnN5qJbIL9E35nhqIAc8jXAA3B4dGu2ipwrHJfWjHzxUTXkJufvtVLvaBefhdrZ7yb4+7I/foL4lLbX57iAQvR9dNVxfTdalqe71zLL8OHcn1VdXFZ7qochmBnqkAlpP8hv1VDfCKfHzIdD5qyzSzlE9Lsqz3+G3KNmXuwo6LdnVqfU7o8d+R+/dl5UPx2Fzxb7cTutIHkvG25LQbDBXPZq1lcx/vIclxc3HwuZgnon+7I/Vj20U6B6/8G55+wvbL23tlhOw8uWoruxZH7RgrdU7A3dS16p43coe+y48bjYXu1YqVuH8quL7NNF9l3zHCk+23Fq0H0/qN/Q9tFa9GCvyUxzx6plwvudsUT3N1VR/fUuSeMzhTNe3Xkvq2Xu+hkqpqyUD/XvbvwVuuKGteKJGYIKt3a76pD9epQvVfFu9z8j/kty55KZrUeQ1WtuZytZ/Vy+UDEXV46cu05e4ridN1pnoJFa2LBdo7c7/+54rd0S6fw1YC4tDJ1KW2md61K14dhGHZVz0+Q/OQNbkN+kBk9BRCx+OQR/fjlNgztMftQPZVcvqaLpHwLPeh3JxKL1FmJHjwHEMO3cOT+n//fiv83bfq4fe2gvSksicYxbCSeZ+vVdkuEbraq7cq1VVXIH8LeIgFdVv5JLs2Hk+E9KNzIFwsVFZ3LIqKtTZZpI3lUy96+T/vaRo7cTwT0LTeip35l6OkF6OkpXSXPteo921pRbDkvtlAOS/9aO8O9k8MLYJeF9uBJkN+61TieX6bnt+XDUIbvbD1BOcl9qeq82tr2u6F7mNjpY0tDfPbu+P3qj9xPBfTtJuh1kXuKn7KubFpL27lN3y2zs3bZRJlexfAQdKG3Ne7I3v+Q352hrFyvFw0M4QrVw5F7PdT4ue5Vu7zGPUUxPPVy9DJXv5Ohb2N96m0euR+/ru+W2rhgEnIaoor4Te1nqcZgHouNhibdPibvQzMsbugsrTTI/cyC7fCy4vZ+94Z5Gs743Rt2VS/FMN9Pw1AdKBXBfMhXp2dta2l6L50I6eE7p/nDP0/66zfdz0/6FnI37R++GT38fNc/MizvEaf5vff/P6f9VHwXvIv6frwsGboj92sbMJOKQJ0621HbkH+3jbP3XXWXnpes50Oxq01V4c3mYF3qmbG8fsq0+rt1I7+F+//8/ff/SBcWur9/ffzP3//1+JnxMt8hr4fPBscOwz9/f++3J8x/nf7zw6f+/pTr7X/+/q/f/2t/+dOAf//99/89D8PwH7///vv9GZfoxx8f/m/+5/Qf//r9f/9WFwNF0zO9HPahX+eR+//zf6pQ/n+2feSehna2TH8BUb2ebQNJ+i46bDxOhylay3fLvOwhqnSvR28O5bdcHLSfGdD//Z//VQT0ISh8C04xhv/416/73/71z12xYi3+zV061R6+qv/5r1/vf/11fkpUvv/11/tf//WfT/jU337/bX//H/918XeQ6Z///u//94eA/s//WAL6XbWMJarx/ee/fv3111/v07//+3/8/s/yBHIYpOjbO3L//9l7t++4jStdfJI1a5215mkez8N5O0+/p3map1nrrJx4JpbYk9rN0pCAQCiCQcGyDcpC5LEtxXCsix17YGUEcXzJARVLPVF8k03HVLsZqUWqRfkP+63CrXYVCt2NFik1QBRBdjcahQLQTXy19/72tx2zL+B5aI0a7HIvorTseBeQnCpj7BNqDM81CU5YRXjKGtLBFJG64BQG6T3VE2hxqjJcl13Hw8FlB09locM47jv749pAqOcRJFasump8Xpox5IA4gfzfUclQNyNrhn9GP9AArKj6NIJ2zbgXpVYG6Cqve4HgS5PTZB3NyC4wh1oTvXEud7sDPjfS9+xf0lGDXe7lE1KVt53CmEy1JijLYOEs6QZLZM+wrCUDUlJwi90TwXpyWOLwXkVvKpc7iF9DQgilRmCDHGkXvqs8U43wWStxQsNgoWUgxWnuFC3wl2b4h/NCjZnp5gxdzV4yDbCKvekY57sTUNaY0cksdIEWXCQKtUvtXe5up9OxeimcB3qnkwP6ISijKhrjxQIuUMKDr5nfnUy5DecAE0UuGn6CKlwQOR24hfbpgsDtlZoG0PmVgiJZAwh1/CjQijPSQgQIiFghmNhBEES+OeO/lBVH32fo5ll2MBugRyKg02LWWreoDAdO5HmuZ8c7sGVuewvpzXO57/ndTod6zEgfWaTTIfHTJgvLUJkHRxUlDWhpPgg0qjwLkTPYcIEqUNdIFfhxbUx4dt87jLfeDzegT1YnijFa063A4WX/xOklFGIYeYlBwljuRugtzTT/pbGpPUv43fNdZ18AvZQMJ96dnMixHcfMAZ3KYXRZTa5dMgu9riz3kdnpdMzRXgjxY+NZ7qDAcS4Bq8rfpNAo8XaB5M4tcxQdByhLROelrRR5wYcan2C6NwHFLABnYcHhFs0d43IHlb2ePIn/M90IpuHE87pCCaCzv06gF2e1U6GrPVMCOzOTwIqMWQA9d7lbU1gX+Z3MCTLDPXO5C1npUjHVdmmCsMyep3U6lMG65u01WlimSP9Q1BJU/5NQqHGxNVJ4SQQlGSGQrqqcCkLRKpk5TEr6tW2q3CuA4sU7dIkCpYCOhd/QFYu/kUuRF1vLQKAoOVwo3yLUXQPPZV19bSZOnOfPdhuwfYOlrtEDsdC7ivtXSoqLjU5OiqNyoi5tiXGNEpbp251Op/NLu99wYZmY0i7gebcoGlOw0ZWs9m6dU9BFVCfYXpQwG8ZgEeBcIGgt9Yn2+Rinh+glPmwcQ8PzwtDzrEoEBPbMDVkel43LA6lqCOGpQDaTtSPW1RH8VdNiujETxT3u6Dtu6FTPQ3c8P/I9h3rxo7tUEgMssnudNEeOdQw8T1NyfVvd14YJy+w5DNBp71AIyygs8a5S5L0p8fJSCwSXWcNgAzzHR6puBVAGUDAdjfuwOuEx1oBwkWU1XTiEFHjTD/zA960qIY3k22kHYWCJF1eYXIKkZsip7tQKosCe7V/J9bQZ/wkNLwzs6rcUzfODwA9cGsRXKh+elnrfs7uZ7WUJc/GPjjGfFuSw26X2LHcG56HR6XSWOh1wRo3XcqdisBzXKSgy3iHLU5fklRogLIMSzwFQOUqUhy4reoh0YQKtFT5zhH1MlAKm0OA79PwExH0HNalDMQPg4sUq/eO6tq7SAKEqc515J7sqe7y10BUWem1d7iMbGLm975JORw+areUulxGkKqNcyk2j6li6nDdSF5+7qCpDUG4ul3vNM9hEcXHgCypzBbKyaQvzZdFgGK/oDkCUdXHgsMM5FIkFwDMsQTDHpZqAUKg3gEsYkILya43gXZV7Q4uYDpLNIpeFbi30ZrHcI9rpdAxmmve1Tqfj7DXa5Y4rE0jlCYoV08V/lm7N5V+LktXC7QzDCSe+K0LiRT97SeW1tsE4+bdiOr9MMyTk0JdTHatwj4xzkBicoHDPE6lSMPD5LCE1Lp1Kyxjuos3SlcqnQtEX2S64Hno9Xe4e87a7KYo73U7H2Gu6sExRFq4LCvX2Aq6X8OG6dc1pI6jQmuCPRMLYICrFgSLQCyVA31qXpbRCKLLloDTy3rZx/DiQi/tB4QJLsobIN8XLBdfUSJ8sjqEIq4OqNFW7NMTlbnc6Fie3R0bn30YNF5bBMnG0tKhBSUn06Yzz7jxjOL5/8dfcJawOj6MQJUi+Yx59J9BGfKFIhAN5/iOx2QFfxRbFJ01oQLK7CeHZ5eU9uXgSqV/kvDvpvkJL3OmSna4KrbdR9Ea53G3iCbXW7KVRo13uakkkOV+NFosYNIvqnvnTuXQWMrSR1xKUFiOProNYmPKwl2VRR8jlCRAINT2laZDSOS+HhZthW3OzOZdbJzgMRKDpjZYxdoomB/YjUlEKqytl5FIo+ZGeIn5wG0Vviss97EvlU3uNdrmXk+QKc1wZy2nlCXVd0tiIoCwj89uBA05u4iCtzVJRudZxrMxaEy4uIOP8cAQqQDdtx3Hb9sybY1s6beunllrodRaWKbYmu9zH8t7lCuhKUXfaGHsdJa2JXGKxrhUQQWoLJDwqgNZhR3GQyFsCYOMLDHKitGCfN+4iguVH/cFoNBqM+qNRP36Inw7in2xF9iBtIK6M/wwKuxL2km+F18fv8D1Lb0kD8wOTdyK/EjbGQ6FNsoMS9zzNL+7Xl3dSOE38Nv+LTzFeF/kWFctVtVjeBGGZkZ/M2bzoEAjLFJlusmp7CdArDe9u/bztGS2IyDF1RbqviPE57V0REz6c9jiUvcIXCinHcAKimMkmis009ipqAUdLBFHJyqQxtO+nL7MN09Xx8z7aKF+ZoVo6U+hn7/TTPyO8t76wDPKx+Jgc+LKRRmjAfPsB32++r3ws/qQ/QoeJOmcHNxjlO8jOlY8zSE8o69cfFfacP5XPqo+uWX5aI3Sg7CHUYd7kZahmssK2rct9RmGZWFYmbTTluze/fKpQcagsNZ02UzMOZbIRXDcVsKpmjj2Soc6j7wQR6lrHeiGhSlwPquA4yqcWtUtBiDLPRSagpiUHQTVDp+ylHv8k73k6aIkWe/II2hIh8TOqUW6e9zJIG3A0TlDpHkfcfrZJP0foQQE3cxQcLQw40PZzVOfgNeJ2McfU5MVC1qsvQGof7X3EbXj0bLSwIM8RBmgu0Uf2v4im/eR4xblIfsLZREK+FCN+poJnIR2xj6ceAzwJyYda4NjOzzXp17PVNaSf1R1Zdz7Y2NjY+MDRW5b7TC53Hzq4WY13uReKqakqn0s2ehea2XDWGUdowuU3iDIbSAR6RWy4TZ0WGdfcvw5C5VnA2uQgC+3OU04/eL4ZY7cbhIFnUI9JkQa+Fx+g41OaKrFrgU0JoYFNIDAJoa6nZ3uwsWnLrdnR6OiHzz333KcLOeIORgjMsc3bF/v1R6ONt5977u07okk8wFAm4jo3cEf3Pn3uuec+PIp2l08z8Iq+4CNI2h026IZgi0uHVWzJyoVP337uuQ/v4kMShxsVjycF+2/YoJ8KNvlAddLiQcUTgewi4QGQN8FWiXE8q8UMPnz1+Rd/8fyrHwZmy3KfweU+Ip0O2J7ne77n6J1Ox3vceJY7lUutURnfqdLlLqWv10waTrGeYFudE655IpugfoLSqkCdT32oa7LIcmZQyI7O7HEuKC6WTuVgryro/Wwl+IwoisuO+6GlWVGwZJpmGJpmDPI0shmExwemR5HB1jik27MIOFEu0G70ipAVr7nx/Cu/eOUXr7x6VPV+CdaloPX2K3HXt8u2G4jrBhz9jr7KOv7i1W9H0w+ZrvmQdUSDDkbIQz7iTgKM2Qk23331F3HXG4W5CX/VLx4Ae/JpfKK/+PVRodtAcYiF+cSv466vfFqccaSXx5ifO7TW+90rafvdN1rrcq/ucnd/2TH38tC5RzraXtPLp4oeJtlUp6U6r2ViDfWLq4uZuDx2C3JqEYESwXE1E44ovcqHBuJV1VhAgHhZxgSVvAMQCXTzRS8EO3J85mmPbEKI7evMCvfTQ3MCDQO6T2NAh55FrNDOD98rAc5vf342aT//ZjRlS3Fs4fdpz7O/V5nDozEr+aDfjkVyxZ4+zQZ990HpsaknJkffzQa9MW7eMFJg9o1xgw7GXasH2aBnb5Rtco125+QWTcP8Iz179vfhUutyr+xytzo0QmnoVof2G10+VSZ0FsunlnHZJ4XQu3W01AnWdSfTKY2KvnlFlbC2qSLqgATIkR6+UB0HUA2Rubqk1HOM0CTEjMwsMN71A0i97A5BgO6FLtCeQ7qRZYZOfg5avwRO3rtw4Y033njjwhsXfv8vo0rt2wsX3rhwgXW/8G21nv/y7oU3WLcLb1x4b2GWQdkBX7hRrefo9/GJskN+70G1nkffi4+V/VQd9EZysG+MuUh9a15u0Na3F1C78QK+d2tPkylXW5f7npma5GlzOxA2vHyqoBYnayd1edRcirrTSoqL85ymhuusIcUSEB3GKJzOU84FJzsIFaZL4+iHF89BEoURBPFxngGqZCuS3ecmrV+PdOq7kAJ6gvGZhW5FFAO67UQWs9Bp5EZ8a+KUoMn9K3l771E1rPqEd/2kIirznle+nX3QahOQR7MPii7SlYpTl2kukjMvjDgPHe2VK594yAZzoygKDKC6rQEyVrW2fKrgct8zOzoDdM9LKqd6v8wBvbkudyooL4lKiSLcF/Xi6k91J0U99yy2K+qTgZqkrVBuLwjHjSmQfqjsc6yMzzMEuZw4CqtzrpxU5W4urqEdaEtOpGFAhxTQqecQAdDB983Y5R75vp9z3P0SMPnuI94eVgMr1POjigCJev5QESA/znt+Uu14H8486BNcJDxoKaB7dD6S0LWf4Y/0o09+puVH5YS2ZfuhDtY1PXbOxy5kMxKNVUr3z0Kvp8udWeijx4/3uiTILPSo+S53sdagUmRmTGGDmmI4KWe6C6FdMTYulbnA9HYQSFtjYr5wONFcikbwUrUZrOOPRCAbFiZGz/x0gtD3gshOAV23NUJo6nI3A10EdKIFHiPFRb5mRi5MAvTPeLtfDea+Ql0rAjrq+V01M/tr3vPrh09pUOEiVQR0dJG+Lgf0OaHEffD1xx9/9nHy+/FnH3/AneyhuwTU9EzTjzxHo5bruSbVvMhzdN3RKZiuBrrjuTbdrxh6XbXcYx/7Hv1lIMXQG56DrtJ7pSofele9ntbOJCfi81xOBiu6Cx5hqdoFgKgkAyWl1trAOeazozLdIJfixhrmgIvcgciQe/bZA2bkWJYV+XQpYrjthAYh3dRC990435wF0lNAJ1bUYy53i4Cbs9zdEjD565e8VbTQv+I9v6oI6GjQH2YftFqI4OHsg+KLVHFQdLzfl23kzonLXXv/qy8/++zLz9I/X73PWXF+aMUK9FYM6Fbk20FgJIBuRCaAE+la6NtOZB9ul/tjv9MxensjYBb63sgjiQe+ucIyE+xxSdt9XBG2GprpRGTCSbVTQchLAzlvChQ8dszOVgjNHcKYOVGUUQExKU0KePAwuyDlgygO85CEzhRkGI47kWM5kUdjCz3B+iR1LfAc27GNGNCpm7LciRb6WjonKIW5L7744ov4T0WAHP31y7gjWyoC5MOvklFZ14czDcp6fz+qPBf44sv4cKsO+jDt+MWXX1Scujz6nh9v6UWy50X01fuaQflnCaJ/9rXHb9imH0UeM02tazpQy6VUiyyIXe4M0KkdGUZkU7BNuh+Kd/Vlue9pnQ41zF8yQA8N0un4TRaWUT5QBagrhePGacDW0QtPiMh1zxEa87gkdhwQUcgUxNqfhwvBF2EqlAeprBqaXHFWofQplE+lxCN4Ohx3N/ana55JqO35nr3ExnYYhR28JExOHc9zPc9k27AtLQKewXDcTYPuEJW5k7/4c9K+qIjKo4dfpT3/XHUqMPpr1vPPf63Y81E+6BcVUXl0PzvTP3//qCos78OgpRepZ8yLrox9/2PU7tuIFKeZtsdYcXEMnbIKPwzQQxNiQAe7p2t+6Dnm/pSCrbGW+4jGCnEM0D2ClOKabKAXqqlimXc6Nt28O3XOWnc+Pe/FbDXA0XOE5YjxTsTyauo8c6hvZRY4fvLUqdOn184p2uqiavtTb67f2hoOj9y6ePrEoiJsvqLa1bm106dWVxZFFF/N3jwGKLkACDmVvQEK78jyybWLt44Mt4e31tdWl0sv+GJ8YmvKEzs5k/NBqnlvhJa8VYmbxi6NSv930qoavKPR/bTnn+5X7jr7oA8/T7tWH/S7tOfnj2Ye9IeZL1L5oG5WfPXZ36H7mJTf04Q7NQU7smlsodtR4LmRRbmF7kTMcPciZqXvUwy9rlruI1untKsFjx/7mt50LXeqrMkiScAVBGVo/YulKmPqRCraolJDEXnvgDEeYL6o2DO2xRPnjuywtruzuzscDneHu+zZTvr75qKMkasXhztDtmXSdobrp44vSvOY1d3ydmvtxGIePYe1nXT1shBLB1hP3xgiskL8sHxi7dZwd3c3Gz7eYxHUYfnkm0fYKbBzi7fcyV7Ff0/vS3Tdmfajp2W0uEffff6nf/7T59WhajR6+PWf/vTPf/r64Qxdf4gH/eujGQb9Ph70/syDfjfDoI++j7ven6Hr/a//9M9/+tP3pRcpKLCJnqFCW+/d11577exrr7322rvfmIi+7jFr3ezZ1AoNoF5IQYtsMEOLWegWUKena8YSUN875C73GL37Ue/m3uPHe/1Rw8unFguydMfVUx3zuiHlU5FwnMTJBjmULjnVC0ltdcX04zHq7ezuDIWWw68E6CvnbiEwTzF198ibJ4Wi8RKgo92yHe8Mzy3nn8DaLgJ0rL6bAfoOCIq7x06vH8n2uB0v6aTimHRiKxeHbA/Sme3k7fRTvtCaX4pW9+8/nAGpWM+Hs3d9JoM+vH//0Wxdn2zQ8jmPryuqSj+zxfrgw1dj5dcPP7CEDPVrDktbM0CPPFv3Itt0Iwt037cNGvi2E0SGEbqmFTht+VR1PfSmGuiZ+4ZCQchd9bUuVEantZSUkb3unOMOuCyIGECXLHRsiY/LWKsXsq/cYpZ5YsIOt7e3t4c5SO7sFAB98fQw3nR7uM2WFFC3GWafW8Q+59UCmm9v55C+s7Ozvph9FAjQUZydEJIDuiAdu3JrJ3EPbKfHkM0Udo6cEE/sSOxjyEffRucVeyOeNqATcEdtm7fma3NVB53q/oONt9/eeBDo4m2YCcv4BgVq+ZFpBFHksGLuZhBH0iPfiXRqhVHk7Y/STJ1d7nv9KDHM90bYQm9urlqXjnG7j+Wz04le9lrVRydCDVUkbILETiS2dlEpTqzDVjsJ9+X1ncwjvZ38bKeoPkztWwzoxy8mAJ1tlm68HVv06ysIeFcFOM+3TwA49rtnNrpgoWNyA7LQ+YTiVGqdS0eQIPopRGNYObKzm8YQ0HEmx5r43Z86oBOwgn4LoXPUBoElKmHPA8lJt12XeZUlU4wuUWSNUWyd0aX0HPZNHLbGLvc9WyPx08DUlwxnr8kudyq5zqmM3BQU1dZoI2uhQ4ERJ1ZoAXURbxw8J0QkSQGpnesd3kzhfDtFyK14ySBdstCX13cwQG5ubW3mgLq7u3NrhV+jVYTnCvDd3d05d0yw0IfDZRAqt5D1IQd0yB0EfI9bm9v5ASR7HZ7OP4vlizvK0RNEHz4bQCeEGo4X9QctlD57LO9HvmNqMFf2uXinlrhPtBA6peI7+1ucpa4ud6uTpKoFSV10o9ksd6F6KpSpzIBK8LW2wjKljneCWFhZfRBEa0eBW5Dd6wLrucaJ5yeScHKMelsMyje3NhlQckTf4YC+uJ552xmUbybLJnJm3zomudyH+VRha3tzc2sLQ/rwZDKjWsu2XJbSDC6mgfwd7gxZHQ6zGUUy+OZmOv+I97qzcyr7CE7uJMHzDM4Z+G/j8Z+Byz2fAHIjiwLt5n+y1+hlvF2XxpqelKLHbvZHfFPdurRtqiYpZc6lQ1Uhyk3LIqJt+dTHj3ukA8bNx4/3jE6H6rTTcR83XlhGwGQKMiekbPtGmOlcH04EdS5+ItjfICatCS52QAnoICYu1UXIHdZ38uj5rfXrFy9eStrFSxeTtn5x/XQG6HA6c2BvbW+uXzp1YuX48ZXVc9c3t7Y3GUruDodv5szB1Z0EprfX2W6y3V5cX0cu+uTKrqV4vr2MJfwIgYupi2CHewhuZYH+re3N62snTxw/vnLi9KVbm1uZl+DWSnZibKc78ca31i9eUp3Y6hxo41b7kshfqymnkrjQQKFE0SFsChrQfCt1Fy10yZLf91lJfV3uTod4zM3eg47W2wu1vB56Y/PWKC+lVnSxy1ivtM+79UT4ktuYVJAb4bR8H0VKM1IdsboKuDPiWIrRb544fuzY4uIixAtq+ZU4fms32XRzc3NtZTGzp5dP3U5MbwbpJ/MYeha+PpnshSYPyysv39rKbOSTmcs9gellNLVijxczV34u5XNuNza5mRPh+onlTKXm2IlLm1uZjb6WHO3x3D2wubaSnFh2ZvnZ1cWfAuUSu6qpJw4BCVUHsHaSMKmtTetOAdVqiZgc8rronidXkZ47GC9Y6BRKLPTW5c613LWYCecltrnboTeb7HLvKr1MpbS4klw1Wk+zXLkO6b3lFddKb6FQkqcGpLzbPLfVYYrn25cW5bMsnP7p3Nm9uQLYg7yyuckQdbg93F3PRGZW02j71glAqnps5y9vZl7vdQ7oDKaXUY0W9vRibMwjQD++s5sdQaxCw6lya5nrf3e4nBxrPlE5tyh9fvXW8+NzTwA54QKU/n0UWMIiu1JxnPpb3F0lslNRWaNQvILOHaSX6oeUWujTzwua73Lfs9KoudXpsKosAcmqrTW9LktRzl0RmFGa7rTuDniCirIASjgHXJMFVJ7R3K5Rm05103+FtZ3EK721tTJZf+ZWBui3TkonuZLg6fZweGQlt9BTQD2RxyRSbFmMDfrYRF8mMaDHG25uLQv6fQQupX70nYyteG6YeQguLUtc/Uub2zGi7+4mJvp6NlHZXCFNa0KyhVz1V+RrikJJwjefYJcVIfX0wdOSNbQI7tIrlRXfgDKa+2ih17Z8qhkDOu102UNIsnrozYdzqprKFuav1fVk6qQcJxRXAcmJCaLODMpa529i+lztbPTFcynuba4vT9z4ZLrp5uYalSHm5SyKPTwFWQw9Bd8TOTEhyyU4tZluvbOSWOjJlGJzmeDy9IRcyvzoKWQtJzOKza3N9YIs3EpCuWMmOiPmwZEs2r8JTUFx0RUEALimr/BVLfNEoM1FPG9ooFxpo8vkoLmD9LnAidq63PfMxEIfpSruPun2ms1yx4LtRZDuqozzIro3KFcNRKOFCALuIGWnCSZ4wSYSVb6l7nMJ6G8mgL61ef3YxI0vppTxzc3jhZM5fj0D6YtpzD210De3TuACqpB66LcT8I157mtsv4wEvwyCyg9cYvtkk4R0vnXySGrKb54q+kbOpST64ZD5+BdTQN/cXIf6oreK1yaJGuUUwtz2xgVsC2Y6EDI2EkVqCt3d8fclOkbcGooSW3Pocn/aIFFnl3scQ3c6HS9OSuf10JtqoKcP3QJY02Jeujqo3pS0dKwWJyjCld5jUZZbBlNQsM+hXhY6M443b0+00BfThLXNzevFE4yD2Fss4n1rOc1DH+4m5vwJNIFK4OR4FvAersYWeorSm8vIb8L2cSmbJKTX/tRuMvnYvH28SG5IvP4M/tfYqiN5uH+x1mCuIMOrI+WlGwBiy3Hbnsfiawnj3aInUKAJUTWSiwQ5ucQFnXcL/WlqyteW5e52iD3ai2iHjB7v9V3oGE1nuYvpjMriLIVAOeUTYahSt2Xene2AIuYg11YrqZ0lyNCALBRb8HbOM7wz6zgB6c2Tk45zZSfzuK8qas2t5iC9kgDMagq+qcs9pyyQBNCTjRGgbyaAjsqlM0BPZgmQzj6yA7ikmH3A9WynF9lg69mJ3T5ZV587jM91y/1FRali0bEkJGOgKDqZYK3XlutOQVluiiqj7KUYP+8WeutyV7Pc+6TTgS7pdMy9x/1/6/B66NBgWpyq5koxSa2QGKEA8G4NTXJSeMW5cEBkYwdKXZ/KlDUgc+9oR+3UdoamstWrIMRnmyq2hJXbiYW8PVxNkGY146+toOTy5HKfvL2Z2t4nSQromwmgIxFeQhJA304AHYAcW8+M7iSGL30wa5k9HwfY14bDrXg+sXn9OGlOU5btVXqWgBBRu5CnECD5BVR5UMb1WpnttMx7qOS+yZprJZH3+Y6hty73Ei13L1GI64aPH/ehQ+xml09VKcYo4VylH0flTgKe0/pZ6JzyDrJMDKgy0uToJOBUNlLDlKjjRzI0vX371PHl5WN5Q/nnSTudIfRtFfVv+XaGp+cSo3E1M/1PEBku3tpM09yGKymgxwewuUwBFmERsiXbbjvxES/fSvF882UV1J3aTPH/FkPw45mDYPP29VX5xJ41Kh8yPbaleGG/Gk1+k7XpKy17Cy1LitfpL3vIfpbih6V4k+yphp+jDZfQ2/EjLVjmQNulAeVTA7NLwAgYiluW32gtd2XhNZkjUuCKlMTRGxJB58VTBescyNjoJRaMLTGYahFEX09C6Ju3b9++/cdLb/G29tbLp04g9hvLGUtNXpUvePF6CqfDi8kMaDUD1BXxmhM4fvt2ir1bsZr7Woa8ay+L7XpmyScDLm9nXvRVxZQCTmYHEIvFwXrmeSic2Msvr544/sw+I2rarue37dk3z02l3Oudsda63AvlU/dGo70Ex/eaXj41xWjLmaJZ6qh6zbzspfY5wTm4eRAdJ6Opueog0IxBCeEz6Xo+k3YixcgE+Hi7nbQ3cwUZJsSaYP8lJbfgegq+u7dSUlwqKXf7RFbmJl2OvXV7M/HPb78JCNBvC0dwmx1Btl1yJbnRfVIF6CtpZH4n5tWTk+m2yhPbvH7u2Tjiqc0qswxGo/5okP8mf9HTfnELvKVio+xv9kfumPwW+g/4uOKG6AGNwnfCB1QdljCaNGC/ZGt8kqi3MHRxH/wsCtdBcVrpfvl16kcOFalFhzj3vCku99J66I2tywIQ2lM0VytKwzaj8BrJXe4EAzzmvWEFd1nQAzGLikSlurVzWxxOZeDbvL21+XKaz7Z4MSOjXyJlgB5nmW0lF2o1i7ifXMbt+Im3bicW+vb29kp8IRNAvy0j+u1ku62t7YTlDiu5hX4CSqL4SemVWH722EW27W35xLLdbm6eehr0dymP0bwWo0mCQ6MMkjCe560f/2Rgmj1PC4VlG6YYNUr3wpd0s37ykHUepC9wCdds+2zTQTZAPx+nj5/kG+IjSLdHxz/ID6OPRumLh8+PMV3TH+FDSTfMLpB4vPzKDXCf/ki4BGiP+MTyZTCKTDpnJjrVDNM0tGcbRK+zy70E0Bsr5E6BBuYUzdEK+F3gitbY147Lpgo4rubDgSCFzbPOYaxA3Pwj/PLFOGtNgvMUzxnwvZmIuCxezOD0kpKWdSkOom+lSWYJKS6ZKVy6fil3eWd7jqukXUw+hTXuG0eHwEz0zEJPrvRKxsq7fUI1eVq5nUXmEz35lfXtsolKPP7W2rEnw2rdsoxJn69l4R5OnwNKjjDJi3sIgAYcFDlY4YmA8GxhIUfrfBcD1HeQv9vHu2Y7vbeAXw6E+QAH+r4wYLLjbFBpapCN3ed75SZ9Ovi9BQ7S6P10oAH/i1A32eHCvfz0MPTj+coInSlyYuCJDN5tvK0zX85Y3flg49Orn/7M0VuX+4wu9xILvcE6cYFpsllg8qfs0dHL+aPdeoE6UWtoCFgOUOC0A5L/5ix4KVWtJPkcamKuw/FbuWNaAr4E0LcTMfQE0BlEv1XM0YOckp4AOjBSPA5i3y4i6hbLUE9c7luK7XLgzUhx5MQOI65vb94WLHTggH47peUliWr4xP5YdOVvbW2deqJPyA2jKPQm7MJzBDyXSnJnRuvdy2deOnP1HodzwdrN7Orcih0gu3fj/Etnzm+MRGN4gBE539lAnCYcZYNevovNatG8HhS6ZK/ZoGc2FvAm+QiCkS7skr1euHrmzJnzd+VTLPQYiOfPNr5znl2kBXE07qoY8dlHX7L40bRDniDFO3fmyT43wg+ff/7FF59//sNIb13urct9uiUwTSuIoigK44U/yV6HVmyhl3DiGuB0F6pWEBDksIlQfE1I+0XoXqS31zTh+dja7YLDGxmy20lMOnW5l8XQyfXMPk5lYFa3hzlOq3a8tX1uEUAgxRW2Y8DLNOVSxM4t9JMq8RVmoW9tckAnsHwuPTH1fGJ7+CRxdCuyKbWj2JChNB6R8seUzA4Y0M3eSAl2Cxsvxe3MnYWReovCywypj55Pup6/J21XBGkEfXHvO2eSQTfkdwcC2inavcvyoMo2KCBzPuhLV0cjwdEwEGz9vmI/C1ezi6TaajDuKAajwghSB2uO7PPe715J2+96MqJrRutyH+Ny9w6fyz37KjBAf/zjuGYzQO8WarDR2uvJKNlxuHgIlDrNsSKHbJrXWTEcjq++dV2G08zjvcW4axkpLkbe62pSXOweZyKuadr6thqnc5f7pUwYTnC53y4Cf8ZyPz7MaHmrqssdl3xjEffE5R5T71dOJSemcD0w7H/zCT41JzQYx80ipmt7vqsRYrq+51AClut7FhDqeJ7tI0D3S8Bn48yZl+IfDlZTtgeXs56XK/YcbaQ9X6o86Ohq1vP80Yo9777+UnKusXlfbdDsTGPzfp/bNW1e8tZo8Puzeft9oInvm95TtdDr5nK33x/TfgNNt9AnAbrhapWhuzvXUXMoCGmIJVlyortof0uGOC+4VqbhXjtAB1g8tnx8ZeVE2k6uvnyJW+ipJfvmTuZDVzEFFq9nBdduJVcpj6GLvvQc0C8dAw7oyX5ZqtxbWc7aW2svZ9ltw+RzWk5mFFuxVJ2Cr5+lrSUehQzT2YmdQCd2PZuobG1v33qC7DUr8i32D0LsyLfs0CV64Gpm6BA9tDUrNIkTuaYXcUDXS9Bk4fUzWbu8UBWV81YRlu9d5l1nH/RqReDkg75+tOpUYOZBp2h9q7QC21Ne7G8voHbDlgLbHjxFC712LvcXfjOmuc1VipveQhed7Q1KRcelpgiiuWOfe56WDri0BQqtC4iPZgFQI0qcTMnONHYAjr+V4fn28BR7dy0TltlUkcmWc4f3RW6hx6T4zJl/G8H57dunczznLPdlEDVoMp5dlod+JHP6v6xKWzuVMuiSPPSi1nnmhlm5lJwY05RdfYKr5QRhFNiU2JFJwImIFWm063jU9jW65HvghUAg4IDulAHk67xVhLnLrM+Z+LeiiX4nGY/1fX2joq3MD/fyg2oOBXSmFQfFF2lh/xHdpfMhFEe9T66g9glGIc1eMj1qmPkqTdPpQZLiaudynwToDZaUmQ7QdSjWammktgxXfcsz0RWoLBRPVYi+Kjz1NbbcYTnG07jc2Xou/ZpIxSjOeyXf+HTiwFgdZkH0PIyemOq3b19669Rx9CGspYI1TMudoM8jVpSLJxTJcMfW0+Iwm2+pMs7WsiD+rePjxVOPX9rMDvb0k3w+mmkzC9xmvnerB1bkMcWYJTf0XC/0qeeLpDh/MkC+XtHOfof3fGcmQJ8BWxcuI0C/+5QGFS7SAfjcPVSH8lku2s8+wu2Tn3GfO3UcZqEbnpWusPyQpdwdoIVeN5f7WED/DTS5fmoO6KN+r9/fE6B8b28vt9BLBI8no/tc+955SWikbS2IXgPSgJXU4ZBNrtJzh5rH08Wg9NbW1tZwe3iEnfnKMCtgplJeXc087oySBin+xzi9elxsy8vHFoUwyFq25TIRXSiXMt58mgl/jh0BM/qvLxevMvACrsuTTywt4Prm7LnotAuEaEEAMaDbUdfqGYZh6OD6Jnuk/pSAvvEOb1UBHbWKgI56VgV03rMqoM886Ogq6noggD4ft2btg68//vjjzz7O/nyg5W9ZrhbH0E3PTOnwlhVaLcu9gsu9qSY6ttD7US+KJEAfIUAXss67Y4q01E3tFZHcAWu4YlYcCAUuBFk4uUSLnEfVBEyH21spoB45BnH51NREv12EwcWXM/DdXk5Z7jsp/J+QMwXlhoqzAC5HiwE9/oBO5+VhVhSq9DFID4fbuxOpbscSmdrhcOfi7KnoXqADaIEPdmQBdSJiRjrLO2cud0aWAy+isHSNA7o7BaA/mBnmrs4O6HdmH7Siy332QfFFOjiX+zO/NWvvf/XZl5999tmX7O+Xn331AbfQPZOCzqxzx85MTSMwW5Z7BZc7PQQs934URb0yQNdF5Bay0GldC66pie4ZzQ0rxJVKtEOe55bLyhAiqMw0w0i/nlVEPRKD9MVhFkU/UYTT1D7eHq4fSwF9Ny1gemJS+a61DKeXRQOdpbYn42e0tyPZlmuF3AJWbC0vsj5JwP5STIljsYTZAd0IfcfxQpOR4hwndIjm+7bNHgPXckKTWJHn+CEHdKMU5nJnckWAHG3kXatavA+44/ydmQet6jdHjvOqZvZddJH2H88H9pyUTqXe15+h9rXHA+a+nh6i6Sylcw8jsA4yht4sl7tLDwXLnVnoN8stdFqG57W1zQWBOL5GqHQuxb5BMNhx9Bxk+xzQlvXH9PUUIXeHsRM7LYi+taWIYZ+KGXFs47U0CSAB9OE2A3SCfCLFpMG1zJe/LOkEXEqd+MP00i6v72aIflwVw9+Oy7fuLk+20JO5xxNZ6KDZnufoQOzQdjybEqI5rmtRQnTHc00gYHqOiZTiIColfJ1Jf2ZIW0t7Vk9bywetisqjfNCqHL7RnXzQyqh8deZBp2g9PbmndZ/5jdm+/zFq97mZbHiZzJfpak/HQq+py/1Xmu5yHH9Bo27TXe5UsNBvllvomipm3gByHHb7EqwFS3jJaJmvDkSolS453xWVqOsP6MdToZjh7pEYwOFWFkS/JSu7HE8zxoa7R06mV2d1d5fh+fbWCV4Dh8jCu/HftV0R0POP51ISE98dZhdzje0zPoLrUg3UxXNZBH334sQLv5Ie7M7Om/ug526H+pSJbv2SqDTLsWZLddvzzutJXvcMydlMsm22QRfOJ4NWnn+waUSSTX65stv8weX4aM+c2dh/PB85YhnpZ+lzjxDN/ZOIC7prXkZvtx2KLPQDjKHX1OVudgADeqeTrHYXG+xypxzQe1Evj6E/3tt7LAC6rCFDBRu9C/V0uyvwXGFTQ8kzXAsdSEmd1Sa05RRPh7u762li2DBzuq8LiA4r12MfNoPT9WPprGh1J/G5b58A7vxQet/X0g23lxHSs4eL6fg7mSvk+JHc6792TDiC05m/ndVYn3Ri19OJys7O2j58ZnYwJaDTsij6wsblM2fOX74zAxQdvXr+zJnzV2exWjcuv37m/PlZ8PFeMugs5LQ7l8+fOXN5lkEXNs7PepGm47gfvFrLVJbxN+++lrZ3v0F4zUju8VPds7LDPGgLvZ4ud0MAdPdfO0azXe4yKS7ipLhRrzeSLXSqqMtSb0Od4HprRHC/E4nCnrPghWx0woPlvLYLFEnv9RabOXExztTe3t3d3U2j0svrMZ7GkfGXubMaVq/H2eKxMb+apemvso5s8xOQS+UDUYn8MLs73vEySiBkb15MphO7OznJIZtSbG9vXuKiMHA8jrbHSXMTKXGLJ9e3MzwfntyHz4hq0+6EeuUYefTejGi0cO/erCyxe/eOzj7ovZkHnfV4n2DQ8XiuibWln+1iZdqvv+uZ+LatuQ6j4htuhkyW50eBZ7csd8nlLlroLuloDReWES30mz3uch9FN0dFUhxIX/c609xJQVuGIOY1wXR3yVoHkfIuvQ21FZMhq6fXTsft5XR5+dTa2qXrtzbjgHQMqEcWM+ROre6trc3t9VPHl48dO7Z8fDXRiEs2vpiL7qSAPowtdFnMR/CXrKUbDpd5OiFJxWbZ8AzQ03WL68PhMBOMO3eCHcCx5ZW1rG7qcLhzJDPQF1fT84pPLf05d+l6yt1jeL5za/kpX2y7P2rbfLW+i+9uc2BvGUHvw+fevtoLDOFwqOF6tu14eW0402XNblnuksvd6MALrpO1F6ADeR56Y/FcsNBvIgs9GhVj6I1UlJEdwDxuLljocoEWEOlxipS12pnlF3d2djJXeqyrupkJxMUu9N2d3d1zuXW7xiLa8aZxkZT1S9fXk4zu1Dl+63jOIFjd2U0g/ST3f6jJ7msZ9C8LXDkCF3eTtsN5CSu3hsM8H37r1vr1i+ubW4mcXDL7OJ19Rsvr8ewjm4DEJ7YVb5vMPXZ2dnbOPXW/h+FGLYbOUeu5JobxuShwTU3bcWyzgPSaZcerqVAKGw7OQq+ny93sdLDd1kkN9ua63KW0NcFCl13uVBSLoc2DdO4jRxguFFIVi51juRkQVeHqGU6/uLOzyyB9O4H0RLB1O4doZqBz5/biuRjQE0jf2tqOHd3bWfR698hJfmU4oGPte0RgyHMM1lLcHi7nzvZkWR/mgJ73PTkcise6vcmPYHf3zZwsxwA9nShsx4fLjjgB/u0EzneOHHv6lxs00w2iQV6uu589SSt3p2tHaIuR8AJtn//pF/4O8pri/DnaTb43/jd9V/7hByEfEj4OfMyoDLn0bn8kbILPR6jILr4t7ic/rnwQ8eSFQ5E3GuSlaAejQb93zbU0ijBxbiKipZYYFSYfB3nY9XW5Gx2pEafxWu5dTIpDFvrNSBlDl79DDUJ07HXnRdFVSeiodiq23GvPhLu4myJ6Bn3DbQTR7K3TyE+RIHoOqhjPd3ePrKIpzmoK07snEcWdECGEnlz0DNB3lyUZvwSSd3d38Fxp5dYwR+ltfgjDbRYTf5MfKgf0dOut9NyGqXm+PxH0JwL3J+oiMD4E8gGflfICRMJ3ONfMJzJPkUwsazQ2jjUvTVURsjtG6nJe7PNJ8IzvxgcLUHVmuXc0oeluw/PQKY6hj7fQC3S4RunJ4KdE8rtPuv8CB/96Y3pioe8Mh5mVPkxc0ql5vrtzTuCTL66u7yA8H3LsH14U9GY4oEsMRFGuD4CIgM65DBzQxRS5bE6Rzz2yI7h1CpncKaCn8YTsTxrqj/H89GIdPh+oMgUAUOggZSjP6Z1ABCyvf6Pp/YgKupYoEy27iXWFPl3ut54fE/1ANj1EwjJGB5wSLfemOtwBojCMFCz3IilORYerv40uJ1Gh6mqKHDVQ3EglRTm5jHqtXO6xGb6zmxjpqfU9jNcyC/eUBHuwfOpIbqQPt3PsP3LqmDAZwhY6KmhXQBIiAzovYCsCes5fWFy5uDNMmfHDbPIx3B2+eRx/CMt5b35Sw8w6Z2tXF2uC4pKyESFCTAjNRnG5QEG/GISnQMZwFOsG8118RxIpu7Sga0kFP7V0Z6uf8EhbPnUyy735SnHxQ//xjz9mFvrNsWlrRdO8pq53tagJstAFHdcxt1pJRE7SiaudL/5i7H5OUX0nTuba3UnwfGd4a11RipRZ6Ue2MvCPkfXIugSPILvcecZanvCXrUWATrjxWAbocfeVc7eODFHbPnJr7bj40SSAnsxKUjs9OT02dTly5M3jdcsjRMZ2IdkCU0EK+ggEVywgBTGGWhvq3bE+dwGrlQJZTw8hazZXqDXL3T1k9dC7gAAdabkXhGUEooYCx7v1T0hHTl6x5rms/gq4ICpOPwdJOq5m7dSbqnbu3Lm106dOlqEeHD956tybF9fX19cvXjx36uTxorW7ku1qBevsQU6M4ynpq9mWxwDlBxKA09kbCnmf5ZVTp8+lB/Dm2upKIQHt2OlxJ7YMdYFwQtReIsBfPVA526FQBxBw+YGGed2FqpBdJbQX7fAu79AiekOEZcos9MUmx9D7j398XFSKK5V+pSWCcXUXl8HRXAGWQfBUFvXioFDwvK6ADoslDcbVco+v2LFjy8vLy8eOqTcFviM0QxJBJAGVRbwl4nQR4VjkQYDAYnwAy+pjHXNi9VT6KSgYYZwHRboFKPAfO93Rk/qb6lSWsETGuWiT0AIRjqJikg33pB8ClvsLxq+8Q2Whsy8vstCxlvvjYrU1Wi4WV2uVOCGKS7h5LtdOlaPpPKwOSsJSY/RfYfIGatoAD+pmVCzOxEYV7WSJH1GWj4vzgYLlhUZsmN7uVMa6UB0op7bj9AtQMOILVw6KVPe6gHoXW+FUDdRF9g+G8AIriB40zWwuuG6HwOV+KKut4Rg6J8XtjRiWK+uhF4JVtHJYa961ZYAoKq1JTGEBs6R1Ms4dDqiZAoyK4vkoYZBw0BdWjCtyc9ivbIGMCVJcqOSq4TTN+tvk4wx1FTeuaKALcD4/lLj50JSvrcvd+ZX1qxdSnvsL5gtNt9CTL27vx8zlLijFRZFCWEYmldD6et2JKq+WlOauQSmqAzcqC+7eFsiJNPHhZWkRIQ5Ef6/AUhBwScy1PrQQDhITDkXDkbcIiCISJBjzKOxBFLPaWqJ30ZagasFqwVCXkXz+uMuty31mYZlEwF3v5AH1psbQk0duofcQKW50s1fUcqclQgz19bpLZjlP+QHEBBb8miBoxyly1EBMJTqE2KOoVsdNwsz9AdyjjrOigcv15LCjCIK0Zrkq6AGY1iCrHSIWJ6YhiFdcQnJSUzinpZtREH/F1ZR73NulEeVTOaLrnRzRG2uhF13uN8stdEUACk2EmyAal93ZEFNIWX6lmN4LghHatjIQki8w9g+DIHGCMRzEajjNuixUq1XT4yV9qqfPdemnsEL5k/0pPOWLnv0VVuk6fqfwfGwr2VCjBdZcuzShfCoxTUjKoLsvaJ2O3vTyqYmF/riYtlYszkJV9FAoXVlTnntuN6rdxkpzHMRYuZA01CK8HOnFqdFIYobIInK5/S5LpDTnklLLC65FbXv27Vrg2Ro8FSHV+nHday4s45AOTVztWmaiN9ZAZ096jx8/VgjLKMunyjHz2tdoIWIElyCPcKHkGqrQjbLZchBSKckc8lAvFHPGcRxd1s4ngGumqvLTyDS87bo0zRUql6RVQ+RiJfEqvDrdMl9R2HiASq2kK/OiJf2sR1aJRS6ZMpDrrIyUFWN4YZPsHaFcCq/zku+gn9VLKR1LqMAiF57p8/3ke+4LR6kqFIOPUygLI46TvuHqcCCl0KnmhP+3F9jaLFhOtSVKnynk11pYhrqxnW7HLy1enKWpyq8UIHIcT2Gh3xzjcseSyWOM8+7ce9gVawio0s5ASdgWkRsHJlujnMhGuSBxgoqtEUSM41XoEQO7ZklpYNCpNrOjQVyDG8EjekjLgSUvExQbjTAu5StGOTblZb15GbFR/j7fzWDES65lSDxC/Qf5XtCD+LSPDymFWHRceI99aRcDYR/iWEJZNPkIBuLh5Zv08SB5NTl+ZPnlwNcrO5Y+Gqk/ihK5jX2+1WrOxofPvXrmuU8/cKoi79IL3gcbGx949tKz5M3VXVjG6XSMhOjeIS80PYaOi7MI1dZKy6fSIn53a2+ki4gOmBCs4BPnQAMCXAEpMOWgkYHfmWlyOLkPiBjoACJmUYlxCymI/owvqmkmoK1Ztq0RMK24mfEhGb4Opp661DV2rJZBIH6mWXrubff6Ehz1M6RZOLowkvB6hE3hHM2wjZ2suXdPAjj+LIe1AZ8koLcX7i1wKB1g6MwLnY6kPaQAPnpwrwi0GPNztEeInG6cnqkwm+nzOUh2KH1xBtCPB12QO6A9C/MdfLys3XswEmAfzXD6Hp0KIQ3TNA1NWKebcWP3Sd00kd+e+p+++otXfvHKK6/8+tOKpqHmb/z6+eeff/65T33t2VrotWW5xz522iFuCuhOo5Xi4m+CutraXr+/V+JyLwjFdeuYgS6JlBHA1HaCA+llgXAgkvQMMiRBLRh3KMFdZrSJmf7CJeaFacV6d3N20WgYWTGuhyz+alE/CcT68WF6HqWBHW+nRx4lhEYOgZ7Fuvladk1cDDS43fn1iy+++PbdEcYyjut9Dt5FS/rD51988flPFxCOZQ99GdtH4hZ3nnvxxRef+xaDpwjgyCLGgDkaLXz6/IsvvvjhA3GDgbhRfuTICdEfHX37xRdffPXOguBEkHqLyJy3jVfZRXowko122UuB3ksP5QEb9PkN6QJx69+b6taZfOA+Mg6pm3wHLOpEUS+inDbv3zibtp///Fu7kqs+/PCVtH0YyTY61Z6mhV5bljtzuf/mhU7HFKTdm0xyx4COqq09Lkq/0mZIxJHylbhwBaLBQUEMDogowwVSlu+0yUaHIK9qfBAcsNoMr+CNHO8wh+FyMwpcIIQGnkENP9A13QgCXY/R2ogsQgMbEkCPbEJozyFdttYLjWwPVl9GodQ6T2/hr36K8FCBVwoA+/bXSddfH8W9BtIOBqpdfvrzZNAPi9sMxEmB7Ht/8Lt00G+lQfujwulJp3Hj1aTr7x4Ujk7adCC9dTQd9NUbyo7jLld2kdJB+8VxpoJcP7Qs2wn9JW4fuz2beWk06nhuGHEL3frmtbz9+7s9vYJlzKcCZ8/e8CUz3PSeqoVe2/KpMYLTTsd0XDNjxzXU5Z4+Ygv9ZqmWuz6Oxk5r73xH2bmgkmoXK17IT0BS+Ciow8LhssuhLCkdXzOe34/T1oQsaqn6zbxMjsAJrJAm2E2I6eqEUD/ITO+AYkAPjdhCp5FF3CDHc3KtBHBuvHb27GvsBv7ajVG19uDd+Mb/2tnX3l2o2PXGaylqVB509G4y5tmzrx2t2PPbdNDXzv6+Ys+F3+cXadZBz559t2yTSJ8Gan321+6ZFEzXcy3KLHQ9M501L+Ibu59cuMJ/bjgVyOXfXHgjbxe+tcS3Ta9luU9dPtXppM06BNKvgoU+vtoaSPnntO7xcylNCjAFC3B6eSGsSyQNM0FSrpV8HReikGrUEcDudkFRHwp++7kw1DXf1gOLGepmfkBB4m8nRshs8hzQXT+kqcvdjsz8sI0SNHl0IW+fPKiIyrxrRVj+l/d410czD1oVlj/Je75XEZYfootUcdDf867flrk6pjDRu74fA11kUzsK/TCymYWu0y5NUMbr0dwl/MEnV65cufJR+vuJN71/3PvkvStX3mO937ty5cInrmA0a6ZHdR2R4SmlLctdzXJnyE5iPNcbXz5VcLnjamvFPHRl3loj5OIwy5pwhRlsfosADYL1KMd5WzCflMsmBypEGVJkseMcfxWwPyOPe6hRzwcM6NQPkpOymenOAd22Imcpdrn7vcjO9+CWoMn9K7w9rAiQvGdFmPsWDXp/9kGrzQUezT7oDdS14qDTXKRpzLcgttCdyNT8UAfN9yl1b7qO4zgMyWMLPeO1ffCx0IKpcVfzP/noSv7z0Sc/47w4arvM5W56Zqb2bvlB4OoHaKHX0+X+K9BStVfH0Kj+QtOLs4DIcsfV1mSWuw6lldCb0TB2F8xDycwE5DcWtWRAnSndtrJUP4H+JnnYocBKnI/r6vim7kYGBvRuaqEndDgE6MQJrdhCjxw3zDnufgmYfIdu/RUBHaNGtZ73Uc/vqgHk17zn1w+f0qBPcJEeop7f/0vJRt4UWd9+YNu2G/pUD1ygYPcodXue53mx7UeRy1374KvPUPvqZ9q0Fro8FfhA4wjrGszlTi0vxXAjcnTTdw4wba2eLveyNncV7fazfKrAco/G5KHT6UWTa2ed81xoIRlNNB5FxzpIaqYYlsqz1eBw2uWYayjk7INARcBpfyA4Q+boukHCZ3ayGLpn8Bi6FSxJgA5+GMfQXaIHAUwCdHTvr2i3YtyoCOio518rAjqCqodPaVDhIlUEdHSRvh6VA/qULHdPByNwoUvtSOMxdKAM0LnL/asvUfvKn9rbq70vTgXe5xa6ZwHVWTTetZOB7GsagOsdnIXelk+tD9Udx9CnyEOnYpEDrBZXc24ckULpuGYIUZngQrYVwZW/DzF6K+cvUFKyhUO3yJEjkoVOCpJzz7BZoaUbRuBTGroa1bxAz2PoNHDShyWNasAAnRhhL0lbA7tnp4fulIDJD+jeXzGc/T3v+XXFmDQa9P7Mg35V0fs9+6CzX6RHCFy/fxKXux8YcR46s9AppBa61k3fX0Iud+p+99nH/OcHZ2pKOvW/+vLLz9gS//nK55MEz0hvvyaXqlkyA7tluUsu98TbnjRXAPRDEkPHLvebxRi6kIbebYirXaymihLRi5W4JbEzEKp5Ipm4Q+1xh/FvFovdCNpx/GoSMo9oTgj4PlOVsUOTWKHv+RFD6TSGbiWJaTQIfd/3rRjQwU7T1thGqdNdL4W5L7L2/aOqMJd3rQiQj77Ke1adRdzPe35R0cwefZ/3rGjbjx6ii1Rx0O/48ZYN2remYrl3s0B3wFzsAYuhCxY6N2+/zRlxH135ZFAhzu38gD3uP3C4Njw9nRYYbubBt7zI1VqXe8Hl7h7r5E1zGm2hq9LWULU1iRSniynotJCRTuthfoOiQCTB+jK5izcXPxGk4LhaDDbeYQyzHQ6zVFyBTMhV7wtysJIAQMGonxNQp7aZPBiE6LbraAkZzoph3UuOz7Ztx7aNeBsCtknA1nlXQkhQhpB/TltVVB49+jrrWnUqwAf9c9VBR/mgn1cd9OHnWdeqU4HRdzMP+uiL/CKVpq1NA4sJy50tTuQ7XuR0qdsL/MAPHOoGYdQLwzDfNk4FeCP+/dauYBtqfcThew9lsGu+md5ybSfl2PkHB+e1drm/QDqoEYsD+mKy5WKj4udj0taKLveiTFwpmndrHVDnKjGF/HEAufAKiFwvkHKvW91X6WoBFLP35Zx+IOMl+ua2mVw5ZoLfwuyXIM5f//TfrH3+Q1WUGz38Ou753xXZabF1/3nc80/VB330/cyD3k8HrTz/GD36/p+Ti3S/+kVKBv3n0kEH1jT3TsfJ08Vsz2OF2uJH9jR7kge0Nf/Gz39+9pWzZ19590Y1X6/97Xuv/XvS3hM05hw7Ea7RPCuxrFgCXavlXnS5u9DpgEY7HaLp7KGTrl5E+NcsJXeJFHdzDClONsppjalxpEQ1LpcsAx7XFVzAQORkNdENX0xFb93u5Qlsoju9SGmvG6tQM6bXpimFnO8+//zzH6rj42j06IfvP//86/uPZugaD/rdwxm6PrrPBv1hpkF/YIPen6HnKBl0tov09eeff19+kZzpaM9I8p1qcTF1KjduRDrffPgcE2Tv2f9WzeSyv0018d7dsCl6Q2dAznYcm+VMji5yHce24eBi6PV0uf8q0Xx1SMdJzHVadLk3y0KnIimOW+iJ9qs6hl4Vwbu1QHWxHLcA3ZnmSTF3LdeKBZHH1bLbJ6Wv8VCFpKaHve4NVthzRm2bv+YKZstk96asOIMeMQC7vdEocmi3qsll9u68/fyrb9/pWbLuq2eZtudlZpYVBCwRnbYud9HlrqcI/kJnMRGOy8unNpfkDupqayrpV/xFV0I7rZ97XVETPWe4gVzMW7TKi5RtwcsOpE1cK7LaYEKYXZF43lCKoXWtxc85a5Et1q2anoiUwLgA9ILeR2Kxz2ByveD6PpOWld7Tbcd1rCVh7IMyN2vMctfSuqnuv3biIi2k+dXWoKTa2o9lxVnwQ92J7kQy1AnyvYtwhGt+FrAahCKfYmC4tcynm9KADPrzWmltHx309pxA+t5hAu29MXCuZ1A80UIvVfVQF0yhM+0x7tgtkZZLHP1PJRJcX5d7DuiJz90hKgu9QTpxMSirq60VpV8pKAquNUk7TnTBiyCDFORIITkap1kBQKv+OtHfrqKsy+L4JU6OuSrT8uSY7kd93Ab9Qb+slb8zbZdBtpRuNKiwz2xXg+J7A+X+BgO2pE8H/EgG6ZvZikH60x9kB5xclkFffJ4dxABdN2HkwQgdIt/RQLwY7GXko2oVT2TpSvdX4emTTRCqMJ1bl3vqctfiR7uTWOgdcBou/UpLSXFFlnuTBNzHu+ELudAgab/lguMCHQ4b9iA/OZyWOEy9pRqh2ymRMjSBc/dR9j4W0MVfUEWSQa6bBHmd2ikrDde7idFCKvscZzPNx9rlmLA0g4X+zGC8CSx3s0NeiAG800keoNnlU+OHyPN8RdraTWUe+ti0tW69S6jKiemyfa5yEHMtd56aDm2+WkXfO79kUoRj/kqhz5+nAwshAGdwirMqUAj1SZMCwLheVyjvyvckCoUbl5iuIyF49tvdB5u44A09eAu9ZbkLLndWNpUa+r/GddZY2prxm+bH0PuPf3ysqLamttApyE73hhRm4dW4s5siv8eh+t2A7oNFFhe0ADStjanyY8As/EFo5EWCse+DagXgpwAgi+2JXA/+1eazAHlCW2sznMprKAJ88TZGCz0rMNgqGOsHZqEffD30ugrLmKmkDLi/8aDToV7TpV+hywD9R1W1tZtqYZkm+tkFGbm8UEuB2aYAHFnrHfIyJAAEoEX1cnAqRy6FjwPaCymXnAMiiBpi7zuRlI5AfDP/kkKO5rXHcGX2TaHYM4UiFKsx9IBkOWu51FnL3YJc9JVS01VVW2uY050iQO9NTYprYiNCKVXMcMfiMSCvFWLrkgB8C0NFCb39nhgcxnmRGJoQKhAIRYXKdgFcQoFnbDYtal7EdKoy42kZ13c/49dPGo5/1hZ6jcunui84h6bamuRyH19tTfiHyP8FurXRkZlI+SFE0H/FpcAkBycoHKA8fCnec1soqu6LbydC009jVDMlbnkT5GRH81IRy8WEzdoCeFdhq1MJuotFKEQwp5W93U+h2sYcxNAbVz61wTz3XiYLJ1ZbU0q/FtkkdTfKiQrZQawLJgnHSfY7SD5iKOZkQQtK0/LfYZ/xrrGXUgpLgNIvz2PliB8iUN2B80UaRmOnqqzaQu6tvNUTpKEfWLWNebDQa1w+9VDVQ+9SEFzuebW1vRHDclXaGlX+B9Faw3qRJYdEXBHjDURNOCDY1ylziktpTG0r6rRDC9dVQujid0vUHYZinhrIVXEEs5yASHGvmU2eJ9dQ2VjPeXB0DITLpPJZKWzNXertcle1Jn9egsu9XClOL4XyRnHjpBwqkKwgwDdJQoqezHKiV4tIE+V22ss3JRVBdv6oEyVBMNUJSqsEXtauGEavdyBdtraplFNbiI5jbyUHe1o/O7pluVdxuTfV4S643LGwTIn0K22guIyYr0O4rLsiEV1wVhIx31fyZLaCcap8K6hijLZt7DWCCTL5gqyMDO+Qf4sLxJFm8NyLDnhFsFB0xcvA3i61Z7kfshg6+4Nc7shC3xvt7ali6FIKuuDl6jYB3Ikg7q7UgANAjkui1DEtZGG1GDUrfDf7ylFNN9o2rpnFlyZfb/JfM3tmii+TNfivsEn8Ql9CN7Xu/t9pNcPQZutJDWOpZbnvr8u92dKvWFjmZmnamq5K6WyEzkyegSuYKsh4IZi/DkRQ5FAQ4CRSXEuLmw6poQTAm3zlNOdav23z0a7xgpL7bjZZ10b37g18YwYsDQaDwSgwn7WF3jyXezNVZdhj6PtBsdqaKm1NjjgVhRtqD+qSTJwqEFlAIhSZJGLOeutEfjqpW/U8KdPr90eD0WiQ/OnHv+lDvCZ/3o+3ydf38Yt0M2G77N0+3jPqk4zEt0t3NBB3j5/2+ZuFofO38SgDNC56yofDT/NdDfCRo/3yweVewjXL/vLDzfcpHlBfPMFku75vopLm+7fo3sbbL7744vNvf+Nq1frq7l+u/9dvf/tf63/xtGcs/do8l3tTPe5QUm2tqOU+IYZeZ4c7IWIiOsmZv2LqOci2JCh0NSdlZrWQfDgbFS4CdXtx0c4YjxikJG2Q/eUomq7rj6SHQfoi/9PHL4RNpJ59PgZaIXZFxzTisJ6uFoZOoVUYp4/H7I+Es+uPMDL3FSeQXZBBYS8D3mVQOFB50L54JfDBSSeYTm/6rj6d7WbZtm2ZGJ6pacdNZwa57bDHDJXDD199JW6vfupVwhH6/h//67dx+6/r72uty72Ky103xzSjrbbGY+hlMou1l3yV5F8Rhz1jvGMjHJSJwKBKVoMW35o+RwDLdW06YSPXwXh+DVmaoz6yqEcLdxcw/g0E1M9ReiAgU7ri6NEUswYIyzncDnIUHGA0Zs+SQQcjAWSTjft8RtHPJxh9Puq9o+lmeO/CxplFPJLmEvmgA4z2GLIHGJgHCNkf3M3ReSAcDUfvPr+62KbnL7N99vNDGgR0Ku1Xn9k+UWgh28iNV0VW/GYvCjPQoOHvz+btRqXorf/H3+btj77wnsEmDZZBW5d7icudLYulv41OWxMs9FItd72UMwoNcb8TEO1zgtWypborxTgvoPx0ovS6z5DH1bZ6XCDqB54XBNr4rTwE6NTD0DPg1uO9jTMvvfTS+Q3B/MTQhMAIvxiMRncvv/TSSy9dvSvtdSSY4wjc892NRhvnX3rppTMbCyMRAPvKoQQj/O5VNujlu6PRqGDViwOj+UvcFu4kg94bCba+vAOpW/xw72p8ke6oNxYmMbLrAB2X4L7Imj8NwZ36gWGYdhBoFCjVYtKa24tZektgR66hWWGQbmt9++9v5O3CvQpxdPMv//Hb5If9+QuKo1uuY1umZTuupUHrcp8ghSrVvmt8qiEHdKHaWkHLXbxCjUtFJyBiOWBQztPYhLg5EWtOqzztokRNC97N9NTboQlghg5Z0qluxriumwaz2EE3DXYS1DQoBnS7CCUJysWg/NJLZ64uqFzW49rG60nX1++I4DWY2HPhatLzpasLU4wjHM3d8+nxbkwaaSDNXEYxKDNcvituNCgbK1/HB10YTdv6ktO/9BidaZzuvs8e7MiCJdvzPFuj1L2ZRCWpE+lAqRcl1jP1PnnvyoUrV+Lf967ccKbHUff2f/znf/7Hf8a///Gft3iuleVqaR0OzbZo63KfEFOWBQOanJMoudxvlpPi9PGSr91aIrhcNlKoz4JUM0EMowOW5JID50TctAXlQ9Cc0CAENI3YoRdFoUHACaMo0Ak4URR5hGjsZYAAPSqBlKtnkpYgZJV293za9czrCxW7ZoOeOXO1Ys/R6y9lXe+oIby03eGDVjzehctnygd94tbTpyjN4vuMO2dGNnUi3/Eih7nc9RQvGJJrfpRsq33wyZWPPrqS/F756CN/agDWfvOH/0TtD7/J895s39a7MZpZvt263KtK4j8jC51SSpcmLfsB6TiGjkhx/f644iz4VbfG6q9EzZAjXCQORGk4MUVNqpsqiHlAi+eHpRlh6Fo6JcSOXN3wfWKENmiBA2ZoEiOwiRtZuh1xQDdL0ORoDlVnLj+oBkQbvOvGrFOBM2fuzTxo1bkAH/T1u9V63nmdX6T9B/S+PfmWT32Gy9SJTM0PKIAXUOr2fN/3vfiWrFl+ZCf70D74WGjB1Pds7f3/h9sfOC3Otm3XdRzHdWxmobcu9xpI+aWcyYltH7IZcAydk+IeP957rCDFiZNXbJh3G+BwR4UqiJBYTtS1zTMdGjFfbWKFtRbmm9ZMxw8jTyd2ZBKwI7AiQ9dd798c39QN36NeAAR8Duhuqduct4owd5n3vFwVIHnbmH3QanOBu7MPii/Sg/1HdHeKyix+6DiOF3lUD1ygYEeUuhHDWDv2AvuRn+I5aB989RlqX/lT68tIgP7/3s/v9bYFVNN0XaMC1rYu97nV6qW2Y07VLM94Uo87xTH0ci13rVDASGmTd+sN6ASVniKorrTKuS4URi/mq4EKxaEF9XEzG6i4/RydCSzZkU/sUGdmOlgx49lfSqjPPvV8kRQXlDm/33n99Xdej/+8XtGdnHRK+lYG9HeyZaOi8/udvOvluxUHzcd8p6JxfzXr+Po7rx+Az92jdLKFzpyZgU1jQGfBdI26Pb3LXKZUDyLfysny2vtffYnaVxUS1/w/CBb6b/KeyCw3n5KFXmeX+xwslm2ahjnVr6Pto4WOqq2pirNAA3ThxuWiE6wuw5VlQCqnpjTBC0IyUAZELZQ3jhVnMOIbDQKwWTA9BnSNUk0Dx9cp1TXq+UAIstC9MuPzHd6qWuioa0VARz0rAvpV3rNiiGD2QUdXZ79I0wH65CC679PEuNEDxlWLAT3SE/PP7rlLPHRLne+wx/1+hZi380cM6Lc5nY5Z6AqZ9bZ86twuTozVU0H6kwdR1GlrJcVZlFDeGHgn3DCXFNxlkJGIcKA2w9vSqYeEFBdZlJqhC3bkUM0LiBmZAI7TtQKDaK4NbmRQE8XQnckwVzWGjmCuosV7FwHkndkHrUZtW5h90DszT12mag6dJoaeGeB+qAMLpFO3Z2iaprHIuqXpmqan+zB7V3j7pFchRmoMECvuDz3uWrZ5/vvTstCb5HJ/+ovGHO7BFPrDbDt3/9LWxldbo2X5avyNbhN874QIxHcQ8sslOdhc9FWsNl2WrI5LV7cw2IyUtTirPIjCMAo0YkdBGEYWoV7kB+zRD/0g0ogRRWGELHQ6xnGetqokszszR98XruY9qwLk3ZkD4SM+aNWpy93LMw86DSnOmqLYmp/LvNhR6IeRHQvLhNfC0KFOL4zCMAyzYLn77YUsDf29b0yYPpZLX/jLH36bpaL/xebvYJf7U7LQW5f7k11A03Qe/zi59S3D9PbN5T5icwRx2Md7CpZ7t4F56EQuuEZ4LXQQSlUWyqgSYbsJjnZo7fVGTj5M27YgTki3bOZ/Zyt0htyWbS+xMiy2tWQYvIM/icF9vmp0eOHqzLln+aCvV/Zg54Nerpor9yCjuVdH5Y2ZB52iXdOmSGxyOMSZrudalFLbjZtFreRJpttOwbvx65+/8srZV37+629sKpVfHy9a5vwllX5d/wuu+Gk6jA8HlC7pttmWT51/l7tlm4bDQbXQ8rdGlml6+2ahlzYs/Sqr7jQtkM6LovPkdMl/jlRlMM+doIouuLTqIaoeduhbTIqbKureGy8Pc7462yuRT3vpzNXqzO8752cddJQNeq/6oImGzixW9kaiSXP5ACLofRNgCpp70cwue4tRnD/YePu55z7c+JmoAjMFOdp6/y/X19ev/+X9F3BYn5qO7di27TiOSVuXez04cdxCv3dTbnsc0JmF3t2nGPoEQC9F8EaF0AXZOCT8Oi4qrqrCBqA2xls8bzSg+1MCOtillvbG+fPn78xket69ev781aOz9Hywcfn8+Y0HMw86E9l84Q4b9N5sx3v+/OUDYLiPRvYM0iOT6qdTzXR/5jvmkkC2mwrXWc+fueYxKu9RM0yDRexbLffaudxH/1due9zlbu6jy30soOtq8KZlOWvd+uK5EOcGjuBpcXRl4W6RIgfjcrJaSG/bGPHXtj3D1rcVahtT1LiayKLL4pRjTfqy8ll5/8kqaC3LfR4X3TENqzc5hP7YS0hx+1ScZaKFXtS7pw1IQZfpb9jXDiApuMrlVACJ0IAQKc9S2FsQb5va6+63ADpnzbeoLAA+ndt93AzgiSRN5kIkpXW5P2nQwmWiMeFEPGfZbZb9ZJ9q7HI3PaZaWFjSR88ykJY7Tl6joK6S3q2lXc7l3VMrPeOv88LomO4OXD8uU5bh9LmqkiltO3yNKiB9bwzc7B0YkO1N/8be04XYvemH3Ztuy/L3AxOX79hXC131/r4V42hZ7nUIohum6e3FAqzqnx9/HMUb5XVNn8TlzpPeDVwG3pT1axQV12jB+d6tb+i8UJgFpDIrhXxzQW6mNBu9bW1TY7rleMFTbNcKr67JK0u3nrTVtWul/a9Nf0jXlLtGb/IthGfX8JbXhNXpdteu4XeyN9Lz9+JCpBTd4fZbTLS+Jbxal/s+SL/GUnHOiNnhyp8ffwytGGhN+oSTPQboEqSjJcN4nLZGp2fFdWsE6tw25zguMNsKz6DIYJfU4BW43gJ92/YlU05iaubf4nF9gJcNwrGl0jpFzW1UvJtxZbeZoPeZKYi3Lvc6uNxZvgLzuhuWV8aciWIxOcvVn3zux+oMTGyeJv4fdFFplubkohMJ4XFQHOTYOSmkpQnlWUBJiW/z0Nv2ZDCuFh8GwpWLx00bcX6l8JUnUoJHLcEZiuHAchTMPeWFOHd1VH+m9a9bl3sd/BymY02QfTVMOxFkfcKxTMt6wbLZHyt9YM/SX9tKGvNrdMea5N1aYzshEisut3ZAAmfAkfO8xGq+icySb83ztu0XlEvzQhBCQNg4V3I5UdVAGIPepBnmt2yFSzHvgqKGWC2b1sYd/rQs9Nbl/qSL4djjFd0tx96/DzTH5ORll4ooTYv/JXSyuEy3vra6ZLRPvMXi2i7qO3Db2rY/yM5dR6mfCAp1gjDQZ7ROjuioQHD2jZ2CWTKvrau83YwXs1TdvKhI8qXt0grL7O91tFxLDmajR9s19g3Pu1RwRGXf7670JacqDlxTkJwI1joOOSpUXQui7DxnvYDn0Pra21YNsjUNpjTVBQBP/0GF75tcZACQTrFQYVDXyqB8ErRTTZ/JM0e11H6u3F3TxIG7Soe7AsSTxm52hkZV0P6sCmbPt7e4dbnvz6I5rlsS02aiwbCv9jkVgkqF4BQthqxow4TiuO+dJ6nhu2JBNK4Q2ZQtKZzQ1trqbZsOzs0gCiObqo1zHj8XC/qyxoq2uqEgTSx0FXIuBZymNiseY8z0H2MFYRhYVQ166gZRFJcqcaIocrUK43lR5LOOVhhFoUWniK5ndywnKU+vUedaGPlmAbsrZKEdpqV1ue9bgIRp/CnbfoZ55GmqBNhStrlgo0vzAVpTfCdESY0TheLGMYwEYygPtLetbdXbUuCZphtZEwM2yNhOvm+eB9QLSDFGhIQUcNEh/mU3Q8cwQ29phv8dPXINww2r/ttTz/FDMwZZx7RDZ/qetuvGgG5GLrtOuuwapOmTLsi3JOqEjA9kUjt0TMsPl4oO+AZkmbUu9zlengmzAq+lSlE4UFru843lZLqYuUz8zU11UBo+RXwvIRm38N626ZoR6YQsoeLpimAPmjpyRqYWV/EMsMddEi/kwSPsjAICDkNIy6EzxNHj0u9mVNm6p9RmPakfUGalV+mohV4XwGZYbkTWxEgfv486QXKGvq8BtXtGLiJTzpFrl9blXjcSY/xPYsZScJYOlBq2bTL6vMlC+BotSw+REbzeNVUxjvOC6IQH1ZH7XajYAkRSjxN47yo/fYvtbRsbQWcw2bMVXxlQeIf4Kjs0CPUCAEyek8x0SZI4+867HtXwf3oFSpweOprmhDP8z9vMQtcCjz3tVem/FMYud3aPsmK3vRrGi6lsTpDE0FkMXsuNey4OJ5sz7dK63Ou2pF99rcfKEtDIodQNPS9kAaae73l+aMtmusoj36yWGzDSbROgNI0ov1uSYpQTWjBvWyVIN5zQ18q/NTltXYit08CnhLoBlKVL5n72XIgmb17g+aFvzfTf4kZBEDkzkOJjCz0F9KjKXYTGgM6QxoncpbFKV6Kv04lYoXLmQNYsL3SomG1LhVtbCw2ty72Wn1byFdYjh9npkUPNyKJLRuRQLbLpkub5uvp/RfbE1xnXiZCTmxOCQXCjSy/kGyVfAUo3fAvlbZuu6V4Y2EuyUweUriD03TIi37btIFBiOQgzT64sk37r3cjU9MDXZvjfMULPNLxQezJAr2ahX4sB3fTD0NbKfexFr6ETMUKxBdQKIt+kxWJTLSGudbnX3kBPCPVRZqFbIfumWyalPYtNagMdFHz4cvO8W1tEF14RDOqApTlEJ3uBo6SSfC1w5FrSe9vKGmVesfEsTPFrlX4/zSAMr4VRwLPP5Q5A5KJDWeKaF8fQw1lo7g4LnxuhPbPL3a8M6ImFbkSBTcfedLqyjc5i6LEPOYFzKW7OTfQWF1qX+0EZ0JqupSXtkydLNF0P+2ihU9B7sYXec6geBk4sDKdFjmXZzDFF1VQ4zG/vNsb7jgx1bHVDSRaRUMlFsqAEj72YZdTiVtvKDHSB4C55ekD8NgFKM6earuuGFyCrXa0UR3DFgSy4HP8xZtCTcWJS3EyAnpDiQg3iyP/07d9iQLcjq1QjTl6RorQTZBEGo5ic222d7a3L/cAro3tB4DNI1dwgCFjJM5sRNJnhvL9Mem6hg+lFUegbsNQLgyCKLEVCWm2o7dWV4SRZLa6pVaLkilLWAOm+AlaKHUdualvbZJa7xyK9FhS85ihNsqSMACPFCR4jVEYICBZayNifyWoz9Cznmkdn0IrTI99GKWDT56F7fuS7DrUi3/GiCvMB2/Wi0HNNO7lOZtk9qVvE9JjlTgH8pKuBRTELldBbLG9d7vteo8UPHduLXPbEtb3Io+BGLvOIR1Gs77ZvkB6T4uIYeheAGm7k0SU2A6ZuaIhkOFrznPNxoE4EqTgAnMFLxDQgAgVBGVDpxInBdZjoRm3bobfQkwqf9tiyaQJhE21JHU/CelxPKAsmAcjiMpYfBK420z+O4QWBVz1rLTlLj4Llh9x3Po1LIOlpWenjOEKcBPO2n6xxk65mUQSTFuRo2qV1ue/bYjH7mPq+ZjIDmrqhCW4UWaAFDND3LzUutc1B6zlgxAVZA1/TIov54mNYL+rCdRuI6UL2OTaKhFUFLygSn+GTAWHrNmutbRVI7kJJgCIsE9HxDsJ0EUBZegB9O7mMO8Gp7JTOrN5OZ7kJJJrTSXdasSdFVVTUdrk62TZzrjP1V0q7BTzvtqZ563I/yIVFtShoOo35Iyzpkjp+4Btu6PW6sJ8ud/DZUE5kgRVTVUKPajGUO0mipxw0p80hxKl8iwSVSM/vlnkSLykrfkWQ+LsQxAQVRb5tbSslv0mOICIzMKDAYAcoS5HE9QkIrsWSx5RqPglXVXqUyOuqexflsXP5jRbXW5f7ASwxTYU9YYBOwYwscD0zCiLb2VcLnQIYQRSGzKev+ZHvR9csWIoC3w9ClyqI7VSZJFL7ELoa2CU4BklABlGNpTIuUJY81EbT2zYu9AJqRpzSSicoDa1UbxhpvwIRJBBLZrNzDt6TyDtUAeJq/QzJLqIt1711uR/c4gQGfpIAOrUjjzJA319xGd12HCvWmLEdh/kxqM2aKUeXVMnotbfRuaHCjRd04wNEcivRi5F87AIdrpV1b1t1VC8NnuepZ7nbiBdQK5d9F010IrLcG9DolDCvoAMV8P5JLfTW5d663Me43A0zd7nHgK7ZGnV6+8lyT/528dRWVWiNyoIyBYIcrTO0E3XuGqgU4sYVUIMxt2loZWbaNjO6Y6scZE8PYJ0jRbIFyau4AHa91x7Wu+Uh+pwhJBrtCiE5uq+iMq3LvXW5KxcWNGdJmpoZs+OcayYD9DhtbX8tdFq02IV/hG4JibRxhLg8eI7KWGFHOgjqMqIGJ461K9yoAK2p3rYniacLHvT8KwhSpd7xc0xUFl3UfyW1cbpPA+1UZZgXbXQB6mlbnaV1uR9wQXTfty0nTlsL2BNPA8ejiSpxd78F49SirlQp4E4VVNJGuN4RYYj728VbK8g3Vi7XwTPXYAyzvUX1ts1or0ssDBA1jKDkmwZKh33TfO781kMVUF7AdCqLt7fpaq3L/cAvpcFEXpiejO5G0TX2xImrEdC4vNE+u4dU1Df1mw1KUCtTl8FOSSLnkQuRdSCSR1MwhXCIHeTba9vaNhHFy0rxotgPFIjxKMquoMcjb1SBGUfqaJF3lZw5KhPgS6qe801b/G5d7gddEB3JzAiV/g6iQqtEFSnljhaV4roNMM4BBc4J9sFD7oMHrschq7uCmltcMKhaIG/bDMAOcvhGfAOgqCqMqgaK3DglbtcS07uliTYltaNK1u27Yd663FuX+6QvhshiO7AJhIIZp8j5KE9a6zbMaueFLuSCagDSDRYAxjLi2ta2J+HFQcFuByGlEsbOB/isFMu/EjR9bQYdToHVKoOFiqS5fYb0plnorcv9oGd7B4PlFJAKkyS5oPiWAk7lbIoXnqji6gpvJwhVWPAqKaqpuNW2FVraVtXpLsZvgIjCByhJUl11ADNECOJ/ou87aQjnXfYkKrJsBfpPsroLrYleGkNvXe4HDfAHb6FLlHfZE0/V2kw1NciJihqXe9eRlgc2yaHgYJeBWiykDqU2V9vaNo7mDorYOIDAeMebgsDhhGIcHYXdha9/PWPpag6ceFMS6eyIPNct8Ua2mWuChT6vLndaM5f7U/nCFJ6p0V0Rm6KFtLaG+NsLQUgQ086Aq81IMK52gEKr/Nq2J8Z1RRgdBHRWlAUSOJ04JZNMjjjVT1dmnN9dVTGSFpLSWw6cMoY+Xxb6/+LWrW02xA9ygHsFFdO9hGciasrQZuA6TyiX09BlwU18fwXBEy/KuAOUGO+T4qZta2Posss9Q2VJGk5Sa5e+TcC/yVgAtub/q8p0WZGnS8fcrPCLFrnLQMEy88vzT38/D4D+k//Fj842249OHQtHkSeqoLtPqIHeiLLoWAAWUYJFc4aI/kwh51y4x8rRTZDY7i2Et62CWS66fkCiZ8gKSLlUO6+oJhYZQkkcpJ643h1DjaMl6ThlkN7WZBlTxNsy8+fzAeh/8z//Kf/wLKv9iApLV07PLJQeKmosFSJUZdzTbs3Mc5CIwEDEEulFuhIy0+XSqaAqnN62tj0JyCNvEMghHyAKFqcQPK85tX1q6jtV5Z6ryUCKG1y7cHkzW89f/ON8APrf/xNixWntRyQtXdnfTgvT2sK/Q3dMvnqdqXFEkbGWI7uk3yGw3IScNYmJLN6OW3xv25TOdmneCFKAHMRouoK0IU84sbkOZWJxpF7gTcd5CumY2DlV1K5o0aCwGDZ/8Y//Yy4A/e/+EbPi2o9orOOd4jRN2etOy/I/KDRFTY7IrN8czQkgkpzSAhLAvMgtBhX5vW1tU9rhBYBXwXl51AYQJ54z4IFXAgQysXRwndLQaUkKejFPh5bl4NI68JyePifO4q/+4W/nAtD/9h/48ZlWGycp4bnTUnymY+LmtCGMOFIooIrAPC+gyrN4uU0ulMfANniL2G3bByOdKFImCsXWVCKEIFZgw/WDQIgoNaZRpc1OS3BengG0FrpiwR53+N9/Mx/tfwPyuZvth1TGbkcUEZpLIZeVL5jANa09Q47g+5500wSQxeIE8xwU6rBtBnrbKgO6Ot0xn16imBBR1PjD7iM+WUXUT9IsQO8WouIUCnno/D7WLQhmtTF0BSXOQlfl7+cE0P9eyKrTWjqjwtukpoUUPVXjTfEmhdW57rXkSAeVYBwQHpkUb6igVoprkb1ts3niofClUnwxhUS2bHYqsjdxSmU9mW9ltx6F1S1ovopCsMp4erukEXSDX6H/87dzAug//UdsolvtVEwN510kgQhyTpsqz63Z1dEJIsOhJF6irlKJMoR4zi8gMXgCJQlJbWvbRCQX8idAQYpTxd0F9cLMJi8w3JvHd5dyzwsYXxCDbWRRlX2huAtpYfPicf+bv/mfCIw0loveflboS6zQUqJlIamCA6vOTDgyifbOa0dLjyC720Eq3oJLsMrKsa153rbK7nfuBpLMc5RnAarZIjLPER+kkXAupNxSFdUHk3/lFF0hfaddcod7/vKf/m5e8Pwnf4tMdDBaRC/zq1Mphq5INZ+YrtatI6CT4jt5/jnPWFOJxMjcddGgAlVdl7a1bdoQOkjec1TxB4XSuUcIR3qw6gwgDxNglkcjQL0LkyjvoE7KlVS0um3umojntoYuyP/303nB858g9Veg1LBNrXWvjMF1oWaBXGVQMRluoNedAM89z7U8ChpwxQJsgnN0OtZy29qm9NwUporC9LCo9KpQPRCodViQRkjpIPWGb4BSUcuCwmsxKVesTNX63RHB3bJ1dEH+6e9/+jc/efZY/pOf/OSnP/np32ETneq2ZbQfnATnXeW3W12dpTxPrYtWd2uI4GLGGpLNRmHICequgpi2xGdq4bxtVeLmoBB7I4IcIRaDVZfp5drFRNQ+bJDbXcHYLdgfSsU4iU3V4gAPnxu2peE1//C3P/1pjKc/ebZ4/tOf/uSnPxVMdBbrlw62XYoE93FSDU01zOW7m5S/y5VhMUKDWBtd5X4XtoTWAd+26XzuShVX1dfq/2/vznviONI4AIdwHwPB2BDHCxMcSLJo2diOj3gRu9+ARq1Fgyz+sPj+H2JVfVYfg2ETMWZ4nuq5B2ksQ/+murreqpcGbM9Sb4yZ1wfcz3p652cPrLbM2L5EeyfWtwx6a1hdrbjmN5tP19nIdPTkd98Gk0z0LM0Li781e5efPl9/vrocjUYX6Z/aRmnRbn7pr7p/1w9z+5+9KN8X7uQPwrPh+mJUPkzj9+aP0/QivKt4dFG9LTyoWnmTNm6yH05jFz33gIfr4ksvFpf6pnjQ2HOUe5JR+aDY5Yyi/VX2VNgD5dtFvU+qdmHFnjD6qWr3Nvpv9sKt95YPabvTP2o0Gl1eXV9fXTYHIP42V2bphCI9ivO5ubm5tXetAgKjq8/X158BgNz19fXnT6Pm+YLp3xfn5iYa6fnYeZHmc3OLc/Waa/U4yujy09XVlcuNl0/1o+jep8btl7ay1Vc99xvv1DTt8bVxe4W+/UZ0Fb2nvd24Z+vZtT36y+WoW6fl3XeLeZBOLNGLPM/TPFj56d/t8x94NLoz1MoThKI5PHWJ9ptba5gzet6oOJMZcE9aj5JWWblOa9U/6vy1TGGpd+50mmF0muDJ91mG1pF+74Ee5Xke5ysraz+dtE/TThUSOO+rFPPYs78+wyiq454k/VOD4sm/0TnxfeVn7hT4vhw86klrfU8m3Uoz1flxSetXszl/Ml42KPomO03O/6+aGGOrxj3uaGieKH3y/crKymKV6ZNI9Gaer4Q8X1v7+T/tLrqJCmWFpPZ09LR3jnraUxouncJvAY1S141Cb0lrDnqStPe4UbGPnoKcVaUPq6hyx5xPurHenZbeu3TvWVwkKelG+tlUdCm782t7p5+n0SHaTnqZw9bd4Z/8sLa2tlJkep3o99xBz/O87J2vrW1sbDz5+SRp/+/J8866BD1TObsll86TKVlXrefIfM/Rxri0ZlTFK2l2lVq7T11v/uKeeqP+QX0oKK5ykDTGf5Lo8NJZz+H1swfeWz//4rT089556PkL3fqw42bxPq7Dto3vPu9+3NjY2MgzfUKJPhMHehnnG0+2nv/4blrXof8TMR6XPu6swdLugI89Mp/e6UjXg5mKXs3abRXraBbiSuolKsesmNpT9EOwM+YXZNz6fEnfL1BZ8+hsTG2ZpDWWntwwA31ajsP37eKaL5+3ZqKnPUuo6uklSfrbD8+fbOSRXiX6fR90b+b5St49f575pyTvll1IkxuPrXdWGE6naLT9bMwwelUnrq4bd9Zcc60xmtk8ylnVlmsOuic37aGhO3jTM4ReF4BLqt/Q3kV5k+Zy6PXCLr2LF0xBz3zcSlJJ54B633LRzR5MKiKy7R9ZbD6JEr3oot9voM+UgV7m+Vb2uYbD4a/vTxJVgZqLrSXtSO+ruJRO0TprtzwbPlrfqrOI1Zgl0qNl1joVvRx95xYj5WN+MeKBnTrLz2448pO0vxxEI+nJlIygp92YT/sG0XuH19Okd/1U/fNqgbX3vw6HwyrSQ6LHXfT77aHXB9zL/vlwOBweDA9evz/RRe9WP+wtjNh/xknSV879fOoWaKkrYJ/Vy1LFZ7x1O9uNEcvm6OX4bjrccE57fL5bXN41ibvq/Qfb42+edW++MZfj4Q+c9wR0Z1eV9oyhd09uT3tmbD3i7eT9rwcHITRDpG89ibvokzvkHnXQQ5wXXqe+gTVvmosI969FlI4N9XTst+bzhxnk9Urmya1OTS8XRa+PzJ+11rhq72fFFjcfs0n6z7VI2kmftN8e10so8/4sGkuKizFM0cIsfZGfdhaG7OR+2nf43Zaevi7Csuijb+Vd9Mn10L+NeuhbeaDnH/Do4Ojo6PfXHz+e9hkV2+Xp6WW4vjwdNbfLsGWXh25U3Yzy+6PyqeLJ8qn4xfph47XyheLp6uaWrf+J/Cqo3jGqHgNfn8v6z/MyevKyfTP2T/9WreemedvcW0Wvjcq9VfS+6L3VTzxsp8V2etnasmgbFTE3xseP71+/PTo6ihN9Kwv0aBB9ZgKH3ItE38gSfTjc3c0DvfT27dvfs63wx9s/evwrb2EDgAcmC7AQZh0h9qoIzPOwSsgsL3d3y0Cf4Bh6axB9K3TRd3dDoh8eHpYf9/jo+Pj4VenNqzdhK33I24fsAgAP2psPRa69ib16U6Xg8fHx0XEZkIeHB4ch0HeHz7fqQJ/YWe5loufH3Lee7maJfhgivcr0PNQzr+psjxO+GfMA8MC8ynMsXOXpVod4aJmjvAW/HGYO9kJqPn2aB/qk5qF3JqJngf50e3d3d29vfz//qIe/ZI6Kdhxa2ABg+mWZl7UyCIPDPM739/dCnm9vh0CP8jwL9G8mU/u1ONF9EAL96fb2XmZ/f3//5cvDl2WyZ628CdfZvwkAps/hL3HuldeZkIwhIvOw3M7zfDDRPC8CvT4xbjAYbG5mkb6z82LvRZHroY3zMr8GgOmwf7MsFTMv9l682NkJeb65ORgM1lqV3O99/dQq0hcXF5eWB4Ms0zc3t59tP9vZ2dl5kTcAICiScWdn59nOs+0QmSHOB8vLUZzff55XgZ530ueXlpaXV8PnWl9fzz7js9AK1R0AeHQ2o5ssHjc3N9fX19dDaq4uLy/Nz8/FeX7fgR4SvY70+fn5PNNXVwd5rocWtuwCAI/boLoe5FZXV5eXl5eWQoJOMs6bkT47OzufZ/pSiPXl5dUQ7QBA03Ie5CHK8zCfn5+d/XaicV5G+kwZ6bPzeaovLCwtLAEAvRaWlhYWFoosD6o4n1iel5GemZ3JP1YR6wDAWLNFmM/WQTrJOB8X6gDAF8x8VWHejvQo2vMGAJQJnreOb74qMwDAHX0DAAAAAAAAAAAAAAAAAAAAAAAAAAAAAAAAAAAAAAAAAAAAAAAAAAAAAAAAAAAAAAAAAAAAAAAAAAAAAAAAAAAAAAAAAAAAAAAAAAAAAAAAAAAAAAAAAAAAAAAAAAAAAAAAAAAAAAAAAAAAAAAAAAAAAAAAAAAAAAAAAAAAAAAAAAAAAAAAAAAAAAAAAAAAAAAAAAAAAAAAAAAAAAAAAAAAAAAAAAAAAAAAAAAAAAAAAAAAAAAAAAAAAAAAAAAAAAAAAAAAAAAAAAAAAAAAAAAAAAAAAAAAAAAAAAAAAAAAAAAAAAAAAAAAAAAAAAAAAAAAAAAAAAAAAAAAAAAAAAAAAAAAAAAAAAAAAAAAAAAAAAAAAAAAAAAAAAAAAAAAAAAAAAAAAAAAAAAAAAAAAAAAAAAAAAAAAAAAAAAAAAAAAAAAAAAAAAAAAAAAAAAAAAAAAAAAAAAAAAAAAAAAAAAAAAAAAAAAAAAAAAAAAAAAAAAAAAAAAAAAAAAAAAAAAAAAAAAAAAAAAAAAAAAAAAAAAAAAAAAAAAAAAAAAAAAAAAAAAAAAAAAAAAAAAAAAAAAAAAAAAAAAAAAAAAAAAAAAAAAAAAAAAAAAAAAAAAAAAAAAAAAAAAAAAAAAAAAAAAAAAAAAAAAAAAAAAAAAAAAAAAAAAAAAAAAAAAAAAAAAAAAAAAAAAAAAAAAAAAAAAAAAAAAAAAAAAAAAAAAAAAAAAAAAAAAAAAAAAAAAAAAAAAAAAAAAAAAAAAAAAAAAAAAAAAAAAAAAAAAAAAAAAAAAAAAAAAAAAAAAAAAAAAAAAAAAAAAAAAAAAAAAAAAAAAAAAAAAAAAAAAAAAAAAAAAAAAAAAAAAAAAAAAAAAAAAAAAAAAAAAAAAAAAAAAAAAAAAAAAAAAAAAAAAAAAAAAAAAAAAAAAAAAAAAAAAAAAAAAAAAAAAAAAAAAAAAAAAAAAAAAAAAAAAAAAAAAAAAAAAAAAAAAAAAAAAAAAAAAAAAAAAAAAAAAAAAAAAAAAAAAAAAAAAAAAAAAAAAAAAAAAAAAAAAAAAAAAAAAAAAAAAAAAAAAAAAAAAAAAAAAAAAAAAAAAAAAAAAAAAAAAAAAAAAAAAAAAAAAAAAAAAAAAAAAAAAAAAAAAAAAAAAAAAAAAAAAAAAAAAAAAAAAAAAAAAAAAAAAAAAAAAAAAAAAAAAAAAAAAAAAAAAAAAAAAAAAAAAAAAAAAAAAAAAAAAAAAAAAAAAAAAAAAAAAAAAAAAAAAAAAAAAAAAAAAAAAAAAAAAAAAAAAAAAAAAAAAAAAAAAAAAAAAAAAAAAAAAAAAAAAAAAAAAAAAAAAAAAAAAAAAAAAAAAAAAAAAAAAAAAAAAAAAAAAAAAAAAAAAAAAAAAAAAAAAAAAAAAAAAAAAAAAAAAAAAAAAAAAAAAAAAAAAAAAAAAAAAAAAAAAAAAAAAAAAAAAAAAAAAAAAAAAAAAAAAAAAAAAAAAAAAAAAAAAAAAAAAAAAAAAAAAAAAAAAAAAAAAAAAAAAAAAAAAAAAAAAAAAAAAAAAAAAAAAAAAAAAAAAAAAAAAAAAAAAAAAAAAAAAAAAAAAAAAAAAAAAAAAAAAAAAAAAAAAAAAAAAAAAAAAAAAAAAAAAAAAAAAAAAAAAAAAAAAAAAAAAAAAAAAAAAAAAAAAAAAAAAAAAAAAAAAAAAAAAAAAAAAAAAAAAAAAAAAAAAAAAAAAAAAAAAAAAAAAAAAAAAAAAAAAAAAAAAAAAAAAAAAAAAAAAAAAAAAAAAAAAAAAAAAAAAAAAAAAAAAAAAAAAAAAAAAAAAAAAAAAAAAAAAAAAAAAAAAAAAAAAAAAAAAAAAAAAAAAAAAAAAAAAAAAAAAAAAAAAAAAAAAAAAAAAAAAAAAAAAAAAAAAAAAAAAAAAAAAAAAAAAAAAAAAAAAAAAAAAAAAAAAAAAAAAAAAAAAAAAAAAAAAAAAAAAAAAAAAAAAAAAAAAAAAAAAAAAAAAAAAAAAAAAAAAAAAAAAAAAAAAAAAAAAAAAAAAAAAAAAAAAAAAAAAAAAAAAAAAAAAAAAAAAAAAAAAAAAAAAAAAAAAAAPFD/A9PKo1X6+9giAAAAAElFTkSuQmCC;clipPath=inset(38.67% 3% 41.33% 2.67%);fillColor=#09555B;strokeColor=#BAC8D3;fontColor=#EEEEEE;" vertex="1" parent="1">
          <mxGeometry x="125" y="260" width="505" height="107.07" as="geometry" />
        </mxCell>
        <mxCell id="x2NzetM9BmsE3J9apZ8J-2" value="" style="shape=image;verticalLabelPosition=bottom;labelBackgroundColor=none;verticalAlign=top;aspect=fixed;imageAspect=0;image=data:image/png,iVBORw0KGgoAAAANSUhEUgAAB9AAAAfQCAMAAACt5jRLAAACT1BMVEVNTU1PT0/U1dVLS0vU1dVPT09QSUPS0tNOTk5RT1HLzMxQUFDFxsZXV1dRUVG8vL3e3+BZWVnFxseMjIxvb29RUVFkZGRcWFTq6+yVlZXQ0dNPT0/g4uNra2tYWFiKiorP0dJPT09OTk7r7O1ycnJTU1PU1tdLS0usra3h4uNYWFja3N3R09RJSUnMzs/i4+RLTEujpKRGRkaBgoJ1dXXk5ebMztBCQkJubW7Nzs9lZWbl5ufLzM3X2Nnv6ubs5/N7g4BeW1RiskF1n0EFmTFJVU14vUB5uUERdrpVXUtTVkz+/v72///49fHz9PTv8PHw7Onh6e7l5ufc5u3l4t/k4d7T4Orb3N3S1NXC1uXNz9Cwy+DExMSlwtusv8CbwNu3t7iutLeurq6Lt9Z9r9Odnp59vkBtps+Nsjt0oMtvu0CUlZZin8uEqDdtsEJftUGKiotoqUJTmchUsEJSsEJ7nDJPr0JNlcd7mD5MrkJ7hotbi8CAgYJqlEQbmuxyki1CjMJIicByjjg4p0NXlkRAokJgkUFuen9rfmkUket1dnZgikZtgj5Yi0UQjfNzc3Rzc3M8gLsyhL0ai9Eon0Ijn0Q6kkRef0YRhd8GgvtqamtkdEVTeUg7b7APmEVpZV4cerlfZmEAnzEKmTErb7IAmzcOkjQAlz0ClEISi0MZiD9bZUZVZVFQaEwYbbIme0JAaF4efz8Rb7NXXklZWVovcURVWVoObLIodERVWE04aEYFbLNSV0sBbLMBa7M/XUhPT1FHVEpAQEA2NjUtLS295YJcAAAAS3RSTlMABAgNERkbICUqLjU7O0lKTVFaXF5fZGdrb3N2fICAgo2Nj5qbnqGnq62ytLS9w8bHyM/U1t3e3+Tr7vP29/j5+/z9/f39/v7+/v5+okEOAADUNElEQVR42uzdzYpcV7Yo6lPGIBCGEm4Zo4bBYBBl7JYMRj7nvkGsPHOfxVoE2TCGau3OfoD9BLtVbXcu5x3uA1zOfbGLlBmx5s+YKyJSsp2x4vucljIjM1UuKZUjxpzj57/9NwAAAAAAAAAAAAAAAAAAAAAAAAAAAAAAAAAAAAAAAAAAAAAAAAAAAAAAAAAAAAAAAAAAAAAAAAAAAAAAAAAAAAAAAAAAAAAAAAAAAAAAAAAAAAAAAAAAAAAAAAAAAAAAAAAAAAAAAAAAAAAAAAAAAAAAAAAAAAAAAAAAAAAAAAAAAAAAAAAAAAAAAAAAAAAAAAAAAAAAAAAAAAAAAAAAAAAAAAAAAAAAAAAAAAAAAAAAAAAAAAAAAAAAAAAAAAAAAAAAAAAAAAAAAAAAAAAAAAAAAAAAAAAAAAAAAAAAAAAAAAAAAAAAAAAAAAAAAAAAAAAAAAAAAAAAAAAAAAAAAAAAAAAAAAAAAAAAAAAAAAAAAAAAAAAAAAAAAAAAAAAAAAAAAAAAAAAAAAAAAAAAAAAAAAAAAAAAAAAAAAAAAAAAAAAAAAAAAAAAAAAAAAAAAAAAAAAAAAAAAAAAAAAAAAAAAAAAAAAAAAAAAAAAAAAAAAAAAAAAAAAAAAAAAAAAAAAAAAAAAAAAAAAAAAAAAAAAAAAAAAAAAAAAAAAAAAAAAAAAAAAAAAAAAAAAAAAAAAAAAAAAAAAAAAAAAAAAAAAAAAAAAAAAAAAAAAAAAAAAAAAAAAAAAAAAAAAAAAAAAAAAAAAAAAAAAAAAAAAAAAAAAAAAAAAAAAAAAAAAAAAAAAAAAAAAAAAAAAAAAAAAAAAAAAAAAAAAAAAAAAAAAAAAAAAAAAAAAAAAAAAAAAAAAAAAAAAAAAAAAAAAAAAAAAAAAAAAAAAAAAAAAAAAAAAAAAAAAAAAAAAAAAAAAAAAAAAAAAAAAAAAAAAAAAAAAAAAAAAAAAAAAAAAAAAAAAAAAAAAAAAAAAAAAAAAAAAAAAAAAAAAAAAAAAAAAAAAAAAAAAAAAAAAAAAAAAAAAAAAAAAAAAAAAAAAAAAAAAAAAAAAAAAAAAAAAAAAAAAAAAAAAAAAAAAAAAAAAAAAAAAAAAAAAAAAAAAAAAAAAAAAAAAAAAAAAAAAAAAAAAAAAAAAAAAAAAAAAAAAAAAAAAAAAAAAAAAAAAAAAAAAAAAAAAAAAAAAAAAAAAAAAAAAAAAAAAAAAAAAAAAAAAAAAAAAAAAAAAAAAAAAAAAAAAAAAAAAAAAAAAAAAAAAAAAAAAAAAAAAAAAAAAAAAAAAAAAAAAAAAAAAAAAAAAAAAAAAAAAAAAAAAAAAAAAAAAAAAAAAAAAAAAAAAAAAAAAAAAAAAAAAAAAAAAAAAAAAAAAAAAAAAAAAAAAAAAAAAAAAAAAAAAAAAAAAAAAAAAAAAAAAAAAAAAAAAAAAAAAAAAAAAAAAAAAAAAAAAAAAAAAAAAAAAAAAAAAAAAAAAAAAAAAAAAAAAAAAAAAAAAAAAAAAAAAAAAAAAAAAAAAAAAAAAAAAAAAAAAAAAAAAAAAAAAAAAAAAAAAAAAAAAAAAAAAAAAAAAAAAAAAAAAAAAAAAAAAAAAAAAAAAAAAAAAAAAAAAAAAAAAAAAAAAAAAAAAAAAAAAAAAAAAAAAAAAAAAAAAAAAAAAAAAAAAAAAAAAAAAAAAAAAAAAAAAAAAAAAAAAAAAAAAAAAAAAAAAAAAAAAAAAAAAAAAAAAAAAAAAAAAAAAAAAAAAAAAAAAAAAAAAAAAAAAAAAAAAAAAAAAAAAAAAAAAAAAAAAAAAAAAAAAAAAAAAAAAAAAAAAAAAAAAAAAAAAAAAAAAAAAAAAAAAAAAAAAAAAAAAAAAAAAAAAAAAAAAAAAAAAAAAAAAAAAAAAAAAAAAAAAAAAAAAAAAAAAAAAAAAAAAAAAAAAAAAAAAAAAAAAAAAAAAAAAAAAAAAAAAAAAAAAAAAAAAAAAAAAAAAAAAAAAAAAAAAAAAAAAAAAAAAAAAAAAAAAAAAAAAAAAAAAAAAAAAAAAAAAAAAAAAAAAAAAAAAAAAAAAAAAAAAAAAAAAAAAAAAAAAAAAAAAAAAAAAAAAAAAAAAAAAAAAAAAAAAAAAAAAAAAAAAAAAAAAAAAAAAAAAAAAAAAAAAAAAAAAAAAAAAAAAAAAAAAAAAAAAAAAAAAAAAAAAAAAAAAAAAAAD6Nz1++evX69bffvXnz5h//+Mf7fx9+evOP5c3itejNEw/Dtfj++EPz8Pflq99X7zu+PPz0+MPDK98f3/t98aHflz/X/xxe+f79L1C8PPyQvYeP9d13333zzddffvHyM1GBq4zlr16/efvu3bspTWOa0pTe/zg+/PT+kccHjz+k6X8dXp0efvxf6fC54/LY8aE0Pf4Sj+/JPujhzTQdHj2+6/jmh9enw0c8/PvBOB0fyx5ls+ZTr2ZvH3+cp+Xf5ZXH98zFq/2X5q0PP3b/maf+e6IH5+V90c8PHzLnr9yWffbTft7vP/xw/PG99+84vL4/vLa8+QS//Pdffvn5p+++/kJU52p89uKL97H8Iaym/KdjwE5T9mAWhI8f9hCrH4Nu9SmPL8efxyVwZ8E4HYLz4bOyzyhC+5R94vGdxzeOH3H89fJAf/j12FR4n8sfsnfO4SfMVQRvHmgCdxnSm1hd/jSvRvLwkYfP7byr/t9ZXo7xfdp0oN8fw/khpC9vHoP3wz8fF8D73kf1ly/EdZ63v7149frNj+/K3Pvhn5SF65QF78NrY/EMIIvESxQ+vpHqt46fNJUPLwE7C+VL2B47AXk9NU+y942l53P1eh2tp/qVInbPYQR//NAg0M/1D2V+HoX2cyL7kpsfHyjfuWTnc5XEHx9cwvi01ex9v0Tx/b7M1T/E8Q8vf1QcL4P6D999/cXnggbP1YvXP777700EzwL5MVxX8T3K0avIXYT5PM4XIb0J2qnIpctwPk3Nr1VE7bOTb1n6Vcf0OT5vn4tH5/aD81hcRO0ibi/vC8Nz/WaWtj8hltc/ta/NZbCvg/ZU/bu5I/biqP0QxufldP0Q1R8P3f/o0P7Lzz98KabzDM/ZX71+2yTi7QPLCXieeJd5dxXVPzw81jl2+0uVmfvDmXn+UVPxP3v8RcvMPPUD9iiyX/MNefz4XAfxlehehvTssH0uw3AV/qscfnlXFfcfYv4cn8KfH+PbN6t3TPk9+jFTL16vY/m0+bv2IkvfLzH+z8jVf/nh6y+cvvOcDtq/+u7tu3FKT/qnzMOLY/aUZdqpPWivs/Xycr1MvvNz9zopH8s4XwTm8XTUTqL5lUb7OYz985J+lx/WXpgXAToP2nNZIVen3kVs70bxj/mne91eHsq3pXHT3BzLb7w6br/cqj9k5Y8/HYvj9n9CTP9Gos4zCeev3rx7Vyfl7TF7caLeuU+vP6ZIuYsT9yCWB+n4Uhc3VqE9nYjFWS38xZFaZL+CHD0sdpvri/MmXk/RyXsRsaewmr2M4+2x+hJ2o+P4C6P4HGTo9fV6XSDX5ObTlgP44cf6PP5QMVcE9P1y/v4HRvdffvrmpWDCX37U/tWPY/9OPHu4rW9fD/X5YXtx+z4VaXt0jD+WVXRTfafePD2oqubCmDwK2ZuN+HNc6l7XvIchfS6eB8xBfdzc3KgHaXmYpYdhu39pPs1NDdwS35usvKhtn5t6uDn/qE2fsx9P2+e2rv3PKI5bfP/qxd/EFP7C5Pzbt/Fdefd8/Yx3Bw1vY4oP5VNw4F60qhWtbUUkTtGJeaqjdopCuHi+tSS9Ct/h58/Tie60Ms2fo/q2oiGtzdHnsyL6qSP2uX/YXt6dR/VyZTCfNhzI91XN+7H0faXjfP7jj96l6fxl4fyhQe0hmD++dvbN+cqD5WtTlTgX1+TBHXqKonFqf41U/8JL8Vtq79IdsG/piP3k6032Pk/FlfpcTpipc+6wNb29Qa/D98dep3dienMe34b4ObxL334J3CGi74sL9WOBexjA5z+27P27F0ILf340//zVm/H8zHwlrjf5dh2sy9L3elpMmKIHpXFlpXtZApfivD31Y/apcC/MP+so33mg6iOPW9rmtm99rrva5ihJL34o0/DpnLT87Ghepd/BAf2SkN9U/duJETP5YJl5X0+I+9NO33/5Rnc6f7IXXx2y86dH8alTBhf0uEXdblOn0n0MgnldNN+k6MsYuPLSfMw/blTRfotPAeaqCz2YADeVfWlzJ6hP3YgevnHyCv1EhG9v0csi97xxLT9gn25oLmxVHLek7EU6/udepe9//v5LbWz8eT5//fZjonk/TT91/F72mLfjZYoquHb0TFP0FpXApZVkW8vado/i585Je9FA3ob0utotPF7vDHTNi9sviOnzmefvwaSZctT7dM5l+XQbmfrx/nzOytyXXP1PDum//CSk82cVtr9+OxaFcP0etFN5ejvZva1sK87WyzGvvfEyqRPSwwP6LKUvWtPL0vbkUH2DIb0M052WtU5te30iH61e6Z26Vx8Q7WY5EdWr8/NmTHtV+B4Nhi3K4aLBr1sO6vugc22/jG+f8y0t+/kvCOn7H75U8s4fH85fffs+nEf9aQ/h9ymn70HmHryjvEYPOtXrwe9TeJc+hUf3edI+BpftZ9+ec9Vxvrt9bZ7aBLxdwFaVxDUn7GG8vvgw/dQxe33i3nmzCetlJ9uWS9w7F+nHdWvznx6/o5Cu5J0/2Bf/eBf0qaWy77zTxhYE6/4k99TcnveuzYs1K+nhtTStFMllmffYHMCn7lH82cXuwv2zPmafT5S1l0NiTvSyBTl3dUU+dQ7Un3xB3u1Wq2/Gm9kx4dC4Tho+3cjR+6HS/VD1lt2gB3Xu85/bn67knT/06vzVm3oO3InR7XHYTmtJeTMMtj2Cb0/ax2JI3NRJzpvxcE1fXPcCfTyrlF0ov8pr9GauzBzsZuntSG0jeDBWbq7a3qIz9bJsbv2fcwa9rq9cjca8L03qt3CDvg9WtszFOLj5r7tDX+rjvnmp5J0/prD9fXYe5uVPrYurlpWndv56tTg1GNGeN7VlO1nGKdjbEhe4p3B4e4o62ZLYvfVw362Nq7ak53tZ8oAdnK23F+hNql5Nl/kE09vLMvaob60ZFZe9Pt1SW3q7f+05HLgfQ/p36uP49Hfnr9++exzYthLLz0zZo8P3VMft+gi+PIEfs+cCY3XI3i2MG+t6uO4NefVheSFeN5qL8deUnc/njZBrYn1T916vXOtsTw0i+vrc1zNvzHtDYOcT6Xt0Dr+tyL0/9/37fE7cYZPqX5uYlyH9hy8FID5pYftXRWF7dm5+0Wn72nS4qWhAr47b1zaydJeuFJ8wLsl3NVAuHVvOU+9GvErgk2C+nTP3ssC9yc/n9gPmaDF6OL293qsWnLJPU/s558b1cMDrFF6rT8Epe37APsVz26cbyMeLorglpD8vP3z5uTSdTxTOv3j9dkyfZCpcCgvj4t7zvGltJaSnqp8trYyLa1rXo6r1dOqKPAnkm476cxP853olW3kfPkXDZsLz9HJjenHxfvkh+3R+Y3on+M/FCPe1q/ObaEZ/LISbizv0ZxPSv1byzqfw8s27sSheb2N7P9qvr0GPKuWij5miye3hjXjTnT51bszTWnV6e21eRfmoRm4UDJ99cj5Hm9XmTvfaXDec17vSyiS+zt6rjLvasH6q3v1J89vL3LxK0edOd1se2Te7j6Vf475f2tWODWvz8uYzOnr/6RvlcXxsYfsXb9Jq1F4rjfu3cTpZFtfk13nIbEfOxPtSi1vzFJTT1VfsQWlcXfeWosx87MRuifr1nbjPYcdaO8V9ri/Sg/70+h69PD8P9rG0S1TPjd3rRXDtgJky3AfvXdmSOs2bP3IvTtrzKH8I7Q9rVf+6larllPeXDt75iHD+1Zt345TGvGitqnOfeiNmLh3+Wufsqa5EC4fJpHbH2lQ/T5jKBD6VTxeOTewpD9TjqRN49e5bP3Rv4nxdyD5X2XaTps/RI1UBfLyxpY3yHzdrpgr43aXo5Tn8ze1qKTeyzHO1peU5ZOnf/V2azhPvzh8XsJRTXg9vX9h9vhrRg3P2Y0zupejBhLhmB1s9QaZOxFN8QV4PfTc0Zstn8CthvL46n+v29CpXr+7Me+3m09SZGTevRPS1decrl+jtCNgstD/+G+Xl0y2ct+cJ+b6c/1oNmfnrs/Ol5P2V0MSTCtvPuSTPl6GfWw7X1sCl9gy+zNM7R+5BU9tUHeWnY/16qjvRjqXtqY36KQrkvXAuzF/l2fvcr32f2nhf7VYLR7dHQ1/DuTHNWfxFUb23VC0/Ro/Gttcf3e1Jv52FLMtmluUm/XjYPs/PJ5Dn9XGvPjflnYvC+cv3he1prC/J64Q8HdPoC7PyuOh9mvoRvK2LbwvZ09QuQM+nyMWL04vmtX5Buzh+A3Vyc5h5T71nAPPU5tzNjfrcif/z2sNZOJ+fsDF1/Wa9XocerGep39r8Rfr+0L2WT4d7fv1rD3fpP3xtcQuXFLa/jWazl0NlzpsXd+6Q2JVJsJ0L9zHqQktld/rY5uTh3rU8Rlen9OnSEa/C/LMP43OUrPcnzVSrUeuetTnYmBq2pYcPrV+Qn3uBPs9rfelzcKnefc9NLUTfZwPdH1vQl4j+bIrhovWqSt45sxLu5bcPqXl1W96Pxiev0VcWrTUH5Me4XF+LlzE3hY3mbfVctX0t1ctewrXpF8Rk4XtjBfBhdXtRlj51h7+1Je2dpWudya/tKXuv9fyMKvjqOD5PzPOdqVOntH3acj5+qF7Pl6zNx82p83M8Zw+mvL9Q8s7JcP7qoe28KVePXv3oWTMpmCmTwvvyFJbGtYNmoi3oK+fnqamYS70z9ySQb7uPrd6GOpU9aVPd0NYfKtN8SLgBvRvjz9rCdrqzbaWYLutZX6rg2th/MwPcl+P2Oeg8r4e7P5dA/9M3fxfSObOwvThR752YP2HZ2ko8bwN4ME+mrKVrLs6zNL1Z8zJOwcSZqv+svYYfz4rj2tiuPqrPQZwv57oVhe9xdVzYoRbenNfj4abLYnpnR+rqzPa8Kq6tmIvazze7eC1fs3YY5H4Y517eoT/PwrjHLP37v7tLpxfNP18K24s2teXuPJ2Vlp+M3cXrU1UBH2xJa2J5dVyf5eT5x4/hppVjwB3rLrZelE4C9aby8O5Jez5Ypq2Bm4sPqDPvuddzXp7YT3HBe3mifuYytWJce3ubPndmvGcn7VO7YW1qd6hOG87Nj3Nlylw9L4ib88j+7KL6D18oeSeshHv940NR+5jyGXDRlXlQ616n22uJ+Op0mU5Er1+rku+6xC1NzbrUfNtaMLz9mIyP/VvyVF3js5HQPk/RSLi4X61doRaG8Tl6qI7o3Uv1+bw5cv1l51O/2u3wseVN+q10n3ej+/HM/XitfuhGf9ZX6ftfvv/6hehFHc6/ffsQhsep06a20r12Rl3cWsCfgo70aIFqL4a3VevNa8HRenvuXnxIMPN97F6lJxn8lqL+HAyeKWfPnDhnP1UG121Rm05G8Ms62ILz+TyNbwvkprJpbdpqip51oe/npURun41138/XEM8/lLwL6RSH7S++/XB1PrZNanX92zLC/Yl35nEhXLsMvQrv5b7UqT2ID7P0TojP9qhnTwrG/Px97Ax9FbY3kp7PZ3zCXIX4MtifCOOnusw7pfBnxOz1g/j59ByaaoVqGde3eXO+77153J96OF5fbtKfactaeJmuMZ28sH16PGlPQdN5fLr+xCr33jb0h5/HunetqXBrN53HO1WXCrg8fW4T6hMTZNLJhWxsIKrPneP3qk1tKu+5ozXm06kcvWpkixeuzp9uA9tcTo+rp8RVJXDTXA6a2/AZ+/6Yn1d7Wo59a88/Ny9K3r9Q8s5S2F6Utq+Vs5cp+6U9aZ3K9jQ1gbo5gS/v0adTIb26P4961dvz+mqdWupVxInnG7lELyN3eZfejG+f45b1oDmtDu7V1tXgCP7saH5q83lVLHcyr5+b8XE3M/91f5wRN+/zkTLz/goj+v7n74X0W/e3z1+9LVLxsZkAF1x750ta2hB/SUwPi+3qabDRtfnYydLT1EyUKUJyG9nL8rZyxfp4ukmNa66HCwbANZn7HB64Fw+VNe1Vjl48VWgmxMWp/KloPjd17vV7s2r2KcjMm2kzVZ37tOmYvu/n7Pu6DX3eX1F0//6Lz5y833A4f1/YPuYH7PV412iCzJM7zsNXwpg/RStdgmK4MRz3XvWhpao1rZ0jV+5mSevhWyzfdsn73MyIq6N4We/eq2mfm487OTQuyNDP289y3u7U5ilBu031Rivd91mtezlKZt7vrypb/+X7L9XH3aoX3759v+38mJXnUXrshe1To+JONqhHkb6I5v9WX66X5Wvh/Lj3l+/V5Ndm/2mv8j11gnZ8ux6Om2ET8bxb/RZ8Zp2eh6fs1bL0YIv6VFykX3aPHnSsxbPi5rk3iqbI0acswG9qG/q+e42+zyvdDxvWlg62dmjcFYT0H7425f02C9v/+zEmV8G63nje71+bxo8c9Rq2qE/1oJne/rX2JD2Vj4TZeB6pqzFw2UV6iuP7Gsn7NUXy+pV203kztn2lO32uN6HnkT7O0KO77yiin7uf5cRY92kOh8jVYT2e7L7hJWv7wzr0fR7QH8N7G82vILr//PXnLtNvrbD9fZ9aPjkmlY1p7VCZeqLMJxre3gybKY/d68v3qZkKV8f4ziTYpkCuDMQp61qbpk7v+hS/TzDfZrHcPAUFcXNzLN/dij4XSXk1H667kiWO4JdVwJ86hS9G0ORhe7qFpanhSJlD8J6X/SxXmJ4reb9Nr358Oy6lb0VuXr3du0qPy9uaG/ZO5A7O2qMBsXnfeT1RplMO1/2wOuiPU3e3Wooj+Vk36Ulwf/aBew7a1NY+IJzyNlVpeHCl3nS35V1uU70/7YztK5cF8GJy+9Q0sBUF7sU9+tZnygTbU48n7MfT9+sM5FlI/+4Lce5WsvP30bwI3x+uzMepN0embkk/kaafLmpfuUOPov64GsmDhL44fK/y9nHKV6oHsXiso3aK5r9P/Rnw4vl1puXd8/YmRY9GuFc38NWk2O6AuBNp9xM70Mu4vnJ53hy1l4vQpxvIz/PT9yxLv970PCt5F+02X9j+4qsf3431WfrYrF+pongVuv9tjKvdz1yqluJdLZ0BcaktTE/9I/dUFbanx+cDUY1bqtvT0kpITm2YZzMxfV7L5+NMfbXmvUzGm5P5ei78PE2XX5r39qSufPSc5+1zWQR31tX5tMVIfqyO61+VX2Vk/+U7Je9bL2x//fZdnoR34nfVbZ5WjtdPLVE9GdzjsXFFzI5r26ep6Wird7PVd+1lHE9FZp7Oyq8NmNlifj6fbFRvBr62M9+qn/vDYqIquk8xFi6eIFM9OBXF7MVQuLVNbBtNzvf5K1m1+7x0rs3z1fWuFSXvsvQNF7a/fmxHO1awV03o1XF7dyv65fPa24+oI/oUrkCNZ8qlOr0uD96bgXHxVLgw2069VStJCN9IGJ/beB0ds8/1zJk8IAdDaZr6uKn84fTKls55+wVpeFW8HgyCPa5Zy9ekNrPbb6Esbl8k6MsM9zkrcS/D+VX6+WvrVbda2P5QCZequvbqajyL5WMYxC9bhb720ePaSNhUzngN57WnfDFqUBRXZuRjU9fW3LMX5+pjHb7HcyriuO6IP4cT3sOEfo6mz8zdTvRgpPt06to8CuXrkTxLzdc2qJfT4+rs/KbK3PfVK8dVLdl1+hXH9V9++vqlNH1z2fmrN2/HIppPYTifmlGu7ceHn9kveju/jW2KR7fXK9HbN7LYXxzXp2M9XbYLPZgGe/iA8fQNuri92Va1uek87/Sel4Vvc/2+tWlxcZ9a0KV+Rs37yWv1ep7MHLekz82g13KF+tbz9GPX+X6ZNnMI4Xk3+vWm6j9991II3FY4/zEtBXDHoD5Wx+tNA1sV4c9OzM+cJbMy/7XtVq/vwoMpM8Hg19Q7L0/dNrNqrJzOtI3E60463vu8uVjYMgUVbsHIuCa/rw7vmyr5lQv08/vY2tK3qbNlbaqjexXp643om13Vsm8S9Hkuh70ekvT56qvdH0reZenbqYT76h8PwTufAleWwtWt5/0x7s3alicMhctS8jhyt5Nmgvc0b9XT4OOJr6kaI9eZNDPVU+jynjVzX7cZ/8u0e25r5uamtn1utqNPVcIdRO4ooq9F90ur5OJaubZjbQ4O2qetz4oLB8E+rkJfrsyLlHy+/oC+//m7L42E3UZh+/s+teO+8ylbq1ak6Pm5emd83Nkz28/54Hjqa4q62IIRMvWs2Hose2rvzlO0Dn3K58WvpfJBEJelbyCFn1cL3eeqp3zqHcnPceY+h+9sQvul7WrnzH2d4lmvzWaWqWo9n6vD9k3G833nNn2phdtACG9C+g9C+tW3nX/++t2SnAdL1aL5rlVN+1QWxk/VMrbgan1ld+rKHPc24U7RA9kMmWrQa5raLDzf8FK3o6eouj04Wk9lWZw4vsVCuPrIvdqOHm05rw/Tp6APPUy+27C9XuD+UY1rzYLV6ip9zk7fg5x8m7Pc9/uqBf0xlM95y1q5FT2M8NcW9n/60nrVa746/+L1uzHfc/6QqE/RfNeqCb1oVj90nKePydJPHrtXEf3wjjHenFp9VpGEj9FO9BTef6c2K09LMp6iAng2m7HPTbZeP9K8a27T+HDtWlsLN02nitxPxPSVQvdT72q2sd3c6tR9vTn18cx934yX2Va2/sPXL4X06y1s79WyVyftbfl6NM39ZAncxXH+ZOP6ao17mqbODNjgucE0BWtTo7P3lbUsZ5TDCfvXFMHnqIRubiP8tDLOtap4ayfDxttXejXvZ6Xg6zPcV/vW2+y8XNRSRflps5G8d5PerEHf2OH7Lz99I6RfYzh/+WMRrKPQvqxCbw7eT7Wbr12qn5GVt/G8PnVv6tubo/Wp3c4WLGIZ68idmty72Lc2ZrF97MR0YXs7Fe/zGW/N1Q61pve8CPzNbpaViH5878fPcg+7zaOr9Ka2fTojQ5+2FMDzI/f9cR/LYaBMdv6eH7pvKK7/8t0LIf3KKuFe/eNDFVx0YR7tWImXpTZz43qx/v1s93Oy896s1yohn6Z4Q3p9cz5OzdCZoK+t6UDr5eDRLLh0RhouvG+pyL1zED83zef5trT6tD0sYq/3o0/dmvePGAZ7KsgX9+jF1NdyheqNnbxnh+3zcpW+wcq4D+5/+e7v6uOuq7C9id5j9/S9mexeJeorPWxh8r5+vn5inns3k5/Cgrn+BrZgJ/pYHb2PUzsY9nSQFr+vP2yfzNnrNrYqAS+r5Iud59Gy1LnTvRaMeb9oC3pv3/mZA2Lb/Lye314Uuk8bi+L7suJ9OW+fy2nuG1i8puT9mg/bX797nB8znXqpBsFNvTUtKbwk//iauHz32jSFCfs0tQ3rzWyZaLbc1DS3jcHMmfJ/ZAyr35rEn2s9bZ9XOtfm9U+bo6FwZQ1c1KRWz52Zw3i/Pt29P8Z1bbFac7heV8SVTWtT9dO01Uv0x9x72cyyX4a5L5Xux9mvVTjfUFz/6e8O3q+hsP1tE8zH48/d2H6cFdcc0q8G73My87Pmw7XBfAq616a1HvUgqqeVk/TU1rk3k9xz3cnubCzez3URe5CcVyPfqnP3uQ70cSdatyKuPM5/SuNafAIfr2yZghUt+Ra2mzh0P25l2efJ+gZT86rkXch89oXtY77XvK5XH9dz9mnlDH11MWq95bz4mCCGdw/hq0GvqVmEXm0+jevbyzlxqax9S+0Q9zbsj1UrW//QXcp+VT1p5wyFnYNz+XBzWtugVvekV/fjnTr3tZq4yy7R62P3ekzcVDelT038njpH7lsudK+mvD6Wx+23MvhVyftVevnj4zy4pR0tXsXSKXwPWtODmD5FH/nx/ejRwNcsoo/RHpde11oQ1qsmtjHvZm9z9Xx6XAqit3nuGwv1bbRvTs6LivcpnPAa9aIFbzYBeOrG8ieUx62MjAsmxdUlcdtfxrKvBsYdJ8tkc2Xm4zCZDefnh5J361WfaWH7m3fj8eD8ENfHJoqn1E6Eq67Up2baTDU9rn/4/rRz93Ag+1Q3q5WJdrcabmoWo4fH76tT4oLj9hMVcqL7FvrZon3pU1PDPteTYvND9+h+fW7GwkZjZIrz+k9T6j6H4Ty4Y8+z8fL+/JymtqvNzY9hfV8sXztG+M1Mcl+tj/tGyfuz8/mHie1Vc9oxIBcTZNo8PVuB3kb0YHTcZePbT9e2B+881Kd1p8ikqTNYptqPWm89H4s8O3XL35oiOhF7m+E7bl2Lps40WXy52rxZdN6+BMvOp5U2tTBhvySi99aqFitWi1a2LW9lWR8os8TtOetGXx38up2Q/v2XdrE9t8L2LITnd+cr5+nTYzdbeabevDWVTxMuS8lT7+L8zMVsvSw82LSWx/gxvx4vcvLUvn1q//mkhW1DUXzlQ+Jy97YoLgrmUVrefmBT0t45bz85Webs2rj65jxeqhqtQp82ffCevfJ4W37sPV8eyQretx7Ulbw/o5lwr9+m6kQ9nAs3Bcfvvcv0pg6unUNz6erUtXHuqVimkrqn7o//Ic3R+zStx/1jkC9/7s5/DRP3Sw7YRfrnHeDnIGTPp58FzFM5H24Oe9fqavdOEt+E9jnsXpufnpaHy9Kn5ia9TNPbtWsbj+37Za7MY54+F2n5fAPx/H3J+5dK3p+DL759W6xGHbNj9uq+vLeUZUr1lJjleH6K58etnrJfHNFPTZQLJsX0lqKfzOajqDsefs2xqXcXmW8r2s+djvI2yrfdbXNZK1cUxq8Utkfx+2REP+P+vIrbUzkUbur1rU3brnHfN28d7833+2M/+vHAvZnlvuUutm9eiKd/dWH7P/JT86UiLk/Tx3pGTLA+NdjMstbQtn7wvrbJZepNfZ2aqexT1YoeV9HVh+fVKNi6Uj3Vx+xR3B6nalnbJ4nrnhs811P3ubcPval2z6viiza1autam3oXx+vnbmWZLp8mc2LSTL4+NQjX06YT8n0Q1LO+83IEbFnnPt9Ajr7f/yKk/6WVcK/evDvG8uPUmLFJyQ9hfkrtDvNsg0tqj9mDdedxML/gWny1/zzcjd6Wt6VecXvzce0StdRE8c4e9G5CnwTua783X/3MOr8O79SL0/dwMHtTGN+Wx63Pl7kkroezX7tta81+tbBx7Qaq4vb7/EJ9nw+Nm5dla/PNhPT7n7/5Qsn7XxTOv/rx3UOUrobCNRPi6u60lIIMvaqhS0XPWlMPn/Wen1vtnrrzZYLS9RS8VcT7bjCfVt6XmpjeuSxfj+zi9pZC/zxNzel4c6jeVKu3B+318fzc2Yg+x1l6k82fH857D4e17uW8uKk4V5/mGypuX07a56UCbg4O128jOf8Qzj+UvH/3peD6F5TCffVurKvZ0yG+Fw1qY3PSPgZz2duW9LZVLVXt6NOppelrqXpny8ra7XuwKTX1LtTbM/joUH4s17HGm9RSFMRTEPaF+ytK20+8PVdlcN1D+rkT2OeViD51G807gfmSg/klRkcn8cddrdUdeyea30J032fzZR7vzB872ba3Df3M+XFK3v/swvav3hYT2rPAXR+Qx0Xvx9q5pj29jdW9d13SjB52sK1Od0/d+/Px5Hl7dFAf1ro1Gf3S61YNiRtF6tvqZGtmudc36VViPkXtaM0smrneih4fuD/pJr1X1N4eukeN6HlIn+o3Nn6lfhjhnofw/Kcbiur3DyH9hy+tTP/T/O1Q2J7KWXCHH8Z6V1q8aW25cZ/qX6Q3ZyZocuvOhD15cz6m+kQ9NcNa29a2dGpbaqpT8KkokAtifJo6+1lSJynvhXax/qrP3ee15WxzOxE+nNEexvbeRrXLT9fXEvlgPFz5YFHOXpS9tyXt279Ir1ehH6fDLUfs8y1Mlelk6T98rT7uz/Hiw4jXx7FwY56HF/1n8f35FK08D0vlptTtVMtK5p6wRbV+ZZyqrSyHd479brQmhjdX5/ml+TINPkzRH7rV8m3p1U176h6tC+FXm5bPwaC4OWpImzsFc3P4awXz35rT93ja+2WlcP2cvNitVp+5z82PU91vPt3Agfu+mhF3zNP3hxP3eb6dS/T7+LFfvlEe9ycUtn/7blwq1/O9p1XyPJ63DD3K4tsT8TSFs96zuHzBafy0fr1eRvn4tj3ft7Iy0L0pckv58Xlzx74y5lXkvp2r9bkK93O4UTUcEbcy77U5sQ/Wo39s41pcGNdd2TK1eXo8S2bzC1vmfGdqNgL2eJl+Y+4PJe8vjYT9Ywvb37wby5Exh9R8bIa/hcfsY284XKpL5JqNa72pr+NT1qpFyXovcKdqkFyzbyVFHxfdrE/hYJoqXT8nltuFvsHAXgXuaZo6c+CqZehzfQh/TkSP58msLEQ9Wda+Mh2uvU2vJrhP+dzXOoRvvTBuX891P86U4afv/i6k/2G+evtuLALu4d+xaEFbierF9JgmQFcZeLNzbX0mXPE/cX6EjyvY2zL3tTy9sxU9LftV6oa11KlkH+Md6Olpi9Xk9c89K5/j1StznYkHQ2PnYOBMOOG9KXuf202rc3+o+0cOf80P34tj+mKuexC1Nx/Hs7L2vDTuuAt9ZS/LfCtJ+vvL9C9E3j+iEu7FV2/Hpot8TE2XWnbkPgYpettn1i5kWTrblur0JpBftGMlfqgf2VOn/q1abR6Ww0W1alUsXz5srE7jj2E9W/PCrcT4OSprX+1YKy/NT29hqd9xiL7BCtVPcebeTe3L3Hwqytmn22hF33dmyD1Uus+3Vt4ehvP7xynvLtM/dTh/+e2PKaViSntTxn7cgj6tp+hT2e8WbURvf45CeTe6n1sPt9KkFqxMz943rU6IKyfStHE86m1bwvfYJtjpnAw8yc2v7768TsvDW/Mp7jI764h9DlvT5+b6vBfFPyKuN6Piim2pVS968ehN9KPXAb2pc6/60G/3CP5eyfunLmz/drk6r5el5Vl5Slna3q2E+3BG34Tszi70uB+912ee1ofHpXyeSx6xqwCeqgr1eF9qcY/eK41rq9ZTeA1+Tjg+na2L49dd+h52qNUBvgjObVn7dG5En4oc/UmZ+Zld6Svd6OGt+S2MjNsvMf1wvn6YFXdYqnrTOfpy6P7h55++0Zf+CQvbs3BcnLuXIX2sTs+zavdePl03twVX5GEWfmLE6znLVMe8U60dB1e1saVgPuzh57EX0vNm9LoR7XFfetRmXi1wCSfFNQvWucIiuDZwl0G+GvRafkx+UN5L1MuEvc3Pi6vzoFLu42rcT1XOVcVw/QB/A0fv+d612x0StxLdf/5ayfsnCedv3o5Z7p2PhGlCertFrTNOpm5Wm4ID/E4yni6bD3duW/pYHbb357xW9W55kB87Z+9xV1qq29lWg3M5Ki5FmbnYfr3hfQ7q4uY40GdRfm4b07trV8o3ygv2TuPaUyri2tK4ahRslqC39+jtqpb5dgL7/nDqfjx4v62N6Kcu05W8f/zd+au37x4jd9lwVt6mV2Nel0Bfna23h+xlWXz+LKA+eG9T9pVB7tMFde6pu3CtW/SWpnhFehj/o8P5oIyurYafepk5Wzlsn6OT97mqZW8uy6OetvDqvDtgZo4nx8XH7pfH8rX1a0Xj+TSFx+vd2TLTlm7Ol5z8uPj8UOF+bD8vd6fOW65yvz/j/b98r+T9Iya2v/jqx1TOiUnLyNfy5nxsJramunC9swm9zL3rJerH6D5deOh+svi9OV+PFq617w33ozaL2+L+83h6THfAa4q71oT2DRW1x3fqzWrUbiF8PXIm3syycq4er08to/X0pKieR+6pqGsv17PMxTzYsCBu2vBR+3GJ6nFA3BK157pPbb7lu/T3r93vv//7527Tn+Tl6x9TOS8mP1pfovbYNpiPxbLz/Bb98V1Nk1sR18PK+GBU+zkdbHkE761jqbLx1E6Aa3ao1eG9SrNTu5K1Hv9at60V5+pFX1tbLyeUb7Uubl6L/UFy3qbjvRa13mS4tST8RL59YblctBm9rWuvJsVtchDsPjhuPzak7/PDdh5D+lIhp+T9qYXt+TrUsky9qpCrPmZssvIgfw+HwAVT3ae2tj2L+53s/Glz49LU37EefNI0RSF8uU2PVqVXB/FjeKd+dm+alP2K4/d8Knkvd6UH5+VNAl/k450H2gP2ODF/WlV7M+O9PXKvS9+jHD00zdsM6PtjmXv+1r7Yozrf9N15/eovP32tMf2ySriXj+E8VTtOswP36JA9Hws7FkvU+hNf64a0ZkXL6ln7k6vhylEyTSg/LkYrO9CLE/nyXH0Mtp7XF+1FEVxVNZd66Xhb9pYE8euO5nNwwh483mTmc7MOtW1Fn+IBMtVAuc7NeS+Sf4Li9mps+1Qdvc+dSe6bLo47LGbZl/Xu+30+xH2+wTy8juz3eYR///KTkvcL7s5fvXlcjzql4Nq8XGTeDImpztTHU3vX2o8pS96nVKfjeQQ/GdK7Wfm/jSuDXVM+FCZVy9OibWu9HWyp6UQbm9r2OoSPJ8rcBfLNn70X9+dRJVw7Hi48aW9ieDDhtd7Aem4YP5WlVxvVyhXoU13PXuTo1Yj3jQf2/bzE9SUfn/c3fu5+3+Tp99lj9z9984W79PPC+dt3SzifUh7Xg3vv4sQ9P4uvp9A0g9nbRram4L07qj0cM3MqRQ8nvjbj4poaubIXfXWKexWqg0WpTalcai7LUx24z5oTJ8g/9+vxUx8718Pfugfx3fd2I3p/G9vU6VK7KD0/tZ6lM9Z9aoL6zfSf75su9MPQ17lIz9vetVtYoXpfxvN2DdvDLjYl72cUtr/6MR/RPi6T2uuJMo9342Nw8x3PdKuK3Xur1KbOfpboHr3boXZBtXuwgW2Jv9UBfW9HajxzptmLHsb7KGSn4NETreqC+eZi/xzUsEfVbtNUNKZ3BsK29XPhENiPmBbTZu3hJJn2/nye+ytatjzw9TjvddmyNmcvNq4V4f2+iOcf/v3l+y+UvK9Wwr3+MTthH49jWo+BfSxv0Etjd2lqkKXnJ+7tQXsK8vAwTBcjbZ78T7sNvYzHYy+kR4tZssA9BoVwU1vd3r47DtO60W8hss/d4rmoBb3eqdbrOg/mx8Xj4z56Dlz0w1Qcrce70OvCuGO+Pm070O/LDWxRNj7fTOBeffC++OFDjP/le4tbVgrb3+YX5uUYuDg+16vLe5XsK8taepl1k/af2rT29GL3sve8OZ+PitzD9DsL6WMV31NTE58X062l4OXDY6+RXaC/yvA9B68GVWzBnLi5OmiPtq1W89x7JXD50vOnl8PltezlL9ZuaWkvyqsM/aYGxe2PxXH7LFO/xZ2pncP11ZCu5D0+bH/5+t2Y70Nt1qpla1Kn4F69rXkvr9nrWvjDG1PzMdFetbZT7amjXi/K2Mvj8vryvAnQTVNbb4LcVJ/s15F4vKxzTRy/kjP1+USvWtyJXoTsqkltavvX5qonPQjSvR71c/e0XFYK35yzZ6ftzUb0unlt2nhmvj8cu2d35vNx29rtJuydBrbi5P3h5aevXyh5ryvhPvSplfVtRclbdcQ+ZjF7bNP345n9OAWFcW0tfNywNuXbU/t9av30/mRWHk+AS3Xd+odj+CJyl/1rQShPdZ1bEJTryXFpfbB7ms4a+s7V1cSFI+PmaM1aOy8uOkuPetvmpgquP3VmvvzkvVsQV1e21/XsUdH7dDtb0fMC9+Mc93ne9pTXs/arFe1q983MuOLlp2/UxxXh/Md3QZfaGOxGLZvSizh+GBlXJeljihrPi2lydbR+vFhfL18veteO//zbmYVw4bi4x6Py5fGxKmVrm9NSW8MWTaBrl62N5Ti4tWP0p4dwcf/ZBfi5k7B3XpujW/Q5mAXfbkyfy+Q+iPDl1JnOepanbkDv5vLNXJmmOW26qWVrWSt6sZZlvrVl6PdnvCMI6Q/j437+/qVA/rB/5fNXP5YjYbK2s6maJ3MMtuVl+ljtW+tNkXl4bKymyVXFbWdNk8uWt6zm4/3D9PLhYE1qMzsujufdaTPdWN7MaB+bJPyMeJ5E7U0k7HOdkrc1cvmJenQt3utMCzP0lYg+t6vaVgJ7G8vDNWvlyLh5DprSi2q4Mrxv91J9fxwrs7yeTYsz+zXMxqv79fus/v2X775wmf6hsP1dsRe12rdyuPWuTuPzsbBRg3n50xg1nk9FLX2aqg64qZ4TF89zv+ikfSVXT5329HYjy0qRe7BeLSybq0N6HtjHpfJtqZlLk77zzYb5+XTZ+9xsTc0/cw4i/9yuaOvcpscX6CdHvZ49F7bsU+/sQp9usCRuX810z47c91UP+rYP3+97q1hODZMrQ/29kvf/9vnrZorMMYIXx+5TNTsmrY+Hqce/Lc8OpsMTgSBKp05d+79FUTxa2nJusdzKyXu3mL2I7Wt96GUwT9UqlnxKbAqK28fuvbk4fu2p+XxJjJ87m9XmOp7PU5i0n7gon1YWp146UCbeuXYqthcf2RkCu7XlqfEV+n4+5ufZYJlOrfttXatHN+j35dSZQ0j/sF71p1sO6e8L25spMuWl+dj0rI3lIXn5DKDalD7Fk+KyIvix8yFVRB+DUTPRmPcykJ+RqoexvCpmf+xDn6L696gPfeVsPdWV7/XUmbw9fbUrLQnu2zuKn1cP5uegWm7u3p/Xk2DP2XceJe8X9p+ft1u1KZPrDJaZbqPO/SGclxNljlH7lhen7sMb82KbapGiv3/56csXtzlr5rNXS9t5HiCbRDwsay9XqT1G3LFZxDY2g12nFFyxxyG/aGIL29nOHRx3/nb03tS4ZsdKquN2c+/elNC3U+PK+BysS19f1cLNHLu3l+xzf257tEW1nQs7HYvZ24jeGQJ7YYV7PERmbpe11LNkpu2ftq8Ed+G7OmC/L7vX7vfdtz9k7j98c4uLW179o8jO68ntxdK0IraXqfcYLmppy+LjeB0F8+6l+ZSqyB5cfD917VpZj57y9vAU1LxFQXuqB703/eUpiNljWe+e1cAH02q6zwe4tvDd2Xs+R/tY5jasr01sjz6gt5elO/41a2C78AY9LGdvWtKnpeotXLcWxfRpu8H9WNx+KI4rD9tvtoetLmqv2tXuqyP3x5dffv7uxkreP3+c2J71qeX/LgfuZTHc2Jymj2tbVqZ2qEyQj0cj4OuBrmGQzhrEL4rm8U6WMFnvFMAF21mKpwNZH1qqT9N7y9bS5RE66VPbWH4+Vz/F89+qCD9HdXHFFrbsF6ur2HtRePqYua9TZx962WueDYQ9Lm0p6+U2nZ/nVe7zoVGt6j+XqIdLWu6rjvX7fJ3LseT9drL0F199yM7rg/ZiUHux+bwpXF/q3upNaamsWY+P1eMUPUzW49cuTskvnRTXGTJTJ+thl1rT2V5Okisr4Oq5c3lgH7sH7eL2hvvYqna1cMTM6a3oczuivdNsXsbhE2fnF0X4bo96sCx1PSWftnvsvj8uZzmMjTteo9/4bpb7tQq5PEGvovxDSP/5uxupj3sobD+k51EVe9VanlIzPm4qDuu7G1GnYpFLvWFtijL6KYrjvXL2C+/JU3teHk6OS3EePkWrztd62MJgncJC9mP8Tisj4oL3iexXG7mzw/E5nBU3t/Vw8YSYcI9aON51aivds9kzc6cH/aL8PFrBVrapHz+2GAGbr265jdVr+yJfLwvc98uUmfnmovp9v4etd3Fenb0/drH98OXms/TPXrx+aFMby90rUaN5vfqsydGrUrcxOFSvo2/x8vgJY7AqfT0zX4vmZ2bnZdXbVMya6U+FS1PUyxbMhsvmzk2ri9Gr1HzsncCPZ565c11V7dF75uij80ntzX17d8bM3D4dqGvg4ugcDZDpJu7NeXsU2dsT9maHahTBt52lL11rywT34yrV9SP3eePp+D6a3V5l4vdhSD+87/1I2C9fbL+wPTtLT3U8n8KpMcVS9OMJ/FjUs091sVs+NCYaPTMGx/F5k1o9V+Y4FO7xoU6ov7TAfeyfuDeL19qt572xr+W2lqlqUEtTtKElHBSXLrlB59rT9zpXn4Or9fbKvLsDfZ7CJvR6oMzH7kw93bKW341XXWtTPFFmcx1r+9VT9/l4xj5no17nKIjPt5in3+/bFrUolFfT4+5/+eHrl5vtYnv15m0RqqeqJe0Q2/Pl51l9XHnkXp7Yp2rWzNhvRK/r3aPKuWZf6rS6afX9DPfxKWvVwgazoGVtmqZgAk3VTx70pOfjZYIz8zR1EvUiMTdXZvMxfa4r3epA3p61B1F97sX16GC+HRhbH9d/1F6W9WXpx964sIetKXTfWG6+bwfEHRPzrG1tPu5cKxvTb7cc7j5K56sK9+Lg/aEx/ZtNZumff/EmFQNgxmPUrq7Lp7oAPi+cm4LZM8V49/GY349BtVs7dqY5og9O7FOVoAen+FN6SgPb9FDX95imVxPewwAerWb78AvkJXDFWrb6iUHUaL68Ok7N6fv0tBZ0cf+ac/a6Bq5tJW+y7+ZOvjcobo7a0uego+2c3D1YyBIH8XqEe3YEH4xuX2tf28gxe5237w+zX+d9uVFVXdx9tQW9bFy73wfZ+n128v7L9hrTX3z15l0QprOdK1lpe1sed4jhxdH8WA+SO6bmU7O2JSiZO9F83vScV51sZ9aun/sh/Ta1oJQuj9BjkJQfHxibhatFQ3unbj2FD6ztZ2Grte7BOJmmq62/iyUoi4sr3os29N4/nQf7nzM38bsc/1qNea/Wod/CQPciO98fJ7nP5aG77rW8L61ekX7fhvL77Ir9wyf9/N3ft1Ty/vmHBSzH8DumoARuPN6GH0LyWM2KK6fFVOfmy68xRXG7P9u1yt+zg/gpqHZvnwCsHsSfHtneLXBPdb16mtqtbHWHW3CDHoxtLx/MHh2jkTGrE2C7QV2sv6LgPa9m6lX3eXPYflFEDw/Ui+cGH7WOpZ/EV21s+Y362qjXaYvpeZWSLyG8aEUvR8DewgTY+/Nmvt6H9+r3UYp+DOr3P2+m5P2zz1+/rZPzMqindmRcVbxW1btPdVn8VG88T0HHeT+SN5Ne89VrKztYVoN4uEotGvS6EtHr4vZqAGzUpn48eW+i+/hY9Z6a0/VlrVqagumy09p0d3H8qm7KT5+0V/vLg2r3auhbMMo9v3dv0/h6T+pHtav17847N+lNSVxe+h7G980vW9svzWnHlejVpfl8q6ftUYperkKP8vP7slH94T0/fPn59dfH/e2L12/LivQ6zR6rredjWdPe1selKpY/jpCJ0vCxmdteB+8w4W5P3PP78ygfv7Qcbu0wvpkJV7y+3JpHfecp2sF2bD5vE+txKi7epxN9amshWyy/woT9jBgfjJeZ66cH4RrzIO8u3uoesn/MeLg4eldr0+d601r76uYXs4Sr0ffHqrlTIXy+1ch+Xwb4JkWvcvr7/Eb9fcn7tYfzN29XVqHVU9zrc/ix3qvW3IqXHeVtz3ozt32KQvpahA+nzGTLWaLQfu5N+urG9N7Q184cmdQJ5vUA9/GYkKfw1rw6pS/2r0WVcuL4ppL3ubkun8voX85+bYbGNLXvwZl7J2gfk/sLd6hOK2Vxczdf71W1BwtTpy2etlevPp64l8ft841m5fft8XowRKY9k28L3rN69w///PLTN1cb0j/77POXb9KTjRd/RnPjPpa/0lQl+1NqJ8tlnzcGu9fzmrx8XHz0dCLc2Fbvdknh8X293K33jGJ6rORfu8Tv9L6vl+PHrfHNJ4/FO8Lh9GNn+k37bGOcgl69erRd6h4geGLBH1PtP9XXCGudeRf0181Vkf1tnAac0yJ/WBdznHVzaKQ7+QzjCp6C/PzNi88/u7rr9Bevvvr2zY9Duuyfcx4uH6k/4tQv1fu8+pHyHZ3/+ZO/2vIyfPjxfzaPfHhJD28sP6XlvdnHPr5Wv5mKB/PPKT/lOdudfHy32+0Orz38+/gBH159/OHRw+sPn7w7/PP4snv4sOHxh+WTWsPqm6uPRh8xZA88/Hcd/gvP+I04571/8h/XLvyvevhtf/xx9/j/9PDj4//9hz+w3eOPh9+Uxw87/nYtf1DHX2n5k3/8atgtf/DDrvjP2T3T37q/Slp+zr8FFW+n5ufjW3fZN88nfz/Pvp3e9Mu7H799/dXLa6p6f/ntj28v+pNf/1Jp36jfdQiHxTvqX24of5Uh/6j8i778HxiKj07534HO2+VnFH95UhXGy6AdxOa0ke8nu/iBw/fwIf/OfYi0x2/72bfuoQyMj2Ehj9JtjD0dc7lR+ddb+NUzlE8ugq+z4mlL9Vyt+LLfbeXpRTr5ViofScX3z5t/+fDDu7c/vr6SeTOfvfqxDGqX/Hv64ZWfUi+StvEx1YE1f3aQZ8Bp/U+mDOfR09z/Wf2nlM+Wi3+b/Lr5S5O2ENSzTHtY8rTHf4bye+nxA+IQPeyWlL34NLGKNkAPnXcXX2HFEUH2RHKJ60N77nL4in4M5rtjgN/ICUFaebz8FpaaDKg5b7zxkL78bn57BfNmPnv15l0VBi/9ef2h6EAo/CLqZvKp/Pj+E4OV/9Hs4eYDwj/A9vy9e3SeNhC8uzF9F6Qqh2+Ap78TH1Kp4fhdtP3oQTznaXn6kmKXX2LdxDw7JxoOx0pD8TW+1aP+JmGqU5FUpCd3dbi/9Qz94ed33z73Qe8vvn03PCWIrwboMyJ5Kp4P1r9E99S8OrPvxuT6gP7Ex7YH7e2Xc3AIkepQPzz8Xbj24/Xg/Yc85pjKHNLzYzZUfMdtE6TlAvbyE3bxXgA/huShl7Pvsq/GLHTvhuJ8KD9uH/LwvkV3bTFP+3pqkxNhvBsw3r5+znfpn718O6xHuzOiYSdKp/M/N60/EYgT5rP+J9PJZxlVqp6GTslaGtpLhThZL57hnnUO9lyje17NloX2slhtqOrHdvUVefa9NL/XrIqpYD2oV08GlyK84zPO3XI93lzpFCWOu+ysabfLj6HCn642mPfieZ2PtDW/wng3+rx5vtNmPv/q3WWhNF3+jObCz73s1Pzj/9easrciwA9FkG/vlHqFJds5ft+V1dCHb6tD8b0zPHQvK52LuD00VeRwMqQP0Zl7/ZyxKsRcInjx6wx5KWf1JX6dgfyuPB6Mz9TTiRy9Kl0SvcOT5bevnulN+mev/8dwyXn0uZHz0kB/+Sdc8L927pOUFMTmlP11SfET3vDzVv7CXWEwL+P3sagt+/44FOnQUJ2MhmekgjhPOHcforS9/tIrCzPa+sy8ea46c9/tNniLnoI3U+fIvW2XE9ib8+G3Xz3TeP4x0fkTZehPS9Y/cYbe9sSlpjK+88FhI0i6hhx9d947dk1Dzy6vdM/bxrMa+Oxwfhiqk/ZhOL+mGU4E+WFXtbOVFe7Zk4HiWeeQN1o+5xkCl+TnZxXGtTl5UBbk4H0t+Lx7dS3x/IyS76eH9HMfi965+pwpXfwrdxsT7gbyyJ0fTNYlRnlOlI8Vya8zy9fPqogT17mk2L09lB/yBL55/jg0nevD8tR0GHZtwya3nai3vc/vnt+p+9++etf8p0/7/T0A8MF+nspu6ffF7l88u361t9VQgfnX3wCAwv1UHQW/eWbda5//WJ4jzL/+9uv9PE2JazUsr9w9vnZ3mEb8+NhwfOSueaOeun/45y77sX40+OeuOJ26C19/fLnLXz3cndwtN313zR3I3V9/NXnXTBy4O/w/yOsn7/JX/4gfz/mQ4qfs066kCaM87Lwblt/nu6U3tPq6Kr/Wmi/N7I3467l5MHsj+yty18z7rv6qDdnfx4e/iMFfVK7CNO3vf/3tfi6/fb1+Xofur4vL/vnDf6/JvfWlSV0I1xSXXP9A16babdhlCzt2w5AvTMlHvg67pYctazHPX3ZDcXNezXWvJ9KEDcPXfbs+XPRxQ33de+gSXOkYaEeZD2f+T1/nb2Y23Oi4Tib6iGo4bFm/mX99N1/v5Zd+XhJab+fZXdkFeFPzXn2nC7ZVCAWPL+8z3vspf+R/PKvCuJdv8z+9/W+/Tv4Am7LGZqVLsVUmnG2X+lOZrrwZffkOdyxjj3uAqha2YrHacS7noPyNj3tyNAzDUH8ZDas97MUMuXzz2zL7PYveu931l8SlE8Xr7ViNM8d13V5ASMP+t9/GfJDoj58/rwr35Q/s/rf75A8w+jpvZ8St1OrH22o2MlpmN+TDtZbWtWy5Wr0AI0t42oEygwlxXDBKJoztQ7FsZVeOM4o/MQvdy3y5IufeXXF5+13z49DOb2/b0Ydh6GykEguypzrTr7/lx+7vvnpWFXHLf9n+t3168lSZbY7uTScO29NZQ13TsLGVLbs8dmfpeqfXt+lj6zSdi+w8JWPPpwdnC3uXSUflBcRQzDYcslC+u+om9LuzMvXyjWKuTDXwOgUzM6XoH3749dc5nwH72XO6QT/+h02/3fvzWptDN0T7X9tVbL0hc1sYFZfH9GoBar2aemi3Xu3KUXLNqjYBnXPP2as282U2wlAt6d1VW1myCo+lPT2bDJdfml/zYXtvLFyKR2MVG6ny0O4KNozov+WPvnw2J+5Zgj4dzts9IWuXtQzN2vbOwKV208GVl8wFw+Ly73356Ldiw1XxTfe4pW054qwyestTOS+W90N7WV+5nKKXR0P11+wyxriY5n6dh+13K4+nYejuXIuj/0eOAt9yljf9+mv24LfPJaC/ypLN+9+mjx31uvXoHs577VybN8daG5o+t8xtPc5/Xb6lFhflw3KHvsx+rcfJWbTGE8P8kNdhFFtT6/1AVQ9FvnhgGHb5UvRhyNYVbHDIW52X9zaslY8KAeXL/rf98ua7F88koH+7/IlNv+09JVsbXNs8nU1tYh4+Yd5KVVy1/HyXp9pD3WtVNKhluXhRslS9D87I04vz86ZQI2ugHIZgumv1tXnsX1vdsbbbTjQPv2mleKp7883PyxIjixT9mZTF5UNl7n/1LGx1hnyUozenV+HR+2Za13b5Dfqxwr38FjmUZ6C7ctZ7m743VXRw+VF8/gxxqdisnwlkR0THg6J8ffpG0/L4W1SKat4fv8vdpaZoTjQos7wpT9GfyZn7hyb0x/+o/D/PkXt30VCdo2f3U20g3+CCl+y6cQnVVTFcVv6eNa0dfmoWXMJHHbvvyhXnu/D54VDuXau3twzFiJk6rO82GdbLAqHgClEgXyus+vV+efSZtKK/enf8Q51/mz5+IfrmnonVhSFRw1p/utLVF7d3+tV2uyyZyUvZs2vy4Xh1mfWi74p1lf31qUI95wTzIZ8S186EW/3ksixzqQi5rEz0eZfHpVMn79GIuDR87IrNG7mHnX9bosPb51Hn/tX/KG4EZOjRHIH8eL09gIoGzqRe0+c2psoULei75hZzKBvY8ii+q9qJ4ONu08tj96G5Yy/jfL7wt/oK3dVjXcuRC9df6p6in3oJSZzEeClXkv42H3+T3j6L8a9/e7385/12749otba9+xcirh49rI3YzK15Wx63G+oJHfGd5lDWH5+aSQ5nZeftl1q7OmCodwTkT0WHqgp+O2frd+GbKSpwb3PzU3vARYTHl1+XuS3vnkVA/+z1MnLeUJn+pL+4OjTVLeft+w9/m+6uOqK3M7SWoa3Dbiha0Kq43hyutzG9+ZYLZ9fC5UVtQRV8VupR1b+Vv+KwpPTX3IXehvG7LLrfxRfpwQxMIf2cI/f066/LgpZnUeb+Wda19r5pzZ9WN57HT2Wjvwir5+6bSNKLxVS7cKLrsMsmz+yWBRqXtZwL75zxFTLUzxeHIW+syObHFZOQhqKZPRt4uI0yuLvo2084BquuF2pHwgrp4d61+9+Ovyn/1zMJ6NmYuL0/o+CJWHdnQdP/EVxFBUNl0lWH8qUtKA/pQ/W9cTfson2o+SXnklW1hcciOReH9eIrLLsUrz9wyDf9ZuV0hzP4rB392gN7OqvQvco8mlD/8C3wTkgPjtzvf1veeG4Z+vuA7g+rU+aeuqtRU7SraFNrWOLL8+M21GHZ1D3UOdJQDXUNjkbLnemiOU84tFmeQw7tXqDD0oGh2v23rHDZ1Q3snee1u01E9dT7KfV6zrMYJiYUR+7vM/RnNVnms2+P/5HNnDhPxMrnsXfRcIYUPrWND8C2USKXLZwc8m+D4bfboe4SGqprzCHMo+BUXM9OeIb6NryZabSL5hEO1U/ZodOmGs6PP901uXm7UaoYs3FicqYMPTtyT8/syD05cl9dhV6POO72fwwrk+Ku/wJ9tzStFWVx+fbpqLd8OM7PLkqSVbvzqVL2oDltmYmwLGDJ7tWHYkZCscTlOtPyu86bd2HGnjpVvikawOElenn2R+7+kFK8pCAY4Z66tSNbOnTftZ3oWbdasbUyaCBabibzB7Mr+PzcHT4iog9DNX9wCKbNNE0Wy2Ck5Sv62Hu+u+bpMncn8vZmgkybrdRJu5cqQjz7I3d/RmuVcSmI1cFCgxS/a7j2WXF5T0+W9ezyAR5tpdJQdbMVBcV5LB8UufPkq/Qh/FIa8qnD9YX7sMu3uByOkIZynPv19KbfnXODnoazH0jlxaOQHrw4cr/OqrioZzNFYxrOLDC9mrR8Vzbl5mPihmWPWrvcPO/r3RUfNgzddanu0vmYqD5kJ+z1sLjyfr0ooCt/tWz5wBVXwp1RH9dZKBneOT683AkIQYbuyP0K29CDY6r6r0k6Fco3sqZlWUpZnqIPu6EzKq6qYwrz8aI22UxYLo7nQ3tvM1Q36+2qv+ILOKvv2J0+YN9db1BPUeFPO8K9DenCQZShO3K/qgS96kXv5ujbq4aLv3EVVXHDEAXyctzmEJQmZ5Pd43Z1eEpcH8qVAvGEwmr6UfZwtlhoGYx05Wn6XVALFx061n07aWiWTTp3D4riHLlfWZV7cZGe6uky0YlWuVL1yYUrzzW27/JpsFlxUb2dOjuAH+qj+MEGdP648D7U+1nWDoaOX74b25h6l3+HuRvCwp+hmZXVK4SXojty31LTYRXgh+7V07aGyuyKQL5k58NxVEe1Cb280RzyxedDe8FuKzofnZoP9RlQPa6oqtCsvuiG7Pb92IS52w1bGQBbhvG79vtZWDdUZy+60LsZuiP3K6uJW9vWMoSLDfLPLhazpKsM6HUbT97ssxxRFquu2nP1IbuqzOveh/oqFD5h+fswlME++4ocgk8b8rGw9V+F3RVl5mfUxbWVQIfxMync2yJDD9vWHLlfX8daip6eVl3oKZjANGwoY88LhYosu9d1NkQFS9FNpmjOR9+dD0VtZf6kMxw9Uwf8Iet0W10Z/Oxr5O7OydTTEOQmwQP5zFej3MOiOEfuV3TYnqIVBvGo19Sd3tD5a3Z3Ndfpu3yH6nGFxa7adp4P8sjC99KJPgzFN9niwwbX6TztsrwO2UFhXP11NtRFdEPV8lZNW9jKsftdfVGeqty7GZVV360LC47cr7ljrWnYTJ16ueIr/26j+1nKhehZn88u6FErw3ZWOLzrVCepdOfja+CGfNParhxlOIRfpFmszybLbOj+PM4p1idkNRVzatwNltlCgp7CPaidr/r+OLlNdKUfvzuWzWu7dqhMmEcN+SyPYlG6qMQnP4Ef8kVq5ULfot+8eEpZ7mnZRFncXTAuo9NcW8667BX8ejHL/YoT9LrIM9jcEj4fro/p764+Nd8Vkf2Yy5SBuzzMPE7TLMqO2ht2uLzcrXlvWW6ZTUkon08OZYncbpkQO9QH7LtrLIq7KG1PnRHucX2QqGCW+9XfoN+1YXyoezs6GXnaVGFc1qjWrDwdmvPLrPx9aJdjDLuVnmC4LNK3rZPHJ5HLSMOqSLOZeJQtBNx1dgxeX25+N5RrU6sBGVXHef0d7q6Zbe3Fkft1D5a5a+N4O2op1Sfvqfz7s42r811WKlQvsSor3ssjzqJmLki6jHDnk2XvxdyDIat3q2rZg2v044iF5Wu8Onjf0qr0pk8n5d3q+beyzg4LL47cr3F9arsYfQjK5oInvU3mfnd9kbw8fsynuGdBPTtTL5t/wgpk+MNCepGhF+0Xu6rKo1rfkt0OHTf+XkGP2uV9bKkb04e8P3cI2nIduTty38ZVeipHLdTPau+ivxxpc03oxyh9vHGs24LWzs+Hpseoyc4HZ+987N16uBK9PgYamvHv+bOApgT0epPzu3MuAVNb0F5/s0vyc0fuG7pKb6+QejNhU/D3Z1OTZZZyo2aA+1D2Dg1DniM1W6+Gof3OCp8swi+Dhcsj93BCXHCdXtWBXn80r98VNfDU6bys3Cz3rU1+jVYDR4NfU1AourUG9N0xOT9WD+2CmrdjFC+bfD9lUTNi9lrFe9mWVp2+Bxl9NV3uOERpAw1rUXbRqddttlENOtcMltnWXpZgDXoaTsXzYbXm/aomyOT1QLtsdcUxtmeDO+qyuKrs/dTBvBDO0wN8VtdePYE8PhVtajrqR4ZqUNywnUFxaeXovZultDtZxAWz3LewRDX79y6sGFkP2ddb6n78dlYOxAyKkeqR7VnM7608F8H5YzL3fFBctiSo7b1Yetbzerkttp53u3HqqRvRUeOdhWuq3DeynaUadVztUW1nxG1j8Ouu6VXLztibbp+hOnsfurVwwxBWyknWedqZ+1LdPuyCr8K2dqPpk8wK4pYsP0vRs7Op7STp7XewcohcedB+Nzht7xXFOXK/suy8mZnYrEbv7CSMRytebQt61s2TFbo3c12z76VB4dxuKFdixZFbOOfy4F7UZw7V1+GwG4r2jCLmL9vQy0ulqzx0vzv74dTLRdLQNLMJBr07dEfuV5WdB8vRo9kyaeXC6m4jufrxznwYyiHtzRCuvFVoyF8bsilyg8DNJwzp/bucofySHZplvtlI2LgW7vpS87v1x8NVkXUdcDk+zosq92sviBuakrhw2ntc2L6VKvfjOpZyyvXxjnwXjHJdOtuCnt98NYaQzqcsd+/NMhiajaq7aibsMCy9lscv+ys8Y7/rn7SnlcQjBcl6auO72O7IfQOta8UImXha4vYC+bHmd1cMvmzu0qulVvX4mE7IHmxn4dOWwe3qAXC7ob7yKZ9dDlV+XmxHz+pAd82MpeuL8HfrDWzVd7Jgd0u5Od2LI/frvES/y7+6U3uP3h7Ht4tV74bNxPhsZEw1IbtOlfJL9zxrHwYBnE8f1od6wOvST3nm3Xt+WTSUC9K3cuBeFLitzNnIvt/V7WrCgiP3K87Oy+elYTzvhfInDnF6Pun5rp3nvrQD7aLW3ubgvborH9rrzqXyWKauOvCP+S1sVw3sygW/+Q9FXdxw9Xfpa7XuKcrBi1UWbeGcFN2R+9U3rYUdHvW9eeofuV/bIfyu7cItqn/ztZRDE42HdhlGWQ3XKWSCj3yeMwTLeYfqmWNWJFd9sQ55C9ywLAnO6jmv2V3nWn11/Ey0okJoMFjmesvilo3oQXFJVR1614xc2sRomTprz2djD/VpZ3CFPjQjNSWf/AFhPW6BHIZmlUDzSXn/eXXQvrv+CH5Xlf+kurY9dY/d22EcXgyWudY1aym/Smor2VPnWeymStyr72jZyI2yUH0pKCo2VA6rHUXDamUyPCXOLxfonYGG4Un8ocBjaVvbZWl5sA79mQ6aueumEOVYuLtebXvYgJ5/s7sTHRy5X+matVQm4c2XfbssNXUaRK69c634jra0rBXD24c8rJdNauXSq9WkSmDniQfvxTKgISjXHIbOtrVsWNJQjHSPovZ1Ju0p3ELRnR6XmiK4NLhFV+V+/cvW4v7y1H9eu525r2VF3JBdLy6ZelUaN3QidjOGU9zmk4TzaGrwULRWFCt/D/l4u72lOEsqxiMOG7o+b48RUzxmJoj04TgOVe6O3K917GtULdc8/03B36O7a79F35Vl7seL86VLt8zTi+Xo2XvqUe6Gyyhy/9Tl7E28H3ZVn/pQDow7ns8vYX8YsrmIW5LCmre2KCi1Z5Au061PvfIb9ObOqCqDS90zrbutJOrVYeSuHAO3FLAPden6UBTFFbtcxCr+kIvzuDSjXilQD4irn13mw193K2ftu2vLylPdjF5/Q0vNtaEjdlXuWylxj7L1FDxl7awjTMMG7fL+s0MBUd2P1gyNq+7SJZ/y8T+nLi7bI7Q8+QxK45bYPxSL14r5C9d+0n7Xie290vfoGt1LUxTnyP36+taa6/Neq3mK/8JceZqeDcOsyn/zQ81qdNxQ3acP7fFnN5qJbIL9E35nhqIAc8jXAA3B4dGu2ipwrHJfWjHzxUTXkJufvtVLvaBefhdrZ7yb4+7I/foL4lLbX57iAQvR9dNVxfTdalqe71zLL8OHcn1VdXFZ7qochmBnqkAlpP8hv1VDfCKfHzIdD5qyzSzlE9Lsqz3+G3KNmXuwo6LdnVqfU7o8d+R+/dl5UPx2Fzxb7cTutIHkvG25LQbDBXPZq1lcx/vIclxc3HwuZgnon+7I/Vj20U6B6/8G55+wvbL23tlhOw8uWoruxZH7RgrdU7A3dS16p43coe+y48bjYXu1YqVuH8quL7NNF9l3zHCk+23Fq0H0/qN/Q9tFa9GCvyUxzx6plwvudsUT3N1VR/fUuSeMzhTNe3Xkvq2Xu+hkqpqyUD/XvbvwVuuKGteKJGYIKt3a76pD9epQvVfFu9z8j/kty55KZrUeQ1WtuZytZ/Vy+UDEXV46cu05e4ridN1pnoJFa2LBdo7c7/+54rd0S6fw1YC4tDJ1KW2md61K14dhGHZVz0+Q/OQNbkN+kBk9BRCx+OQR/fjlNgztMftQPZVcvqaLpHwLPeh3JxKL1FmJHjwHEMO3cOT+n//fiv83bfq4fe2gvSksicYxbCSeZ+vVdkuEbraq7cq1VVXIH8LeIgFdVv5JLs2Hk+E9KNzIFwsVFZ3LIqKtTZZpI3lUy96+T/vaRo7cTwT0LTeip35l6OkF6OkpXSXPteo921pRbDkvtlAOS/9aO8O9k8MLYJeF9uBJkN+61TieX6bnt+XDUIbvbD1BOcl9qeq82tr2u6F7mNjpY0tDfPbu+P3qj9xPBfTtJuh1kXuKn7KubFpL27lN3y2zs3bZRJlexfAQdKG3Ne7I3v+Q352hrFyvFw0M4QrVw5F7PdT4ue5Vu7zGPUUxPPVy9DJXv5Ohb2N96m0euR+/ru+W2rhgEnIaoor4Te1nqcZgHouNhibdPibvQzMsbugsrTTI/cyC7fCy4vZ+94Z5Gs743Rt2VS/FMN9Pw1AdKBXBfMhXp2dta2l6L50I6eE7p/nDP0/66zfdz0/6FnI37R++GT38fNc/MizvEaf5vff/P6f9VHwXvIv6frwsGboj92sbMJOKQJ0621HbkH+3jbP3XXWXnpes50Oxq01V4c3mYF3qmbG8fsq0+rt1I7+F+//8/ff/SBcWur9/ffzP3//1+JnxMt8hr4fPBscOwz9/f++3J8x/nf7zw6f+/pTr7X/+/q/f/2t/+dOAf//99/89D8PwH7///vv9GZfoxx8f/m/+5/Qf//r9f/9WFwNF0zO9HPahX+eR+//zf6pQ/n+2feSehna2TH8BUb2ebQNJ+i46bDxOhylay3fLvOwhqnSvR28O5bdcHLSfGdD//Z//VQT0ISh8C04xhv/416/73/71z12xYi3+zV061R6+qv/5r1/vf/11fkpUvv/11/tf//WfT/jU337/bX//H/918XeQ6Z///u//94eA/s//WAL6XbWMJarx/ee/fv3111/v07//+3/8/s/yBHIYpOjbO3L//9l7t++4jStdfJI1a5215mkez8N5O0+/p3map1nrrJx4JpbYk9rN0pCAQCiCQcGyDcpC5LEtxXCsix17YGUEcXzJARVLPVF8k03HVLsZqUWqRfkP+63CrXYVCt2NFik1QBRBdjcahQLQTXy19/72tx2zL+B5aI0a7HIvorTseBeQnCpj7BNqDM81CU5YRXjKGtLBFJG64BQG6T3VE2hxqjJcl13Hw8FlB09locM47jv749pAqOcRJFasump8Xpox5IA4gfzfUclQNyNrhn9GP9AArKj6NIJ2zbgXpVYG6Cqve4HgS5PTZB3NyC4wh1oTvXEud7sDPjfS9+xf0lGDXe7lE1KVt53CmEy1JijLYOEs6QZLZM+wrCUDUlJwi90TwXpyWOLwXkVvKpc7iF9DQgilRmCDHGkXvqs8U43wWStxQsNgoWUgxWnuFC3wl2b4h/NCjZnp5gxdzV4yDbCKvekY57sTUNaY0cksdIEWXCQKtUvtXe5up9OxeimcB3qnkwP6ISijKhrjxQIuUMKDr5nfnUy5DecAE0UuGn6CKlwQOR24hfbpgsDtlZoG0PmVgiJZAwh1/CjQijPSQgQIiFghmNhBEES+OeO/lBVH32fo5ll2MBugRyKg02LWWreoDAdO5HmuZ8c7sGVuewvpzXO57/ndTod6zEgfWaTTIfHTJgvLUJkHRxUlDWhpPgg0qjwLkTPYcIEqUNdIFfhxbUx4dt87jLfeDzegT1YnijFa063A4WX/xOklFGIYeYlBwljuRugtzTT/pbGpPUv43fNdZ18AvZQMJ96dnMixHcfMAZ3KYXRZTa5dMgu9riz3kdnpdMzRXgjxY+NZ7qDAcS4Bq8rfpNAo8XaB5M4tcxQdByhLROelrRR5wYcan2C6NwHFLABnYcHhFs0d43IHlb2ePIn/M90IpuHE87pCCaCzv06gF2e1U6GrPVMCOzOTwIqMWQA9d7lbU1gX+Z3MCTLDPXO5C1npUjHVdmmCsMyep3U6lMG65u01WlimSP9Q1BJU/5NQqHGxNVJ4SQQlGSGQrqqcCkLRKpk5TEr6tW2q3CuA4sU7dIkCpYCOhd/QFYu/kUuRF1vLQKAoOVwo3yLUXQPPZV19bSZOnOfPdhuwfYOlrtEDsdC7ivtXSoqLjU5OiqNyoi5tiXGNEpbp251Op/NLu99wYZmY0i7gebcoGlOw0ZWs9m6dU9BFVCfYXpQwG8ZgEeBcIGgt9Yn2+Rinh+glPmwcQ8PzwtDzrEoEBPbMDVkel43LA6lqCOGpQDaTtSPW1RH8VdNiujETxT3u6Dtu6FTPQ3c8P/I9h3rxo7tUEgMssnudNEeOdQw8T1NyfVvd14YJy+w5DNBp71AIyygs8a5S5L0p8fJSCwSXWcNgAzzHR6puBVAGUDAdjfuwOuEx1oBwkWU1XTiEFHjTD/zA960qIY3k22kHYWCJF1eYXIKkZsip7tQKosCe7V/J9bQZ/wkNLwzs6rcUzfODwA9cGsRXKh+elnrfs7uZ7WUJc/GPjjGfFuSw26X2LHcG56HR6XSWOh1wRo3XcqdisBzXKSgy3iHLU5fklRogLIMSzwFQOUqUhy4reoh0YQKtFT5zhH1MlAKm0OA79PwExH0HNalDMQPg4sUq/eO6tq7SAKEqc515J7sqe7y10BUWem1d7iMbGLm975JORw+areUulxGkKqNcyk2j6li6nDdSF5+7qCpDUG4ul3vNM9hEcXHgCypzBbKyaQvzZdFgGK/oDkCUdXHgsMM5FIkFwDMsQTDHpZqAUKg3gEsYkILya43gXZV7Q4uYDpLNIpeFbi30ZrHcI9rpdAxmmve1Tqfj7DXa5Y4rE0jlCYoV08V/lm7N5V+LktXC7QzDCSe+K0LiRT97SeW1tsE4+bdiOr9MMyTk0JdTHatwj4xzkBicoHDPE6lSMPD5LCE1Lp1Kyxjuos3SlcqnQtEX2S64Hno9Xe4e87a7KYo73U7H2Gu6sExRFq4LCvX2Aq6X8OG6dc1pI6jQmuCPRMLYICrFgSLQCyVA31qXpbRCKLLloDTy3rZx/DiQi/tB4QJLsobIN8XLBdfUSJ8sjqEIq4OqNFW7NMTlbnc6Fie3R0bn30YNF5bBMnG0tKhBSUn06Yzz7jxjOL5/8dfcJawOj6MQJUi+Yx59J9BGfKFIhAN5/iOx2QFfxRbFJ01oQLK7CeHZ5eU9uXgSqV/kvDvpvkJL3OmSna4KrbdR9Ea53G3iCbXW7KVRo13uakkkOV+NFosYNIvqnvnTuXQWMrSR1xKUFiOProNYmPKwl2VRR8jlCRAINT2laZDSOS+HhZthW3OzOZdbJzgMRKDpjZYxdoomB/YjUlEKqytl5FIo+ZGeIn5wG0Vviss97EvlU3uNdrmXk+QKc1wZy2nlCXVd0tiIoCwj89uBA05u4iCtzVJRudZxrMxaEy4uIOP8cAQqQDdtx3Hb9sybY1s6beunllrodRaWKbYmu9zH8t7lCuhKUXfaGHsdJa2JXGKxrhUQQWoLJDwqgNZhR3GQyFsCYOMLDHKitGCfN+4iguVH/cFoNBqM+qNRP36Inw7in2xF9iBtIK6M/wwKuxL2km+F18fv8D1Lb0kD8wOTdyK/EjbGQ6FNsoMS9zzNL+7Xl3dSOE38Nv+LTzFeF/kWFctVtVjeBGGZkZ/M2bzoEAjLFJlusmp7CdArDe9u/bztGS2IyDF1RbqviPE57V0REz6c9jiUvcIXCinHcAKimMkmis009ipqAUdLBFHJyqQxtO+nL7MN09Xx8z7aKF+ZoVo6U+hn7/TTPyO8t76wDPKx+Jgc+LKRRmjAfPsB32++r3ws/qQ/QoeJOmcHNxjlO8jOlY8zSE8o69cfFfacP5XPqo+uWX5aI3Sg7CHUYd7kZahmssK2rct9RmGZWFYmbTTluze/fKpQcagsNZ02UzMOZbIRXDcVsKpmjj2Soc6j7wQR6lrHeiGhSlwPquA4yqcWtUtBiDLPRSagpiUHQTVDp+ylHv8k73k6aIkWe/II2hIh8TOqUW6e9zJIG3A0TlDpHkfcfrZJP0foQQE3cxQcLQw40PZzVOfgNeJ2McfU5MVC1qsvQGof7X3EbXj0bLSwIM8RBmgu0Uf2v4im/eR4xblIfsLZREK+FCN+poJnIR2xj6ceAzwJyYda4NjOzzXp17PVNaSf1R1Zdz7Y2NjY+MDRW5b7TC53Hzq4WY13uReKqakqn0s2ehea2XDWGUdowuU3iDIbSAR6RWy4TZ0WGdfcvw5C5VnA2uQgC+3OU04/eL4ZY7cbhIFnUI9JkQa+Fx+g41OaKrFrgU0JoYFNIDAJoa6nZ3uwsWnLrdnR6OiHzz333KcLOeIORgjMsc3bF/v1R6ONt5977u07okk8wFAm4jo3cEf3Pn3uuec+PIp2l08z8Iq+4CNI2h026IZgi0uHVWzJyoVP337uuQ/v4kMShxsVjycF+2/YoJ8KNvlAddLiQcUTgewi4QGQN8FWiXE8q8UMPnz1+Rd/8fyrHwZmy3KfweU+Ip0O2J7ne77n6J1Ox3vceJY7lUutURnfqdLlLqWv10waTrGeYFudE655IpugfoLSqkCdT32oa7LIcmZQyI7O7HEuKC6WTuVgryro/Wwl+IwoisuO+6GlWVGwZJpmGJpmDPI0shmExwemR5HB1jik27MIOFEu0G70ipAVr7nx/Cu/eOUXr7x6VPV+CdaloPX2K3HXt8u2G4jrBhz9jr7KOv7i1W9H0w+ZrvmQdUSDDkbIQz7iTgKM2Qk23331F3HXG4W5CX/VLx4Ae/JpfKK/+PVRodtAcYiF+cSv466vfFqccaSXx5ifO7TW+90rafvdN1rrcq/ucnd/2TH38tC5RzraXtPLp4oeJtlUp6U6r2ViDfWLq4uZuDx2C3JqEYESwXE1E44ovcqHBuJV1VhAgHhZxgSVvAMQCXTzRS8EO3J85mmPbEKI7evMCvfTQ3MCDQO6T2NAh55FrNDOD98rAc5vf342aT//ZjRlS3Fs4fdpz7O/V5nDozEr+aDfjkVyxZ4+zQZ990HpsaknJkffzQa9MW7eMFJg9o1xgw7GXasH2aBnb5Rtco125+QWTcP8Iz179vfhUutyr+xytzo0QmnoVof2G10+VSZ0FsunlnHZJ4XQu3W01AnWdSfTKY2KvnlFlbC2qSLqgATIkR6+UB0HUA2Rubqk1HOM0CTEjMwsMN71A0i97A5BgO6FLtCeQ7qRZYZOfg5avwRO3rtw4Y033njjwhsXfv8vo0rt2wsX3rhwgXW/8G21nv/y7oU3WLcLb1x4b2GWQdkBX7hRrefo9/GJskN+70G1nkffi4+V/VQd9EZysG+MuUh9a15u0Na3F1C78QK+d2tPkylXW5f7npma5GlzOxA2vHyqoBYnayd1edRcirrTSoqL85ymhuusIcUSEB3GKJzOU84FJzsIFaZL4+iHF89BEoURBPFxngGqZCuS3ecmrV+PdOq7kAJ6gvGZhW5FFAO67UQWs9Bp5EZ8a+KUoMn9K3l771E1rPqEd/2kIirznle+nX3QahOQR7MPii7SlYpTl2kukjMvjDgPHe2VK594yAZzoygKDKC6rQEyVrW2fKrgct8zOzoDdM9LKqd6v8wBvbkudyooL4lKiSLcF/Xi6k91J0U99yy2K+qTgZqkrVBuLwjHjSmQfqjsc6yMzzMEuZw4CqtzrpxU5W4urqEdaEtOpGFAhxTQqecQAdDB983Y5R75vp9z3P0SMPnuI94eVgMr1POjigCJev5QESA/znt+Uu14H8486BNcJDxoKaB7dD6S0LWf4Y/0o09+puVH5YS2ZfuhDtY1PXbOxy5kMxKNVUr3z0Kvp8udWeijx4/3uiTILPSo+S53sdagUmRmTGGDmmI4KWe6C6FdMTYulbnA9HYQSFtjYr5wONFcikbwUrUZrOOPRCAbFiZGz/x0gtD3gshOAV23NUJo6nI3A10EdKIFHiPFRb5mRi5MAvTPeLtfDea+Ql0rAjrq+V01M/tr3vPrh09pUOEiVQR0dJG+Lgf0OaHEffD1xx9/9nHy+/FnH3/AneyhuwTU9EzTjzxHo5bruSbVvMhzdN3RKZiuBrrjuTbdrxh6XbXcYx/7Hv1lIMXQG56DrtJ7pSofele9ntbOJCfi81xOBiu6Cx5hqdoFgKgkAyWl1trAOeazozLdIJfixhrmgIvcgciQe/bZA2bkWJYV+XQpYrjthAYh3dRC990435wF0lNAJ1bUYy53i4Cbs9zdEjD565e8VbTQv+I9v6oI6GjQH2YftFqI4OHsg+KLVHFQdLzfl23kzonLXXv/qy8/++zLz9I/X73PWXF+aMUK9FYM6Fbk20FgJIBuRCaAE+la6NtOZB9ul/tjv9MxensjYBb63sgjiQe+ucIyE+xxSdt9XBG2GprpRGTCSbVTQchLAzlvChQ8dszOVgjNHcKYOVGUUQExKU0KePAwuyDlgygO85CEzhRkGI47kWM5kUdjCz3B+iR1LfAc27GNGNCpm7LciRb6WjonKIW5L7744ov4T0WAHP31y7gjWyoC5MOvklFZ14czDcp6fz+qPBf44sv4cKsO+jDt+MWXX1Scujz6nh9v6UWy50X01fuaQflnCaJ/9rXHb9imH0UeM02tazpQy6VUiyyIXe4M0KkdGUZkU7BNuh+Kd/Vlue9pnQ41zF8yQA8N0un4TRaWUT5QBagrhePGacDW0QtPiMh1zxEa87gkdhwQUcgUxNqfhwvBF2EqlAeprBqaXHFWofQplE+lxCN4Ohx3N/ana55JqO35nr3ExnYYhR28JExOHc9zPc9k27AtLQKewXDcTYPuEJW5k7/4c9K+qIjKo4dfpT3/XHUqMPpr1vPPf63Y81E+6BcVUXl0PzvTP3//qCos78OgpRepZ8yLrox9/2PU7tuIFKeZtsdYcXEMnbIKPwzQQxNiQAe7p2t+6Dnm/pSCrbGW+4jGCnEM0D2ClOKabKAXqqlimXc6Nt28O3XOWnc+Pe/FbDXA0XOE5YjxTsTyauo8c6hvZRY4fvLUqdOn184p2uqiavtTb67f2hoOj9y6ePrEoiJsvqLa1bm106dWVxZFFF/N3jwGKLkACDmVvQEK78jyybWLt44Mt4e31tdWl0sv+GJ8YmvKEzs5k/NBqnlvhJa8VYmbxi6NSv930qoavKPR/bTnn+5X7jr7oA8/T7tWH/S7tOfnj2Ye9IeZL1L5oG5WfPXZ36H7mJTf04Q7NQU7smlsodtR4LmRRbmF7kTMcPciZqXvUwy9rlruI1untKsFjx/7mt50LXeqrMkiScAVBGVo/YulKmPqRCraolJDEXnvgDEeYL6o2DO2xRPnjuywtruzuzscDneHu+zZTvr75qKMkasXhztDtmXSdobrp44vSvOY1d3ydmvtxGIePYe1nXT1shBLB1hP3xgiskL8sHxi7dZwd3c3Gz7eYxHUYfnkm0fYKbBzi7fcyV7Ff0/vS3Tdmfajp2W0uEffff6nf/7T59WhajR6+PWf/vTPf/r64Qxdf4gH/eujGQb9Ph70/syDfjfDoI++j7ven6Hr/a//9M9/+tP3pRcpKLCJnqFCW+/d11577exrr7322rvfmIi+7jFr3ezZ1AoNoF5IQYtsMEOLWegWUKena8YSUN875C73GL37Ue/m3uPHe/1Rw8unFguydMfVUx3zuiHlU5FwnMTJBjmULjnVC0ltdcX04zHq7ezuDIWWw68E6CvnbiEwTzF198ibJ4Wi8RKgo92yHe8Mzy3nn8DaLgJ0rL6bAfoOCIq7x06vH8n2uB0v6aTimHRiKxeHbA/Sme3k7fRTvtCaX4pW9+8/nAGpWM+Hs3d9JoM+vH//0Wxdn2zQ8jmPryuqSj+zxfrgw1dj5dcPP7CEDPVrDktbM0CPPFv3Itt0Iwt037cNGvi2E0SGEbqmFTht+VR1PfSmGuiZ+4ZCQchd9bUuVEantZSUkb3unOMOuCyIGECXLHRsiY/LWKsXsq/cYpZ5YsIOt7e3t4c5SO7sFAB98fQw3nR7uM2WFFC3GWafW8Q+59UCmm9v55C+s7Ozvph9FAjQUZydEJIDuiAdu3JrJ3EPbKfHkM0Udo6cEE/sSOxjyEffRucVeyOeNqATcEdtm7fma3NVB53q/oONt9/eeBDo4m2YCcv4BgVq+ZFpBFHksGLuZhBH0iPfiXRqhVHk7Y/STJ1d7nv9KDHM90bYQm9urlqXjnG7j+Wz04le9lrVRydCDVUkbILETiS2dlEpTqzDVjsJ9+X1ncwjvZ38bKeoPkztWwzoxy8mAJ1tlm68HVv06ysIeFcFOM+3TwA49rtnNrpgoWNyA7LQ+YTiVGqdS0eQIPopRGNYObKzm8YQ0HEmx5r43Z86oBOwgn4LoXPUBoElKmHPA8lJt12XeZUlU4wuUWSNUWyd0aX0HPZNHLbGLvc9WyPx08DUlwxnr8kudyq5zqmM3BQU1dZoI2uhQ4ERJ1ZoAXURbxw8J0QkSQGpnesd3kzhfDtFyK14ySBdstCX13cwQG5ubW3mgLq7u3NrhV+jVYTnCvDd3d05d0yw0IfDZRAqt5D1IQd0yB0EfI9bm9v5ASR7HZ7OP4vlizvK0RNEHz4bQCeEGo4X9QctlD57LO9HvmNqMFf2uXinlrhPtBA6peI7+1ucpa4ud6uTpKoFSV10o9ksd6F6KpSpzIBK8LW2wjKljneCWFhZfRBEa0eBW5Dd6wLrucaJ5yeScHKMelsMyje3NhlQckTf4YC+uJ552xmUbybLJnJm3zomudyH+VRha3tzc2sLQ/rwZDKjWsu2XJbSDC6mgfwd7gxZHQ6zGUUy+OZmOv+I97qzcyr7CE7uJMHzDM4Z+G/j8Z+Byz2fAHIjiwLt5n+y1+hlvF2XxpqelKLHbvZHfFPdurRtqiYpZc6lQ1Uhyk3LIqJt+dTHj3ukA8bNx4/3jE6H6rTTcR83XlhGwGQKMiekbPtGmOlcH04EdS5+ItjfICatCS52QAnoICYu1UXIHdZ38uj5rfXrFy9eStrFSxeTtn5x/XQG6HA6c2BvbW+uXzp1YuX48ZXVc9c3t7Y3GUruDodv5szB1Z0EprfX2W6y3V5cX0cu+uTKrqV4vr2MJfwIgYupi2CHewhuZYH+re3N62snTxw/vnLi9KVbm1uZl+DWSnZibKc78ca31i9eUp3Y6hxo41b7kshfqymnkrjQQKFE0SFsChrQfCt1Fy10yZLf91lJfV3uTod4zM3eg47W2wu1vB56Y/PWKC+lVnSxy1ivtM+79UT4ktuYVJAb4bR8H0VKM1IdsboKuDPiWIrRb544fuzY4uIixAtq+ZU4fms32XRzc3NtZTGzp5dP3U5MbwbpJ/MYeha+PpnshSYPyysv39rKbOSTmcs9gellNLVijxczV34u5XNuNza5mRPh+onlTKXm2IlLm1uZjb6WHO3x3D2wubaSnFh2ZvnZ1cWfAuUSu6qpJw4BCVUHsHaSMKmtTetOAdVqiZgc8rronidXkZ47GC9Y6BRKLPTW5c613LWYCecltrnboTeb7HLvKr1MpbS4klw1Wk+zXLkO6b3lFddKb6FQkqcGpLzbPLfVYYrn25cW5bMsnP7p3Nm9uQLYg7yyuckQdbg93F3PRGZW02j71glAqnps5y9vZl7vdQ7oDKaXUY0W9vRibMwjQD++s5sdQaxCw6lya5nrf3e4nBxrPlE5tyh9fvXW8+NzTwA54QKU/n0UWMIiu1JxnPpb3F0lslNRWaNQvILOHaSX6oeUWujTzwua73Lfs9KoudXpsKosAcmqrTW9LktRzl0RmFGa7rTuDniCirIASjgHXJMFVJ7R3K5Rm05103+FtZ3EK721tTJZf+ZWBui3TkonuZLg6fZweGQlt9BTQD2RxyRSbFmMDfrYRF8mMaDHG25uLQv6fQQupX70nYyteG6YeQguLUtc/Uub2zGi7+4mJvp6NlHZXCFNa0KyhVz1V+RrikJJwjefYJcVIfX0wdOSNbQI7tIrlRXfgDKa+2ih17Z8qhkDOu102UNIsnrozYdzqprKFuav1fVk6qQcJxRXAcmJCaLODMpa529i+lztbPTFcynuba4vT9z4ZLrp5uYalSHm5SyKPTwFWQw9Bd8TOTEhyyU4tZluvbOSWOjJlGJzmeDy9IRcyvzoKWQtJzOKza3N9YIs3EpCuWMmOiPmwZEs2r8JTUFx0RUEALimr/BVLfNEoM1FPG9ooFxpo8vkoLmD9LnAidq63PfMxEIfpSruPun2ms1yx4LtRZDuqozzIro3KFcNRKOFCALuIGWnCSZ4wSYSVb6l7nMJ6G8mgL61ef3YxI0vppTxzc3jhZM5fj0D6YtpzD210De3TuACqpB66LcT8I157mtsv4wEvwyCyg9cYvtkk4R0vnXySGrKb54q+kbOpST64ZD5+BdTQN/cXIf6oreK1yaJGuUUwtz2xgVsC2Y6EDI2EkVqCt3d8fclOkbcGooSW3Pocn/aIFFnl3scQ3c6HS9OSuf10JtqoKcP3QJY02Jeujqo3pS0dKwWJyjCld5jUZZbBlNQsM+hXhY6M443b0+00BfThLXNzevFE4yD2Fss4n1rOc1DH+4m5vwJNIFK4OR4FvAersYWeorSm8vIb8L2cSmbJKTX/tRuMvnYvH28SG5IvP4M/tfYqiN5uH+x1mCuIMOrI+WlGwBiy3Hbnsfiawnj3aInUKAJUTWSiwQ5ucQFnXcL/WlqyteW5e52iD3ai2iHjB7v9V3oGE1nuYvpjMriLIVAOeUTYahSt2Xene2AIuYg11YrqZ0lyNCALBRb8HbOM7wz6zgB6c2Tk45zZSfzuK8qas2t5iC9kgDMagq+qcs9pyyQBNCTjRGgbyaAjsqlM0BPZgmQzj6yA7ikmH3A9WynF9lg69mJ3T5ZV587jM91y/1FRali0bEkJGOgKDqZYK3XlutOQVluiiqj7KUYP+8WeutyV7Pc+6TTgS7pdMy9x/1/6/B66NBgWpyq5koxSa2QGKEA8G4NTXJSeMW5cEBkYwdKXZ/KlDUgc+9oR+3UdoamstWrIMRnmyq2hJXbiYW8PVxNkGY146+toOTy5HKfvL2Z2t4nSQromwmgIxFeQhJA304AHYAcW8+M7iSGL30wa5k9HwfY14bDrXg+sXn9OGlOU5btVXqWgBBRu5CnECD5BVR5UMb1WpnttMx7qOS+yZprJZH3+Y6hty73Ei13L1GI64aPH/ehQ+xml09VKcYo4VylH0flTgKe0/pZ6JzyDrJMDKgy0uToJOBUNlLDlKjjRzI0vX371PHl5WN5Q/nnSTudIfRtFfVv+XaGp+cSo3E1M/1PEBku3tpM09yGKymgxwewuUwBFmERsiXbbjvxES/fSvF882UV1J3aTPH/FkPw45mDYPP29VX5xJ41Kh8yPbaleGG/Gk1+k7XpKy17Cy1LitfpL3vIfpbih6V4k+yphp+jDZfQ2/EjLVjmQNulAeVTA7NLwAgYiluW32gtd2XhNZkjUuCKlMTRGxJB58VTBescyNjoJRaMLTGYahFEX09C6Ju3b9++/cdLb/G29tbLp04g9hvLGUtNXpUvePF6CqfDi8kMaDUD1BXxmhM4fvt2ir1bsZr7Woa8ay+L7XpmyScDLm9nXvRVxZQCTmYHEIvFwXrmeSic2Msvr544/sw+I2rarue37dk3z02l3Oudsda63AvlU/dGo70Ex/eaXj41xWjLmaJZ6qh6zbzspfY5wTm4eRAdJ6Opueog0IxBCeEz6Xo+k3YixcgE+Hi7nbQ3cwUZJsSaYP8lJbfgegq+u7dSUlwqKXf7RFbmJl2OvXV7M/HPb78JCNBvC0dwmx1Btl1yJbnRfVIF6CtpZH4n5tWTk+m2yhPbvH7u2Tjiqc0qswxGo/5okP8mf9HTfnELvKVio+xv9kfumPwW+g/4uOKG6AGNwnfCB1QdljCaNGC/ZGt8kqi3MHRxH/wsCtdBcVrpfvl16kcOFalFhzj3vCku99J66I2tywIQ2lM0VytKwzaj8BrJXe4EAzzmvWEFd1nQAzGLikSlurVzWxxOZeDbvL21+XKaz7Z4MSOjXyJlgB5nmW0lF2o1i7ifXMbt+Im3bicW+vb29kp8IRNAvy0j+u1ku62t7YTlDiu5hX4CSqL4SemVWH722EW27W35xLLdbm6eehr0dymP0bwWo0mCQ6MMkjCe560f/2Rgmj1PC4VlG6YYNUr3wpd0s37ykHUepC9wCdds+2zTQTZAPx+nj5/kG+IjSLdHxz/ID6OPRumLh8+PMV3TH+FDSTfMLpB4vPzKDXCf/ki4BGiP+MTyZTCKTDpnJjrVDNM0tGcbRK+zy70E0Bsr5E6BBuYUzdEK+F3gitbY147Lpgo4rubDgSCFzbPOYaxA3Pwj/PLFOGtNgvMUzxnwvZmIuCxezOD0kpKWdSkOom+lSWYJKS6ZKVy6fil3eWd7jqukXUw+hTXuG0eHwEz0zEJPrvRKxsq7fUI1eVq5nUXmEz35lfXtsolKPP7W2rEnw2rdsoxJn69l4R5OnwNKjjDJi3sIgAYcFDlY4YmA8GxhIUfrfBcD1HeQv9vHu2Y7vbeAXw6E+QAH+r4wYLLjbFBpapCN3ed75SZ9Ovi9BQ7S6P10oAH/i1A32eHCvfz0MPTj+coInSlyYuCJDN5tvK0zX85Y3flg49Orn/7M0VuX+4wu9xILvcE6cYFpsllg8qfs0dHL+aPdeoE6UWtoCFgOUOC0A5L/5ix4KVWtJPkcamKuw/FbuWNaAr4E0LcTMfQE0BlEv1XM0YOckp4AOjBSPA5i3y4i6hbLUE9c7luK7XLgzUhx5MQOI65vb94WLHTggH47peUliWr4xP5YdOVvbW2deqJPyA2jKPQm7MJzBDyXSnJnRuvdy2deOnP1HodzwdrN7Orcih0gu3fj/Etnzm+MRGN4gBE539lAnCYcZYNevovNatG8HhS6ZK/ZoGc2FvAm+QiCkS7skr1euHrmzJnzd+VTLPQYiOfPNr5znl2kBXE07qoY8dlHX7L40bRDniDFO3fmyT43wg+ff/7FF59//sNIb13urct9uiUwTSuIoigK44U/yV6HVmyhl3DiGuB0F6pWEBDksIlQfE1I+0XoXqS31zTh+dja7YLDGxmy20lMOnW5l8XQyfXMPk5lYFa3hzlOq3a8tX1uEUAgxRW2Y8DLNOVSxM4t9JMq8RVmoW9tckAnsHwuPTH1fGJ7+CRxdCuyKbWj2JChNB6R8seUzA4Y0M3eSAl2Cxsvxe3MnYWReovCywypj55Pup6/J21XBGkEfXHvO2eSQTfkdwcC2inavcvyoMo2KCBzPuhLV0cjwdEwEGz9vmI/C1ezi6TaajDuKAajwghSB2uO7PPe715J2+96MqJrRutyH+Ny9w6fyz37KjBAf/zjuGYzQO8WarDR2uvJKNlxuHgIlDrNsSKHbJrXWTEcjq++dV2G08zjvcW4axkpLkbe62pSXOweZyKuadr6thqnc5f7pUwYTnC53y4Cf8ZyPz7MaHmrqssdl3xjEffE5R5T71dOJSemcD0w7H/zCT41JzQYx80ipmt7vqsRYrq+51AClut7FhDqeJ7tI0D3S8Bn48yZl+IfDlZTtgeXs56XK/YcbaQ9X6o86Ohq1vP80Yo9777+UnKusXlfbdDsTGPzfp/bNW1e8tZo8Puzeft9oInvm95TtdDr5nK33x/TfgNNt9AnAbrhapWhuzvXUXMoCGmIJVlyortof0uGOC+4VqbhXjtAB1g8tnx8ZeVE2k6uvnyJW+ipJfvmTuZDVzEFFq9nBdduJVcpj6GLvvQc0C8dAw7oyX5ZqtxbWc7aW2svZ9ltw+RzWk5mFFuxVJ2Cr5+lrSUehQzT2YmdQCd2PZuobG1v33qC7DUr8i32D0LsyLfs0CV64Gpm6BA9tDUrNIkTuaYXcUDXS9Bk4fUzWbu8UBWV81YRlu9d5l1nH/RqReDkg75+tOpUYOZBp2h9q7QC21Ne7G8voHbDlgLbHjxFC712LvcXfjOmuc1VipveQhed7Q1KRcelpgiiuWOfe56WDri0BQqtC4iPZgFQI0qcTMnONHYAjr+V4fn28BR7dy0TltlUkcmWc4f3RW6hx6T4zJl/G8H57dunczznLPdlEDVoMp5dlod+JHP6v6xKWzuVMuiSPPSi1nnmhlm5lJwY05RdfYKr5QRhFNiU2JFJwImIFWm063jU9jW65HvghUAg4IDulAHk67xVhLnLrM+Z+LeiiX4nGY/1fX2joq3MD/fyg2oOBXSmFQfFF2lh/xHdpfMhFEe9T66g9glGIc1eMj1qmPkqTdPpQZLiaudynwToDZaUmQ7QdSjWammktgxXfcsz0RWoLBRPVYi+Kjz1NbbcYTnG07jc2Xou/ZpIxSjOeyXf+HTiwFgdZkH0PIyemOq3b19669Rx9CGspYI1TMudoM8jVpSLJxTJcMfW0+Iwm2+pMs7WsiD+rePjxVOPX9rMDvb0k3w+mmkzC9xmvnerB1bkMcWYJTf0XC/0qeeLpDh/MkC+XtHOfof3fGcmQJ8BWxcuI0C/+5QGFS7SAfjcPVSH8lku2s8+wu2Tn3GfO3UcZqEbnpWusPyQpdwdoIVeN5f7WED/DTS5fmoO6KN+r9/fE6B8b28vt9BLBI8no/tc+955SWikbS2IXgPSgJXU4ZBNrtJzh5rH08Wg9NbW1tZwe3iEnfnKMCtgplJeXc087oySBin+xzi9elxsy8vHFoUwyFq25TIRXSiXMt58mgl/jh0BM/qvLxevMvACrsuTTywt4Prm7LnotAuEaEEAMaDbUdfqGYZh6OD6Jnuk/pSAvvEOb1UBHbWKgI56VgV03rMqoM886Ogq6noggD4ft2btg68//vjjzz7O/nyg5W9ZrhbH0E3PTOnwlhVaLcu9gsu9qSY6ttD7US+KJEAfIUAXss67Y4q01E3tFZHcAWu4YlYcCAUuBFk4uUSLnEfVBEyH21spoB45BnH51NREv12EwcWXM/DdXk5Z7jsp/J+QMwXlhoqzAC5HiwE9/oBO5+VhVhSq9DFID4fbuxOpbscSmdrhcOfi7KnoXqADaIEPdmQBdSJiRjrLO2cud0aWAy+isHSNA7o7BaA/mBnmrs4O6HdmH7Siy332QfFFOjiX+zO/NWvvf/XZl5999tmX7O+Xn331AbfQPZOCzqxzx85MTSMwW5Z7BZc7PQQs934URb0yQNdF5Bay0GldC66pie4ZzQ0rxJVKtEOe55bLyhAiqMw0w0i/nlVEPRKD9MVhFkU/UYTT1D7eHq4fSwF9Ny1gemJS+a61DKeXRQOdpbYn42e0tyPZlmuF3AJWbC0vsj5JwP5STIljsYTZAd0IfcfxQpOR4hwndIjm+7bNHgPXckKTWJHn+CEHdKMU5nJnckWAHG3kXatavA+44/ydmQet6jdHjvOqZvZddJH2H88H9pyUTqXe15+h9rXHA+a+nh6i6Sylcw8jsA4yht4sl7tLDwXLnVnoN8stdFqG57W1zQWBOL5GqHQuxb5BMNhx9Bxk+xzQlvXH9PUUIXeHsRM7LYi+taWIYZ+KGXFs47U0CSAB9OE2A3SCfCLFpMG1zJe/LOkEXEqd+MP00i6v72aIflwVw9+Oy7fuLk+20JO5xxNZ6KDZnufoQOzQdjybEqI5rmtRQnTHc00gYHqOiZTiIColfJ1Jf2ZIW0t7Vk9bywetisqjfNCqHL7RnXzQyqh8deZBp2g9PbmndZ/5jdm+/zFq97mZbHiZzJfpak/HQq+py/1Xmu5yHH9Bo27TXe5UsNBvllvomipm3gByHHb7EqwFS3jJaJmvDkSolS453xWVqOsP6MdToZjh7pEYwOFWFkS/JSu7HE8zxoa7R06mV2d1d5fh+fbWCV4Dh8jCu/HftV0R0POP51ISE98dZhdzje0zPoLrUg3UxXNZBH334sQLv5Ie7M7Om/ug526H+pSJbv2SqDTLsWZLddvzzutJXvcMydlMsm22QRfOJ4NWnn+waUSSTX65stv8weX4aM+c2dh/PB85YhnpZ+lzjxDN/ZOIC7prXkZvtx2KLPQDjKHX1OVudgADeqeTrHYXG+xypxzQe1Evj6E/3tt7LAC6rCFDBRu9C/V0uyvwXGFTQ8kzXAsdSEmd1Sa05RRPh7u762li2DBzuq8LiA4r12MfNoPT9WPprGh1J/G5b58A7vxQet/X0g23lxHSs4eL6fg7mSvk+JHc6792TDiC05m/ndVYn3Ri19OJys7O2j58ZnYwJaDTsij6wsblM2fOX74zAxQdvXr+zJnzV2exWjcuv37m/PlZ8PFeMugs5LQ7l8+fOXN5lkEXNs7PepGm47gfvFrLVJbxN+++lrZ3v0F4zUju8VPds7LDPGgLvZ4ud0MAdPdfO0azXe4yKS7ipLhRrzeSLXSqqMtSb0Od4HprRHC/E4nCnrPghWx0woPlvLYLFEnv9RabOXExztTe3t3d3U2j0svrMZ7GkfGXubMaVq/H2eKxMb+apemvso5s8xOQS+UDUYn8MLs73vEySiBkb15MphO7OznJIZtSbG9vXuKiMHA8jrbHSXMTKXGLJ9e3MzwfntyHz4hq0+6EeuUYefTejGi0cO/erCyxe/eOzj7ovZkHnfV4n2DQ8XiuibWln+1iZdqvv+uZ+LatuQ6j4htuhkyW50eBZ7csd8nlLlroLuloDReWES30mz3uch9FN0dFUhxIX/c609xJQVuGIOY1wXR3yVoHkfIuvQ21FZMhq6fXTsft5XR5+dTa2qXrtzbjgHQMqEcWM+ROre6trc3t9VPHl48dO7Z8fDXRiEs2vpiL7qSAPowtdFnMR/CXrKUbDpd5OiFJxWbZ8AzQ03WL68PhMBOMO3eCHcCx5ZW1rG7qcLhzJDPQF1fT84pPLf05d+l6yt1jeL5za/kpX2y7P2rbfLW+i+9uc2BvGUHvw+fevtoLDOFwqOF6tu14eW0402XNblnuksvd6MALrpO1F6ADeR56Y/FcsNBvIgs9GhVj6I1UlJEdwDxuLljocoEWEOlxipS12pnlF3d2djJXeqyrupkJxMUu9N2d3d1zuXW7xiLa8aZxkZT1S9fXk4zu1Dl+63jOIFjd2U0g/ST3f6jJ7msZ9C8LXDkCF3eTtsN5CSu3hsM8H37r1vr1i+ubW4mcXDL7OJ19Rsvr8ewjm4DEJ7YVb5vMPXZ2dnbOPXW/h+FGLYbOUeu5JobxuShwTU3bcWyzgPSaZcerqVAKGw7OQq+ny93sdLDd1kkN9ua63KW0NcFCl13uVBSLoc2DdO4jRxguFFIVi51juRkQVeHqGU6/uLOzyyB9O4H0RLB1O4doZqBz5/biuRjQE0jf2tqOHd3bWfR698hJfmU4oGPte0RgyHMM1lLcHi7nzvZkWR/mgJ73PTkcise6vcmPYHf3zZwsxwA9nShsx4fLjjgB/u0EzneOHHv6lxs00w2iQV6uu589SSt3p2tHaIuR8AJtn//pF/4O8pri/DnaTb43/jd9V/7hByEfEj4OfMyoDLn0bn8kbILPR6jILr4t7ic/rnwQ8eSFQ5E3GuSlaAejQb93zbU0ijBxbiKipZYYFSYfB3nY9XW5Gx2pEafxWu5dTIpDFvrNSBlDl79DDUJ07HXnRdFVSeiodiq23GvPhLu4myJ6Bn3DbQTR7K3TyE+RIHoOqhjPd3ePrKIpzmoK07snEcWdECGEnlz0DNB3lyUZvwSSd3d38Fxp5dYwR+ltfgjDbRYTf5MfKgf0dOut9NyGqXm+PxH0JwL3J+oiMD4E8gGflfICRMJ3ONfMJzJPkUwsazQ2jjUvTVURsjtG6nJe7PNJ8IzvxgcLUHVmuXc0oeluw/PQKY6hj7fQC3S4RunJ4KdE8rtPuv8CB/96Y3pioe8Mh5mVPkxc0ql5vrtzTuCTL66u7yA8H3LsH14U9GY4oEsMRFGuD4CIgM65DBzQxRS5bE6Rzz2yI7h1CpncKaCn8YTsTxrqj/H89GIdPh+oMgUAUOggZSjP6Z1ABCyvf6Pp/YgKupYoEy27iXWFPl3ut54fE/1ANj1EwjJGB5wSLfemOtwBojCMFCz3IilORYerv40uJ1Gh6mqKHDVQ3EglRTm5jHqtXO6xGb6zmxjpqfU9jNcyC/eUBHuwfOpIbqQPt3PsP3LqmDAZwhY6KmhXQBIiAzovYCsCes5fWFy5uDNMmfHDbPIx3B2+eRx/CMt5b35Sw8w6Z2tXF2uC4pKyESFCTAjNRnG5QEG/GISnQMZwFOsG8118RxIpu7Sga0kFP7V0Z6uf8EhbPnUyy735SnHxQ//xjz9mFvrNsWlrRdO8pq53tagJstAFHdcxt1pJRE7SiaudL/5i7H5OUX0nTuba3UnwfGd4a11RipRZ6Ue2MvCPkfXIugSPILvcecZanvCXrUWATrjxWAbocfeVc7eODFHbPnJr7bj40SSAnsxKUjs9OT02dTly5M3jdcsjRMZ2IdkCU0EK+ggEVywgBTGGWhvq3bE+dwGrlQJZTw8hazZXqDXL3T1k9dC7gAAdabkXhGUEooYCx7v1T0hHTl6x5rms/gq4ICpOPwdJOq5m7dSbqnbu3Lm106dOlqEeHD956tybF9fX19cvXjx36uTxorW7ku1qBevsQU6M4ynpq9mWxwDlBxKA09kbCnmf5ZVTp8+lB/Dm2upKIQHt2OlxJ7YMdYFwQtReIsBfPVA526FQBxBw+YGGed2FqpBdJbQX7fAu79AiekOEZcos9MUmx9D7j398XFSKK5V+pSWCcXUXl8HRXAGWQfBUFvXioFDwvK6ADoslDcbVco+v2LFjy8vLy8eOqTcFviM0QxJBJAGVRbwl4nQR4VjkQYDAYnwAy+pjHXNi9VT6KSgYYZwHRboFKPAfO93Rk/qb6lSWsETGuWiT0AIRjqJikg33pB8ClvsLxq+8Q2Whsy8vstCxlvvjYrU1Wi4WV2uVOCGKS7h5LtdOlaPpPKwOSsJSY/RfYfIGatoAD+pmVCzOxEYV7WSJH1GWj4vzgYLlhUZsmN7uVMa6UB0op7bj9AtQMOILVw6KVPe6gHoXW+FUDdRF9g+G8AIriB40zWwuuG6HwOV+KKut4Rg6J8XtjRiWK+uhF4JVtHJYa961ZYAoKq1JTGEBs6R1Ms4dDqiZAoyK4vkoYZBw0BdWjCtyc9ivbIGMCVJcqOSq4TTN+tvk4wx1FTeuaKALcD4/lLj50JSvrcvd+ZX1qxdSnvsL5gtNt9CTL27vx8zlLijFRZFCWEYmldD6et2JKq+WlOauQSmqAzcqC+7eFsiJNPHhZWkRIQ5Ef6/AUhBwScy1PrQQDhITDkXDkbcIiCISJBjzKOxBFLPaWqJ30ZagasFqwVCXkXz+uMuty31mYZlEwF3v5AH1psbQk0duofcQKW50s1fUcqclQgz19bpLZjlP+QHEBBb8miBoxyly1EBMJTqE2KOoVsdNwsz9AdyjjrOigcv15LCjCIK0Zrkq6AGY1iCrHSIWJ6YhiFdcQnJSUzinpZtREH/F1ZR73NulEeVTOaLrnRzRG2uhF13uN8stdEUACk2EmyAal93ZEFNIWX6lmN4LghHatjIQki8w9g+DIHGCMRzEajjNuixUq1XT4yV9qqfPdemnsEL5k/0pPOWLnv0VVuk6fqfwfGwr2VCjBdZcuzShfCoxTUjKoLsvaJ2O3vTyqYmF/riYtlYszkJV9FAoXVlTnntuN6rdxkpzHMRYuZA01CK8HOnFqdFIYobIInK5/S5LpDTnklLLC65FbXv27Vrg2Ro8FSHV+nHday4s45AOTVztWmaiN9ZAZ096jx8/VgjLKMunyjHz2tdoIWIElyCPcKHkGqrQjbLZchBSKckc8lAvFHPGcRxd1s4ngGumqvLTyDS87bo0zRUql6RVQ+RiJfEqvDrdMl9R2HiASq2kK/OiJf2sR1aJRS6ZMpDrrIyUFWN4YZPsHaFcCq/zku+gn9VLKR1LqMAiF57p8/3ke+4LR6kqFIOPUygLI46TvuHqcCCl0KnmhP+3F9jaLFhOtSVKnynk11pYhrqxnW7HLy1enKWpyq8UIHIcT2Gh3xzjcseSyWOM8+7ce9gVawio0s5ASdgWkRsHJlujnMhGuSBxgoqtEUSM41XoEQO7ZklpYNCpNrOjQVyDG8EjekjLgSUvExQbjTAu5StGOTblZb15GbFR/j7fzWDES65lSDxC/Qf5XtCD+LSPDymFWHRceI99aRcDYR/iWEJZNPkIBuLh5Zv08SB5NTl+ZPnlwNcrO5Y+Gqk/ihK5jX2+1WrOxofPvXrmuU8/cKoi79IL3gcbGx949tKz5M3VXVjG6XSMhOjeIS80PYaOi7MI1dZKy6fSIn53a2+ki4gOmBCs4BPnQAMCXAEpMOWgkYHfmWlyOLkPiBjoACJmUYlxCymI/owvqmkmoK1Ztq0RMK24mfEhGb4Opp661DV2rJZBIH6mWXrubff6Ehz1M6RZOLowkvB6hE3hHM2wjZ2suXdPAjj+LIe1AZ8koLcX7i1wKB1g6MwLnY6kPaQAPnpwrwi0GPNztEeInG6cnqkwm+nzOUh2KH1xBtCPB12QO6A9C/MdfLys3XswEmAfzXD6Hp0KIQ3TNA1NWKebcWP3Sd00kd+e+p+++otXfvHKK6/8+tOKpqHmb/z6+eeff/65T33t2VrotWW5xz522iFuCuhOo5Xi4m+CutraXr+/V+JyLwjFdeuYgS6JlBHA1HaCA+llgXAgkvQMMiRBLRh3KMFdZrSJmf7CJeaFacV6d3N20WgYWTGuhyz+alE/CcT68WF6HqWBHW+nRx4lhEYOgZ7Fuvladk1cDDS43fn1iy+++PbdEcYyjut9Dt5FS/rD51988flPFxCOZQ99GdtH4hZ3nnvxxRef+xaDpwjgyCLGgDkaLXz6/IsvvvjhA3GDgbhRfuTICdEfHX37xRdffPXOguBEkHqLyJy3jVfZRXowko122UuB3ksP5QEb9PkN6QJx69+b6taZfOA+Mg6pm3wHLOpEUS+inDbv3zibtp///Fu7kqs+/PCVtH0YyTY61Z6mhV5bljtzuf/mhU7HFKTdm0xyx4COqq09Lkq/0mZIxJHylbhwBaLBQUEMDogowwVSlu+0yUaHIK9qfBAcsNoMr+CNHO8wh+FyMwpcIIQGnkENP9A13QgCXY/R2ogsQgMbEkCPbEJozyFdttYLjWwPVl9GodQ6T2/hr36K8FCBVwoA+/bXSddfH8W9BtIOBqpdfvrzZNAPi9sMxEmB7Ht/8Lt00G+lQfujwulJp3Hj1aTr7x4Ujk7adCC9dTQd9NUbyo7jLld2kdJB+8VxpoJcP7Qs2wn9JW4fuz2beWk06nhuGHEL3frmtbz9+7s9vYJlzKcCZ8/e8CUz3PSeqoVe2/KpMYLTTsd0XDNjxzXU5Z4+Ygv9ZqmWuz6Oxk5r73xH2bmgkmoXK17IT0BS+Ciow8LhssuhLCkdXzOe34/T1oQsaqn6zbxMjsAJrJAm2E2I6eqEUD/ITO+AYkAPjdhCp5FF3CDHc3KtBHBuvHb27GvsBv7ajVG19uDd+Mb/2tnX3l2o2PXGaylqVB509G4y5tmzrx2t2PPbdNDXzv6+Ys+F3+cXadZBz559t2yTSJ8Gan321+6ZFEzXcy3KLHQ9M501L+Ibu59cuMJ/bjgVyOXfXHgjbxe+tcS3Ta9luU9dPtXppM06BNKvgoU+vtoaSPnntO7xcylNCjAFC3B6eSGsSyQNM0FSrpV8HReikGrUEcDudkFRHwp++7kw1DXf1gOLGepmfkBB4m8nRshs8hzQXT+kqcvdjsz8sI0SNHl0IW+fPKiIyrxrRVj+l/d410czD1oVlj/Je75XEZYfootUcdDf867flrk6pjDRu74fA11kUzsK/TCymYWu0y5NUMbr0dwl/MEnV65cufJR+vuJN71/3PvkvStX3mO937ty5cInrmA0a6ZHdR2R4SmlLctdzXJnyE5iPNcbXz5VcLnjamvFPHRl3loj5OIwy5pwhRlsfosADYL1KMd5WzCflMsmBypEGVJkseMcfxWwPyOPe6hRzwcM6NQPkpOymenOAd22Imcpdrn7vcjO9+CWoMn9K7w9rAiQvGdFmPsWDXp/9kGrzQUezT7oDdS14qDTXKRpzLcgttCdyNT8UAfN9yl1b7qO4zgMyWMLPeO1ffCx0IKpcVfzP/noSv7z0Sc/47w4arvM5W56Zqb2bvlB4OoHaKHX0+X+K9BStVfH0Kj+QtOLs4DIcsfV1mSWuw6lldCb0TB2F8xDycwE5DcWtWRAnSndtrJUP4H+JnnYocBKnI/r6vim7kYGBvRuaqEndDgE6MQJrdhCjxw3zDnufgmYfIdu/RUBHaNGtZ73Uc/vqgHk17zn1w+f0qBPcJEeop7f/0vJRt4UWd9+YNu2G/pUD1ygYPcodXue53mx7UeRy1374KvPUPvqZ9q0Fro8FfhA4wjrGszlTi0vxXAjcnTTdw4wba2eLveyNncV7fazfKrAco/G5KHT6UWTa2ed81xoIRlNNB5FxzpIaqYYlsqz1eBw2uWYayjk7INARcBpfyA4Q+boukHCZ3ayGLpn8Bi6FSxJgA5+GMfQXaIHAUwCdHTvr2i3YtyoCOio518rAjqCqodPaVDhIlUEdHSRvh6VA/qULHdPByNwoUvtSOMxdKAM0LnL/asvUfvKn9rbq70vTgXe5xa6ZwHVWTTetZOB7GsagOsdnIXelk+tD9Udx9CnyEOnYpEDrBZXc24ckULpuGYIUZngQrYVwZW/DzF6K+cvUFKyhUO3yJEjkoVOCpJzz7BZoaUbRuBTGroa1bxAz2PoNHDShyWNasAAnRhhL0lbA7tnp4fulIDJD+jeXzGc/T3v+XXFmDQa9P7Mg35V0fs9+6CzX6RHCFy/fxKXux8YcR46s9AppBa61k3fX0Iud+p+99nH/OcHZ2pKOvW/+vLLz9gS//nK55MEz0hvvyaXqlkyA7tluUsu98TbnjRXAPRDEkPHLvebxRi6kIbebYirXaymihLRi5W4JbEzEKp5Ipm4Q+1xh/FvFovdCNpx/GoSMo9oTgj4PlOVsUOTWKHv+RFD6TSGbiWJaTQIfd/3rRjQwU7T1thGqdNdL4W5L7L2/aOqMJd3rQiQj77Ke1adRdzPe35R0cwefZ/3rGjbjx6ii1Rx0O/48ZYN2remYrl3s0B3wFzsAYuhCxY6N2+/zRlxH135ZFAhzu38gD3uP3C4Njw9nRYYbubBt7zI1VqXe8Hl7h7r5E1zGm2hq9LWULU1iRSniynotJCRTuthfoOiQCTB+jK5izcXPxGk4LhaDDbeYQyzHQ6zVFyBTMhV7wtysJIAQMGonxNQp7aZPBiE6LbraAkZzoph3UuOz7Ztx7aNeBsCtknA1nlXQkhQhpB/TltVVB49+jrrWnUqwAf9c9VBR/mgn1cd9OHnWdeqU4HRdzMP+uiL/CKVpq1NA4sJy50tTuQ7XuR0qdsL/MAPHOoGYdQLwzDfNk4FeCP+/dauYBtqfcThew9lsGu+md5ybSfl2PkHB+e1drm/QDqoEYsD+mKy5WKj4udj0taKLveiTFwpmndrHVDnKjGF/HEAufAKiFwvkHKvW91X6WoBFLP35Zx+IOMl+ua2mVw5ZoLfwuyXIM5f//TfrH3+Q1WUGz38Ou753xXZabF1/3nc80/VB330/cyD3k8HrTz/GD36/p+Ti3S/+kVKBv3n0kEH1jT3TsfJ08Vsz2OF2uJH9jR7kge0Nf/Gz39+9pWzZ19590Y1X6/97Xuv/XvS3hM05hw7Ea7RPCuxrFgCXavlXnS5u9DpgEY7HaLp7KGTrl5E+NcsJXeJFHdzDClONsppjalxpEQ1LpcsAx7XFVzAQORkNdENX0xFb93u5Qlsoju9SGmvG6tQM6bXpimFnO8+//zzH6rj42j06IfvP//86/uPZugaD/rdwxm6PrrPBv1hpkF/YIPen6HnKBl0tov09eeff19+kZzpaM9I8p1qcTF1KjduRDrffPgcE2Tv2f9WzeSyv0018d7dsCl6Q2dAznYcm+VMji5yHce24eBi6PV0uf8q0Xx1SMdJzHVadLk3y0KnIimOW+iJ9qs6hl4Vwbu1QHWxHLcA3ZnmSTF3LdeKBZHH1bLbJ6Wv8VCFpKaHve4NVthzRm2bv+YKZstk96asOIMeMQC7vdEocmi3qsll9u68/fyrb9/pWbLuq2eZtudlZpYVBCwRnbYud9HlrqcI/kJnMRGOy8unNpfkDupqayrpV/xFV0I7rZ97XVETPWe4gVzMW7TKi5RtwcsOpE1cK7LaYEKYXZF43lCKoXWtxc85a5Et1q2anoiUwLgA9ILeR2Kxz2ByveD6PpOWld7Tbcd1rCVh7IMyN2vMctfSuqnuv3biIi2k+dXWoKTa2o9lxVnwQ92J7kQy1AnyvYtwhGt+FrAahCKfYmC4tcynm9KADPrzWmltHx309pxA+t5hAu29MXCuZ1A80UIvVfVQF0yhM+0x7tgtkZZLHP1PJRJcX5d7DuiJz90hKgu9QTpxMSirq60VpV8pKAquNUk7TnTBiyCDFORIITkap1kBQKv+OtHfrqKsy+L4JU6OuSrT8uSY7kd93Ab9Qb+slb8zbZdBtpRuNKiwz2xXg+J7A+X+BgO2pE8H/EgG6ZvZikH60x9kB5xclkFffJ4dxABdN2HkwQgdIt/RQLwY7GXko2oVT2TpSvdX4emTTRCqMJ1bl3vqctfiR7uTWOgdcBou/UpLSXFFlnuTBNzHu+ELudAgab/lguMCHQ4b9iA/OZyWOEy9pRqh2ymRMjSBc/dR9j4W0MVfUEWSQa6bBHmd2ikrDde7idFCKvscZzPNx9rlmLA0g4X+zGC8CSx3s0NeiAG800keoNnlU+OHyPN8RdraTWUe+ti0tW69S6jKiemyfa5yEHMtd56aDm2+WkXfO79kUoRj/kqhz5+nAwshAGdwirMqUAj1SZMCwLheVyjvyvckCoUbl5iuIyF49tvdB5u44A09eAu9ZbkLLndWNpUa+r/GddZY2prxm+bH0PuPf3ysqLamttApyE73hhRm4dW4s5siv8eh+t2A7oNFFhe0ADStjanyY8As/EFo5EWCse+DagXgpwAgi+2JXA/+1eazAHlCW2sznMprKAJ88TZGCz0rMNgqGOsHZqEffD30ugrLmKmkDLi/8aDToV7TpV+hywD9R1W1tZtqYZkm+tkFGbm8UEuB2aYAHFnrHfIyJAAEoEX1cnAqRy6FjwPaCymXnAMiiBpi7zuRlI5AfDP/kkKO5rXHcGX2TaHYM4UiFKsx9IBkOWu51FnL3YJc9JVS01VVW2uY050iQO9NTYprYiNCKVXMcMfiMSCvFWLrkgB8C0NFCb39nhgcxnmRGJoQKhAIRYXKdgFcQoFnbDYtal7EdKoy42kZ13c/49dPGo5/1hZ6jcunui84h6bamuRyH19tTfiHyP8FurXRkZlI+SFE0H/FpcAkBycoHKA8fCnec1soqu6LbydC009jVDMlbnkT5GRH81IRy8WEzdoCeFdhq1MJuotFKEQwp5W93U+h2sYcxNAbVz61wTz3XiYLJ1ZbU0q/FtkkdTfKiQrZQawLJgnHSfY7SD5iKOZkQQtK0/LfYZ/xrrGXUgpLgNIvz2PliB8iUN2B80UaRmOnqqzaQu6tvNUTpKEfWLWNebDQa1w+9VDVQ+9SEFzuebW1vRHDclXaGlX+B9Faw3qRJYdEXBHjDURNOCDY1ylziktpTG0r6rRDC9dVQujid0vUHYZinhrIVXEEs5yASHGvmU2eJ9dQ2VjPeXB0DITLpPJZKWzNXertcle1Jn9egsu9XClOL4XyRnHjpBwqkKwgwDdJQoqezHKiV4tIE+V22ss3JRVBdv6oEyVBMNUJSqsEXtauGEavdyBdtraplFNbiI5jbyUHe1o/O7pluVdxuTfV4S643LGwTIn0K22guIyYr0O4rLsiEV1wVhIx31fyZLaCcap8K6hijLZt7DWCCTL5gqyMDO+Qf4sLxJFm8NyLDnhFsFB0xcvA3i61Z7kfshg6+4Nc7shC3xvt7ali6FIKuuDl6jYB3Ikg7q7UgANAjkui1DEtZGG1GDUrfDf7ylFNN9o2rpnFlyZfb/JfM3tmii+TNfivsEn8Ql9CN7Xu/t9pNcPQZutJDWOpZbnvr8u92dKvWFjmZmnamq5K6WyEzkyegSuYKsh4IZi/DkRQ5FAQ4CRSXEuLmw6poQTAm3zlNOdav23z0a7xgpL7bjZZ10b37g18YwYsDQaDwSgwn7WF3jyXezNVZdhj6PtBsdqaKm1NjjgVhRtqD+qSTJwqEFlAIhSZJGLOeutEfjqpW/U8KdPr90eD0WiQ/OnHv+lDvCZ/3o+3ydf38Yt0M2G77N0+3jPqk4zEt0t3NBB3j5/2+ZuFofO38SgDNC56yofDT/NdDfCRo/3yweVewjXL/vLDzfcpHlBfPMFku75vopLm+7fo3sbbL7744vNvf+Nq1frq7l+u/9dvf/tf63/xtGcs/do8l3tTPe5QUm2tqOU+IYZeZ4c7IWIiOsmZv2LqOci2JCh0NSdlZrWQfDgbFS4CdXtx0c4YjxikJG2Q/eUomq7rj6SHQfoi/9PHL4RNpJ59PgZaIXZFxzTisJ6uFoZOoVUYp4/H7I+Es+uPMDL3FSeQXZBBYS8D3mVQOFB50L54JfDBSSeYTm/6rj6d7WbZtm2ZGJ6pacdNZwa57bDHDJXDD199JW6vfupVwhH6/h//67dx+6/r72uty72Ky103xzSjrbbGY+hlMou1l3yV5F8Rhz1jvGMjHJSJwKBKVoMW35o+RwDLdW06YSPXwXh+DVmaoz6yqEcLdxcw/g0E1M9ReiAgU7ri6NEUswYIyzncDnIUHGA0Zs+SQQcjAWSTjft8RtHPJxh9Puq9o+lmeO/CxplFPJLmEvmgA4z2GLIHGJgHCNkf3M3ReSAcDUfvPr+62KbnL7N99vNDGgR0Ku1Xn9k+UWgh28iNV0VW/GYvCjPQoOHvz+btRqXorf/H3+btj77wnsEmDZZBW5d7icudLYulv41OWxMs9FItd72UMwoNcb8TEO1zgtWypborxTgvoPx0ovS6z5DH1bZ6XCDqB54XBNr4rTwE6NTD0DPg1uO9jTMvvfTS+Q3B/MTQhMAIvxiMRncvv/TSSy9dvSvtdSSY4wjc892NRhvnX3rppTMbCyMRAPvKoQQj/O5VNujlu6PRqGDViwOj+UvcFu4kg94bCba+vAOpW/xw72p8ke6oNxYmMbLrAB2X4L7Imj8NwZ36gWGYdhBoFCjVYtKa24tZektgR66hWWGQbmt9++9v5O3CvQpxdPMv//Hb5If9+QuKo1uuY1umZTuupUHrcp8ghSrVvmt8qiEHdKHaWkHLXbxCjUtFJyBiOWBQztPYhLg5EWtOqzztokRNC97N9NTboQlghg5Z0qluxriumwaz2EE3DXYS1DQoBnS7CCUJysWg/NJLZ64uqFzW49rG60nX1++I4DWY2HPhatLzpasLU4wjHM3d8+nxbkwaaSDNXEYxKDNcvituNCgbK1/HB10YTdv6ktO/9BidaZzuvs8e7MiCJdvzPFuj1L2ZRCWpE+lAqRcl1jP1PnnvyoUrV+Lf967ccKbHUff2f/znf/7Hf8a///Gft3iuleVqaR0OzbZo63KfEFOWBQOanJMoudxvlpPi9PGSr91aIrhcNlKoz4JUM0EMowOW5JID50TctAXlQ9Cc0CAENI3YoRdFoUHACaMo0Ak4URR5hGjsZYAAPSqBlKtnkpYgZJV293za9czrCxW7ZoOeOXO1Ys/R6y9lXe+oIby03eGDVjzehctnygd94tbTpyjN4vuMO2dGNnUi3/Eih7nc9RQvGJJrfpRsq33wyZWPPrqS/F756CN/agDWfvOH/0TtD7/J895s39a7MZpZvt263KtK4j8jC51SSpcmLfsB6TiGjkhx/f644iz4VbfG6q9EzZAjXCQORGk4MUVNqpsqiHlAi+eHpRlh6Fo6JcSOXN3wfWKENmiBA2ZoEiOwiRtZuh1xQDdL0ORoDlVnLj+oBkQbvOvGrFOBM2fuzTxo1bkAH/T1u9V63nmdX6T9B/S+PfmWT32Gy9SJTM0PKIAXUOr2fN/3vfiWrFl+ZCf70D74WGjB1Pds7f3/h9sfOC3Otm3XdRzHdWxmobcu9xpI+aWcyYltH7IZcAydk+IeP957rCDFiZNXbJh3G+BwR4UqiJBYTtS1zTMdGjFfbWKFtRbmm9ZMxw8jTyd2ZBKwI7AiQ9dd798c39QN36NeAAR8Duhuqduct4owd5n3vFwVIHnbmH3QanOBu7MPii/Sg/1HdHeKyix+6DiOF3lUD1ygYEeUuhHDWDv2AvuRn+I5aB989RlqX/lT68tIgP7/3s/v9bYFVNN0XaMC1rYu97nV6qW2Y07VLM94Uo87xTH0ci13rVDASGmTd+sN6ASVniKorrTKuS4URi/mq4EKxaEF9XEzG6i4/RydCSzZkU/sUGdmOlgx49lfSqjPPvV8kRQXlDm/33n99Xdej/+8XtGdnHRK+lYG9HeyZaOi8/udvOvluxUHzcd8p6JxfzXr+Po7rx+Az92jdLKFzpyZgU1jQGfBdI26Pb3LXKZUDyLfysny2vtffYnaVxUS1/w/CBb6b/KeyCw3n5KFXmeX+xwslm2ahjnVr6Pto4WOqq2pirNAA3ThxuWiE6wuw5VlQCqnpjTBC0IyUAZELZQ3jhVnMOIbDQKwWTA9BnSNUk0Dx9cp1TXq+UAIstC9MuPzHd6qWuioa0VARz0rAvpV3rNiiGD2QUdXZ79I0wH65CC679PEuNEDxlWLAT3SE/PP7rlLPHRLne+wx/1+hZi380cM6Lc5nY5Z6AqZ9bZ86twuTozVU0H6kwdR1GlrJcVZlFDeGHgn3DCXFNxlkJGIcKA2w9vSqYeEFBdZlJqhC3bkUM0LiBmZAI7TtQKDaK4NbmRQE8XQnckwVzWGjmCuosV7FwHkndkHrUZtW5h90DszT12mag6dJoaeGeB+qAMLpFO3Z2iaprHIuqXpmqan+zB7V3j7pFchRmoMECvuDz3uWrZ5/vvTstCb5HJ/+ovGHO7BFPrDbDt3/9LWxldbo2X5avyNbhN874QIxHcQ8sslOdhc9FWsNl2WrI5LV7cw2IyUtTirPIjCMAo0YkdBGEYWoV7kB+zRD/0g0ogRRWGELHQ6xnGetqokszszR98XruY9qwLk3ZkD4SM+aNWpy93LMw86DSnOmqLYmp/LvNhR6IeRHQvLhNfC0KFOL4zCMAyzYLn77YUsDf29b0yYPpZLX/jLH36bpaL/xebvYJf7U7LQW5f7k11A03Qe/zi59S3D9PbN5T5icwRx2Md7CpZ7t4F56EQuuEZ4LXQQSlUWyqgSYbsJjnZo7fVGTj5M27YgTki3bOZ/Zyt0htyWbS+xMiy2tWQYvIM/icF9vmp0eOHqzLln+aCvV/Zg54Nerpor9yCjuVdH5Y2ZB52iXdOmSGxyOMSZrudalFLbjZtFreRJpttOwbvx65+/8srZV37+629sKpVfHy9a5vwllX5d/wuu+Gk6jA8HlC7pttmWT51/l7tlm4bDQbXQ8rdGlml6+2ahlzYs/Sqr7jQtkM6LovPkdMl/jlRlMM+doIouuLTqIaoeduhbTIqbKureGy8Pc7462yuRT3vpzNXqzO8752cddJQNeq/6oImGzixW9kaiSXP5ACLofRNgCpp70cwue4tRnD/YePu55z7c+JmoAjMFOdp6/y/X19ev/+X9F3BYn5qO7di27TiOSVuXez04cdxCv3dTbnsc0JmF3t2nGPoEQC9F8EaF0AXZOCT8Oi4qrqrCBqA2xls8bzSg+1MCOtillvbG+fPn78xket69ev781aOz9Hywcfn8+Y0HMw86E9l84Q4b9N5sx3v+/OUDYLiPRvYM0iOT6qdTzXR/5jvmkkC2mwrXWc+fueYxKu9RM0yDRexbLffaudxH/1due9zlbu6jy30soOtq8KZlOWvd+uK5EOcGjuBpcXRl4W6RIgfjcrJaSG/bGPHXtj3D1rcVahtT1LiayKLL4pRjTfqy8ll5/8kqaC3LfR4X3TENqzc5hP7YS0hx+1ScZaKFXtS7pw1IQZfpb9jXDiApuMrlVACJ0IAQKc9S2FsQb5va6+63ADpnzbeoLAA+ndt93AzgiSRN5kIkpXW5P2nQwmWiMeFEPGfZbZb9ZJ9q7HI3PaZaWFjSR88ykJY7Tl6joK6S3q2lXc7l3VMrPeOv88LomO4OXD8uU5bh9LmqkiltO3yNKiB9bwzc7B0YkO1N/8be04XYvemH3Ztuy/L3AxOX79hXC131/r4V42hZ7nUIohum6e3FAqzqnx9/HMUb5XVNn8TlzpPeDVwG3pT1axQV12jB+d6tb+i8UJgFpDIrhXxzQW6mNBu9bW1TY7rleMFTbNcKr67JK0u3nrTVtWul/a9Nf0jXlLtGb/IthGfX8JbXhNXpdteu4XeyN9Lz9+JCpBTd4fZbTLS+Jbxal/s+SL/GUnHOiNnhyp8ffwytGGhN+oSTPQboEqSjJcN4nLZGp2fFdWsE6tw25zguMNsKz6DIYJfU4BW43gJ92/YlU05iaubf4nF9gJcNwrGl0jpFzW1UvJtxZbeZoPeZKYi3Lvc6uNxZvgLzuhuWV8aciWIxOcvVn3zux+oMTGyeJv4fdFFplubkohMJ4XFQHOTYOSmkpQnlWUBJiW/z0Nv2ZDCuFh8GwpWLx00bcX6l8JUnUoJHLcEZiuHAchTMPeWFOHd1VH+m9a9bl3sd/BymY02QfTVMOxFkfcKxTMt6wbLZHyt9YM/SX9tKGvNrdMea5N1aYzshEisut3ZAAmfAkfO8xGq+icySb83ztu0XlEvzQhBCQNg4V3I5UdVAGIPepBnmt2yFSzHvgqKGWC2b1sYd/rQs9Nbl/qSL4djjFd0tx96/DzTH5ORll4ooTYv/JXSyuEy3vra6ZLRPvMXi2i7qO3Db2rY/yM5dR6mfCAp1gjDQZ7ROjuioQHD2jZ2CWTKvrau83YwXs1TdvKhI8qXt0grL7O91tFxLDmajR9s19g3Pu1RwRGXf7670JacqDlxTkJwI1joOOSpUXQui7DxnvYDn0Pra21YNsjUNpjTVBQBP/0GF75tcZACQTrFQYVDXyqB8ErRTTZ/JM0e11H6u3F3TxIG7Soe7AsSTxm52hkZV0P6sCmbPt7e4dbnvz6I5rlsS02aiwbCv9jkVgkqF4BQthqxow4TiuO+dJ6nhu2JBNK4Q2ZQtKZzQ1trqbZsOzs0gCiObqo1zHj8XC/qyxoq2uqEgTSx0FXIuBZymNiseY8z0H2MFYRhYVQ166gZRFJcqcaIocrUK43lR5LOOVhhFoUWniK5ndywnKU+vUedaGPlmAbsrZKEdpqV1ue9bgIRp/CnbfoZ55GmqBNhStrlgo0vzAVpTfCdESY0TheLGMYwEYygPtLetbdXbUuCZphtZEwM2yNhOvm+eB9QLSDFGhIQUcNEh/mU3Q8cwQ29phv8dPXINww2r/ttTz/FDMwZZx7RDZ/qetuvGgG5GLrtOuuwapOmTLsi3JOqEjA9kUjt0TMsPl4oO+AZkmbUu9zlengmzAq+lSlE4UFru843lZLqYuUz8zU11UBo+RXwvIRm38N626ZoR6YQsoeLpimAPmjpyRqYWV/EMsMddEi/kwSPsjAICDkNIy6EzxNHj0u9mVNm6p9RmPakfUGalV+mohV4XwGZYbkTWxEgfv486QXKGvq8BtXtGLiJTzpFrl9blXjcSY/xPYsZScJYOlBq2bTL6vMlC+BotSw+REbzeNVUxjvOC6IQH1ZH7XajYAkRSjxN47yo/fYvtbRsbQWcw2bMVXxlQeIf4Kjs0CPUCAEyek8x0SZI4+867HtXwf3oFSpweOprmhDP8z9vMQtcCjz3tVem/FMYud3aPsmK3vRrGi6lsTpDE0FkMXsuNey4OJ5sz7dK63Ou2pF99rcfKEtDIodQNPS9kAaae73l+aMtmusoj36yWGzDSbROgNI0ov1uSYpQTWjBvWyVIN5zQ18q/NTltXYit08CnhLoBlKVL5n72XIgmb17g+aFvzfTf4kZBEDkzkOJjCz0F9KjKXYTGgM6QxoncpbFKV6Kv04lYoXLmQNYsL3SomG1LhVtbCw2ty72Wn1byFdYjh9npkUPNyKJLRuRQLbLpkub5uvp/RfbE1xnXiZCTmxOCQXCjSy/kGyVfAUo3fAvlbZuu6V4Y2EuyUweUriD03TIi37btIFBiOQgzT64sk37r3cjU9MDXZvjfMULPNLxQezJAr2ahX4sB3fTD0NbKfexFr6ETMUKxBdQKIt+kxWJTLSGudbnX3kBPCPVRZqFbIfumWyalPYtNagMdFHz4cvO8W1tEF14RDOqApTlEJ3uBo6SSfC1w5FrSe9vKGmVesfEsTPFrlX4/zSAMr4VRwLPP5Q5A5KJDWeKaF8fQw1lo7g4LnxuhPbPL3a8M6ImFbkSBTcfedLqyjc5i6LEPOYFzKW7OTfQWF1qX+0EZ0JqupSXtkydLNF0P+2ihU9B7sYXec6geBk4sDKdFjmXZzDFF1VQ4zG/vNsb7jgx1bHVDSRaRUMlFsqAEj72YZdTiVtvKDHSB4C55ekD8NgFKM6earuuGFyCrXa0UR3DFgSy4HP8xZtCTcWJS3EyAnpDiQg3iyP/07d9iQLcjq1QjTl6RorQTZBEGo5ic222d7a3L/cAro3tB4DNI1dwgCFjJM5sRNJnhvL9Mem6hg+lFUegbsNQLgyCKLEVCWm2o7dWV4SRZLa6pVaLkilLWAOm+AlaKHUdualvbZJa7xyK9FhS85ihNsqSMACPFCR4jVEYICBZayNifyWoz9Cznmkdn0IrTI99GKWDT56F7fuS7DrUi3/GiCvMB2/Wi0HNNO7lOZtk9qVvE9JjlTgH8pKuBRTELldBbLG9d7vteo8UPHduLXPbEtb3Io+BGLvOIR1Gs77ZvkB6T4uIYeheAGm7k0SU2A6ZuaIhkOFrznPNxoE4EqTgAnMFLxDQgAgVBGVDpxInBdZjoRm3bobfQkwqf9tiyaQJhE21JHU/CelxPKAsmAcjiMpYfBK420z+O4QWBVz1rLTlLj4Llh9x3Po1LIOlpWenjOEKcBPO2n6xxk65mUQSTFuRo2qV1ue/bYjH7mPq+ZjIDmrqhCW4UWaAFDND3LzUutc1B6zlgxAVZA1/TIov54mNYL+rCdRuI6UL2OTaKhFUFLygSn+GTAWHrNmutbRVI7kJJgCIsE9HxDsJ0EUBZegB9O7mMO8Gp7JTOrN5OZ7kJJJrTSXdasSdFVVTUdrk62TZzrjP1V0q7BTzvtqZ563I/yIVFtShoOo35Iyzpkjp+4Btu6PW6sJ8ud/DZUE5kgRVTVUKPajGUO0mipxw0p80hxKl8iwSVSM/vlnkSLykrfkWQ+LsQxAQVRb5tbSslv0mOICIzMKDAYAcoS5HE9QkIrsWSx5RqPglXVXqUyOuqexflsXP5jRbXW5f7ASwxTYU9YYBOwYwscD0zCiLb2VcLnQIYQRSGzKev+ZHvR9csWIoC3w9ClyqI7VSZJFL7ELoa2CU4BklABlGNpTIuUJY81EbT2zYu9AJqRpzSSicoDa1UbxhpvwIRJBBLZrNzDt6TyDtUAeJq/QzJLqIt1711uR/c4gQGfpIAOrUjjzJA319xGd12HCvWmLEdh/kxqM2aKUeXVMnotbfRuaHCjRd04wNEcivRi5F87AIdrpV1b1t1VC8NnuepZ7nbiBdQK5d9F010IrLcG9DolDCvoAMV8P5JLfTW5d663Me43A0zd7nHgK7ZGnV6+8lyT/528dRWVWiNyoIyBYIcrTO0E3XuGqgU4sYVUIMxt2loZWbaNjO6Y6scZE8PYJ0jRbIFyau4AHa91x7Wu+Uh+pwhJBrtCiE5uq+iMq3LvXW5KxcWNGdJmpoZs+OcayYD9DhtbX8tdFq02IV/hG4JibRxhLg8eI7KWGFHOgjqMqIGJ461K9yoAK2p3rYniacLHvT8KwhSpd7xc0xUFl3UfyW1cbpPA+1UZZgXbXQB6mlbnaV1uR9wQXTfty0nTlsL2BNPA8ejiSpxd78F49SirlQp4E4VVNJGuN4RYYj728VbK8g3Vi7XwTPXYAyzvUX1ts1or0ssDBA1jKDkmwZKh33TfO781kMVUF7AdCqLt7fpaq3L/cAvpcFEXpiejO5G0TX2xImrEdC4vNE+u4dU1Df1mw1KUCtTl8FOSSLnkQuRdSCSR1MwhXCIHeTba9vaNhHFy0rxotgPFIjxKMquoMcjb1SBGUfqaJF3lZw5KhPgS6qe801b/G5d7gddEB3JzAiV/g6iQqtEFSnljhaV4roNMM4BBc4J9sFD7oMHrschq7uCmltcMKhaIG/bDMAOcvhGfAOgqCqMqgaK3DglbtcS07uliTYltaNK1u27Yd663FuX+6QvhshiO7AJhIIZp8j5KE9a6zbMaueFLuSCagDSDRYAxjLi2ta2J+HFQcFuByGlEsbOB/isFMu/EjR9bQYdToHVKoOFiqS5fYb0plnorcv9oGd7B4PlFJAKkyS5oPiWAk7lbIoXnqji6gpvJwhVWPAqKaqpuNW2FVraVtXpLsZvgIjCByhJUl11ADNECOJ/ou87aQjnXfYkKrJsBfpPsroLrYleGkNvXe4HDfAHb6FLlHfZE0/V2kw1NciJihqXe9eRlgc2yaHgYJeBWiykDqU2V9vaNo7mDorYOIDAeMebgsDhhGIcHYXdha9/PWPpag6ceFMS6eyIPNct8Ua2mWuChT6vLndaM5f7U/nCFJ6p0V0Rm6KFtLaG+NsLQUgQ086Aq81IMK52gEKr/Nq2J8Z1RRgdBHRWlAUSOJ04JZNMjjjVT1dmnN9dVTGSFpLSWw6cMoY+Xxb6/+LWrW02xA9ygHsFFdO9hGciasrQZuA6TyiX09BlwU18fwXBEy/KuAOUGO+T4qZta2Posss9Q2VJGk5Sa5e+TcC/yVgAtub/q8p0WZGnS8fcrPCLFrnLQMEy88vzT38/D4D+k//Fj842249OHQtHkSeqoLtPqIHeiLLoWAAWUYJFc4aI/kwh51y4x8rRTZDY7i2Et62CWS66fkCiZ8gKSLlUO6+oJhYZQkkcpJ643h1DjaMl6ThlkN7WZBlTxNsy8+fzAeh/8z//Kf/wLKv9iApLV07PLJQeKmosFSJUZdzTbs3Mc5CIwEDEEulFuhIy0+XSqaAqnN62tj0JyCNvEMghHyAKFqcQPK85tX1q6jtV5Z6ryUCKG1y7cHkzW89f/ON8APrf/xNixWntRyQtXdnfTgvT2sK/Q3dMvnqdqXFEkbGWI7uk3yGw3IScNYmJLN6OW3xv25TOdmneCFKAHMRouoK0IU84sbkOZWJxpF7gTcd5CumY2DlV1K5o0aCwGDZ/8Y//Yy4A/e/+EbPi2o9orOOd4jRN2etOy/I/KDRFTY7IrN8czQkgkpzSAhLAvMgtBhX5vW1tU9rhBYBXwXl51AYQJ54z4IFXAgQysXRwndLQaUkKejFPh5bl4NI68JyePifO4q/+4W/nAtD/9h/48ZlWGycp4bnTUnymY+LmtCGMOFIooIrAPC+gyrN4uU0ulMfANniL2G3bByOdKFImCsXWVCKEIFZgw/WDQIgoNaZRpc1OS3BengG0FrpiwR53+N9/Mx/tfwPyuZvth1TGbkcUEZpLIZeVL5jANa09Q47g+5500wSQxeIE8xwU6rBtBnrbKgO6Ot0xn16imBBR1PjD7iM+WUXUT9IsQO8WouIUCnno/D7WLQhmtTF0BSXOQlfl7+cE0P9eyKrTWjqjwtukpoUUPVXjTfEmhdW57rXkSAeVYBwQHpkUb6igVoprkb1ts3niofClUnwxhUS2bHYqsjdxSmU9mW9ltx6F1S1ovopCsMp4erukEXSDX6H/87dzAug//UdsolvtVEwN510kgQhyTpsqz63Z1dEJIsOhJF6irlKJMoR4zi8gMXgCJQlJbWvbRCQX8idAQYpTxd0F9cLMJi8w3JvHd5dyzwsYXxCDbWRRlX2huAtpYfPicf+bv/mfCIw0loveflboS6zQUqJlIamCA6vOTDgyifbOa0dLjyC720Eq3oJLsMrKsa153rbK7nfuBpLMc5RnAarZIjLPER+kkXAupNxSFdUHk3/lFF0hfaddcod7/vKf/m5e8Pwnf4tMdDBaRC/zq1Mphq5INZ+YrtatI6CT4jt5/jnPWFOJxMjcddGgAlVdl7a1bdoQOkjec1TxB4XSuUcIR3qw6gwgDxNglkcjQL0LkyjvoE7KlVS0um3umojntoYuyP/303nB858g9Veg1LBNrXWvjMF1oWaBXGVQMRluoNedAM89z7U8ChpwxQJsgnN0OtZy29qm9NwUporC9LCo9KpQPRCodViQRkjpIPWGb4BSUcuCwmsxKVesTNX63RHB3bJ1dEH+6e9/+jc/efZY/pOf/OSnP/np32ETneq2ZbQfnATnXeW3W12dpTxPrYtWd2uI4GLGGpLNRmHICequgpi2xGdq4bxtVeLmoBB7I4IcIRaDVZfp5drFRNQ+bJDbXcHYLdgfSsU4iU3V4gAPnxu2peE1//C3P/1pjKc/ebZ4/tOf/uSnPxVMdBbrlw62XYoE93FSDU01zOW7m5S/y5VhMUKDWBtd5X4XtoTWAd+26XzuShVX1dfq/2/vznviONI4AIdwHwPB2BDHCxMcSLJo2diOj3gRu9+ARq1Fgyz+sPj+H2JVfVYfg2ETMWZ4nuq5B2ksQ/+murreqpcGbM9Sb4yZ1wfcz3p652cPrLbM2L5EeyfWtwx6a1hdrbjmN5tP19nIdPTkd98Gk0z0LM0Li781e5efPl9/vrocjUYX6Z/aRmnRbn7pr7p/1w9z+5+9KN8X7uQPwrPh+mJUPkzj9+aP0/QivKt4dFG9LTyoWnmTNm6yH05jFz33gIfr4ksvFpf6pnjQ2HOUe5JR+aDY5Yyi/VX2VNgD5dtFvU+qdmHFnjD6qWr3Nvpv9sKt95YPabvTP2o0Gl1eXV9fXTYHIP42V2bphCI9ivO5ubm5tXetAgKjq8/X158BgNz19fXnT6Pm+YLp3xfn5iYa6fnYeZHmc3OLc/Waa/U4yujy09XVlcuNl0/1o+jep8btl7ay1Vc99xvv1DTt8bVxe4W+/UZ0Fb2nvd24Z+vZtT36y+WoW6fl3XeLeZBOLNGLPM/TPFj56d/t8x94NLoz1MoThKI5PHWJ9ptba5gzet6oOJMZcE9aj5JWWblOa9U/6vy1TGGpd+50mmF0muDJ91mG1pF+74Ee5Xke5ysraz+dtE/TThUSOO+rFPPYs78+wyiq454k/VOD4sm/0TnxfeVn7hT4vhw86klrfU8m3Uoz1flxSetXszl/Ml42KPomO03O/6+aGGOrxj3uaGieKH3y/crKymKV6ZNI9Gaer4Q8X1v7+T/tLrqJCmWFpPZ09LR3jnraUxouncJvAY1S141Cb0lrDnqStPe4UbGPnoKcVaUPq6hyx5xPurHenZbeu3TvWVwkKelG+tlUdCm782t7p5+n0SHaTnqZw9bd4Z/8sLa2tlJkep3o99xBz/O87J2vrW1sbDz5+SRp/+/J8866BD1TObsll86TKVlXrefIfM/Rxri0ZlTFK2l2lVq7T11v/uKeeqP+QX0oKK5ykDTGf5Lo8NJZz+H1swfeWz//4rT089556PkL3fqw42bxPq7Dto3vPu9+3NjY2MgzfUKJPhMHehnnG0+2nv/4blrXof8TMR6XPu6swdLugI89Mp/e6UjXg5mKXs3abRXraBbiSuolKsesmNpT9EOwM+YXZNz6fEnfL1BZ8+hsTG2ZpDWWntwwA31ajsP37eKaL5+3ZqKnPUuo6uklSfrbD8+fbOSRXiX6fR90b+b5St49f575pyTvll1IkxuPrXdWGE6naLT9bMwwelUnrq4bd9Zcc60xmtk8ylnVlmsOuic37aGhO3jTM4ReF4BLqt/Q3kV5k+Zy6PXCLr2LF0xBz3zcSlJJ54B633LRzR5MKiKy7R9ZbD6JEr3oot9voM+UgV7m+Vb2uYbD4a/vTxJVgZqLrSXtSO+ruJRO0TprtzwbPlrfqrOI1Zgl0qNl1joVvRx95xYj5WN+MeKBnTrLz2448pO0vxxEI+nJlIygp92YT/sG0XuH19Okd/1U/fNqgbX3vw6HwyrSQ6LHXfT77aHXB9zL/vlwOBweDA9evz/RRe9WP+wtjNh/xknSV879fOoWaKkrYJ/Vy1LFZ7x1O9uNEcvm6OX4bjrccE57fL5bXN41ibvq/Qfb42+edW++MZfj4Q+c9wR0Z1eV9oyhd09uT3tmbD3i7eT9rwcHITRDpG89ibvokzvkHnXQQ5wXXqe+gTVvmosI969FlI4N9XTst+bzhxnk9Urmya1OTS8XRa+PzJ+11rhq72fFFjcfs0n6z7VI2kmftN8e10so8/4sGkuKizFM0cIsfZGfdhaG7OR+2nf43Zaevi7Csuijb+Vd9Mn10L+NeuhbeaDnH/Do4Ojo6PfXHz+e9hkV2+Xp6WW4vjwdNbfLsGWXh25U3Yzy+6PyqeLJ8qn4xfph47XyheLp6uaWrf+J/Cqo3jGqHgNfn8v6z/MyevKyfTP2T/9WreemedvcW0Wvjcq9VfS+6L3VTzxsp8V2etnasmgbFTE3xseP71+/PTo6ihN9Kwv0aBB9ZgKH3ItE38gSfTjc3c0DvfT27dvfs63wx9s/evwrb2EDgAcmC7AQZh0h9qoIzPOwSsgsL3d3y0Cf4Bh6axB9K3TRd3dDoh8eHpYf9/jo+Pj4VenNqzdhK33I24fsAgAP2psPRa69ib16U6Xg8fHx0XEZkIeHB4ch0HeHz7fqQJ/YWe5loufH3Lee7maJfhgivcr0PNQzr+psjxO+GfMA8MC8ynMsXOXpVod4aJmjvAW/HGYO9kJqPn2aB/qk5qF3JqJngf50e3d3d29vfz//qIe/ZI6Kdhxa2ABg+mWZl7UyCIPDPM739/dCnm9vh0CP8jwL9G8mU/u1ONF9EAL96fb2XmZ/f3//5cvDl2WyZ628CdfZvwkAps/hL3HuldeZkIwhIvOw3M7zfDDRPC8CvT4xbjAYbG5mkb6z82LvRZHroY3zMr8GgOmwf7MsFTMv9l682NkJeb65ORgM1lqV3O99/dQq0hcXF5eWB4Ms0zc3t59tP9vZ2dl5kTcAICiScWdn59nOs+0QmSHOB8vLUZzff55XgZ530ueXlpaXV8PnWl9fzz7js9AK1R0AeHQ2o5ssHjc3N9fX19dDaq4uLy/Nz8/FeX7fgR4SvY70+fn5PNNXVwd5rocWtuwCAI/boLoe5FZXV5eXl5eWQoJOMs6bkT47OzufZ/pSiPXl5dUQ7QBA03Ie5CHK8zCfn5+d/XaicV5G+kwZ6bPzeaovLCwtLAEAvRaWlhYWFoosD6o4n1iel5GemZ3JP1YR6wDAWLNFmM/WQTrJOB8X6gDAF8x8VWHejvQo2vMGAJQJnreOb74qMwDAHX0DAAAAAAAAAAAAAAAAAAAAAAAAAAAAAAAAAAAAAAAAAAAAAAAAAAAAAAAAAAAAAAAAAAAAAAAAAAAAAAAAAAAAAAAAAAAAAAAAAAAAAAAAAAAAAAAAAAAAAAAAAAAAAAAAAAAAAAAAAAAAAAAAAAAAAAAAAAAAAAAAAAAAAAAAAAAAAAAAAAAAAAAAAAAAAAAAAAAAAAAAAAAAAAAAAAAAAAAAAAAAAAAAAAAAAAAAAAAAAAAAAAAAAAAAAAAAAAAAAAAAAAAAAAAAAAAAAAAAAAAAAAAAAAAAAAAAAAAAAAAAAAAAAAAAAAAAAAAAAAAAAAAAAAAAAAAAAAAAAAAAAAAAAAAAAAAAAAAAAAAAAAAAAAAAAAAAAAAAAAAAAAAAAAAAAAAAAAAAAAAAAAAAAAAAAAAAAAAAAAAAAAAAAAAAAAAAAAAAAAAAAAAAAAAAAAAAAAAAAAAAAAAAAAAAAAAAAAAAAAAAAAAAAAAAAAAAAAAAAAAAAAAAAAAAAAAAAAAAAAAAAAAAAAAAAAAAAAAAAAAAAAAAAAAAAAAAAAAAAAAAAAAAAAAAAAAAAAAAAAAAAAAAAAAAAAAAAAAAAAAAAAAAAAAAAAAAAAAAAAAAAAAAAAAAAAAAAAAAAAAAAAAAAAAAAAAAAAAAAAAAAAAAAAAAAAAAAAAAAAAAAAAAAAAAAAAAAAAAAAAAAAAAAAAAAAAAAAAAAAAAAAAAAAAAAAAAAAAAAAAAAAAAAAAAAAAAAAAAAAAAAAAAAAAAAAAAAAAAAAAAAAAAAAAAAAAAAAAAAAAAAAAAAAAAAAAAAAAAAAAAAAAAAAAAAAAAAAAAAAAAAAAAAAAAAAAAAAAAAAAAAAAAAAAAAAAAAAAAAAAAAAAAAAAAAAAAAAAAAAAAAAAAAAAAAAAAAAAAAAAAAAAAAAAAAAAAAAAAAAAAAAAAAAAAAAAAAAAAAAAAAAAAAAAAAAAAAAAAAAAAAAAAAAAAAAAAAAAAAAAAAAAAAAAAAAAAAAAAAAAAAAAAAAAAAAAAAAAAAAAAAAAAAAAAAAAAAAAAAAAAAAAAAAAAAAAAAAAAAAAAAAAAAAAAAAAAAAAAAAAAAAAAAAAAAAAAAAAAAAAAAAAAAAAAAAAAAAAAAAAAAAAAAAAAAAAAAAAAAAAAAAAAAAAAAAAAAAAAAAAAAAAAAAAAAAAAAAAAAAAAAAAAAAAAAAAAAAAAAAAAAAAAAAAAAAAAAAAAAAAAAAAAAAAAAAAAAAAAAAAAAAAAAAAAAAAAAAAAAAAAAAAAAAAAAAAAAAAAAAAAAAAAAAAAAAAAAAAAAAAAAAAAAAAAAAAAAAAAAAAAAAAAAAAAAAAAAAAAAAAAAAAAAAAAAAAAAAAAAAAAAAAAAAAAAAAAAAAAAAAAAAAAAAAAAAAAAAAAAAAAAAAAAAAAAAAAAAAAAAAAAAAAAAAAAAAAAAAAAAAAAAAAAAAAAAAAAAAAAAAAAAAAAAAAAAAAAAAAAAAAAAAAAAAAAAAAAAAAAAAAAAAAAAAAAAAAAAAAAAAAAAAAAAAAAAAAAAAAAAAAAAAAAAAAAAAAAAAAAAAAAAAAAAAAAAAAAAAAAAAAAAAAAAAAAAAAAAAAAAAAAAAAAAAAAAAAAAAAAAAAAAAAAAAAAAAAAAAAAAAAAAAAAAAAAAAAAAAAAAAAAAAAAAAAAAAAAAAAAAAAAAAAAAAAAAAAAAAAAAAAAAAAAAAAAAAAAAAAAAAAAAAAAAAAAAAAAAAAAAAAAAAAAAAAAAAAAAAAAAAAAAAAAAAAAAAAAAAAAAAAAAAAAAAAAAAAAAAAAAAAAAAAAAAAAAAAAAAAAAAAAAAAAAAAAAAAAAAAAAAAAAAAAAAAAAAAAAAAAAAAAAAAAAAAAAAAAAAAAAAAAAAAAAAAAAAAAAAAAAAAAAAAAAAAAAAAAAAAAAAAAAAAAAAAAAAAAAAAAAAAAAAAAAAAAAAAAAAAAAAAAAAAAAAAAAAAAAAAAAAAAAAAAAAAAAAAAAAAAAAAAAAAAAAAAAAAAAAAAAAAAAAAAAAAAAAAAAAAAAAAAAAAAAAAAAAAAAAAAAAAPFD/A9PKo1X6+9giAAAAAElFTkSuQmCC;clipPath=inset(38.67% 3% 41.33% 2.67%);fillColor=#09555B;strokeColor=#BAC8D3;fontColor=#EEEEEE;" vertex="1" parent="1">
          <mxGeometry x="115" y="750" width="505" height="107.07" as="geometry" />
        </mxCell>
        <mxCell id="x2NzetM9BmsE3J9apZ8J-3" value="" style="shape=image;verticalLabelPosition=bottom;labelBackgroundColor=none;verticalAlign=top;aspect=fixed;imageAspect=0;image=data:image/svg+xml,PHN2ZyB4bWxuczp4bGluaz0iaHR0cDovL3d3dy53My5vcmcvMTk5OS94bGluayIgeG1sbnM9Imh0dHA6Ly93d3cudzMub3JnLzIwMDAvc3ZnIiB4bWw6c3BhY2U9InByZXNlcnZlIiBzdHlsZT0iZW5hYmxlLWJhY2tncm91bmQ6bmV3IDAgMCA3MjAgNzIwOyIgdmlld0JveD0iMCAwIDcyMCA3MjAiIHk9IjBweCIgeD0iMHB4IiBpZD0iTGF5ZXJfMSIgdmVyc2lvbj0iMS4xIj4mI3hhOzxzdHlsZSB0eXBlPSJ0ZXh0L2NzcyI+JiN4YTsJLnN0MHtmaWxsOiM3ODc4N0Q7c3Ryb2tlOiMwMDAwMDA7c3Ryb2tlLXdpZHRoOjM7c3Ryb2tlLWxpbmVjYXA6cm91bmQ7c3Ryb2tlLWxpbmVqb2luOnJvdW5kO3N0cm9rZS1taXRlcmxpbWl0OjEwO30mI3hhOwkuc3Qxe2ZpbGw6I0Q3RDdENztzdHJva2U6IzAwMDAwMDtzdHJva2Utd2lkdGg6MztzdHJva2UtbGluZWNhcDpyb3VuZDtzdHJva2UtbGluZWpvaW46cm91bmQ7c3Ryb2tlLW1pdGVybGltaXQ6MTA7fSYjeGE7CS5zdDJ7ZmlsbDojODZGRjNFO30mI3hhOwkuc3Qze2ZpbGw6I0ZGRkZGRjt9JiN4YTsJLnN0NHtmb250LWZhbWlseTonR290aGFtLUJvb2snO30mI3hhOwkuc3Q1e2ZvbnQtc2l6ZToxMS4zcHg7fSYjeGE7CS5zdDZ7Zm9udC1mYW1pbHk6J0dvdGhhbS1NZWRpdW0nO30mI3hhOwkuc3Q3e2ZpbGw6IzNCNDA0NTtzdHJva2U6IzAwMDAwMDtzdHJva2Utd2lkdGg6MztzdHJva2UtbWl0ZXJsaW1pdDoxMDt9JiN4YTsJLnN0OHtzdHJva2U6IzAwMDAwMDtzdHJva2Utd2lkdGg6Mi4wMDU3O3N0cm9rZS1saW5lY2FwOnJvdW5kO3N0cm9rZS1saW5lam9pbjpyb3VuZDtzdHJva2UtbWl0ZXJsaW1pdDoxMDt9JiN4YTsJLnN0OXtmaWxsOiNEN0Q3RDc7c3Ryb2tlOiMwMDAwMDA7c3Ryb2tlLXdpZHRoOjM7c3Ryb2tlLW1pdGVybGltaXQ6MTA7fSYjeGE7PC9zdHlsZT4mI3hhOzxwYXRoIGQ9Ik02OTUuMSw0MjUuM0gyMmMtMiwwLTMuNi0xLjYtMy42LTMuNlYzMDFjMC0yLDEuNi0zLjYsMy42LTMuNmg2NzMuMWMyLDAsMy42LDEuNiwzLjYsMy42djEyMC42JiMxMDsmIzk7QzY5OC43LDQyMy43LDY5Ny4xLDQyNS4zLDY5NS4xLDQyNS4zeiIgY2xhc3M9InN0MCIvPiYjeGE7PHJlY3QgaGVpZ2h0PSI0Mi41IiB3aWR0aD0iNTAuMiIgY2xhc3M9InN0MSIgeT0iMzYxLjYiIHg9IjIwNS43Ii8+JiN4YTs8cmVjdCBoZWlnaHQ9IjgyLjciIHdpZHRoPSIxODkuNiIgY2xhc3M9InN0MSIgeT0iMzI1LjciIHg9IjI2Mi41Ii8+JiN4YTs8cG9seWdvbiBwb2ludHM9IjIzOC45LDM3MS4xIDI0Mi44LDM3MS4xIDI0Mi44LDM3Ny4yIDI1MS4xLDM3Ny4yIDI1MS4xLDM5OS41IDIxMC41LDM5OS41IDIxMC41LDM3Ny4yIDIxOC44LDM3Ny4yIDIxOC44LDM3MS4xICYjMTA7JiM5OzIyMi44LDM3MS4xIDIyMi44LDM2Ni4yIDIzOC45LDM2Ni4yIi8+JiN4YTs8Zz4mI3hhOwk8cG9seWdvbiBwb2ludHM9IjI5NC41LDMzMC4xIDI5NC41LDMzMy44IDMwNy40LDMzMy44IDMwNy40LDM2MS44IDI2OC45LDM2MS44IDI2OC45LDMzMy44IDI4MSwzMzMuOCAyODEsMzMwLjEiLz4mI3hhOwk8cmVjdCBoZWlnaHQ9IjYuMyIgd2lkdGg9IjEwLjQiIGNsYXNzPSJzdDIiIHk9IjMzMS4yIiB4PSIyNjQuOCIvPiYjeGE7CTxyZWN0IGhlaWdodD0iNi4zIiB3aWR0aD0iMTAuNCIgY2xhc3M9InN0MyIgeT0iMzMxLjIiIHg9IjMwMC4zIi8+JiN4YTs8L2c+JiN4YTs8Zz4mI3hhOwk8cG9seWdvbiBwb2ludHM9IjM0MS40LDMzMC4xIDM0MS40LDMzMy44IDM1NC4zLDMzMy44IDM1NC4zLDM2MS44IDMxNS44LDM2MS44IDMxNS44LDMzMy44IDMyNy45LDMzMy44IDMyNy45LDMzMC4xIi8+JiN4YTsJPHJlY3QgaGVpZ2h0PSI2LjMiIHdpZHRoPSIxMC40IiBjbGFzcz0ic3QyIiB5PSIzMzEuMiIgeD0iMzExLjciLz4mI3hhOwk8cmVjdCBoZWlnaHQ9IjYuMyIgd2lkdGg9IjEwLjQiIGNsYXNzPSJzdDMiIHk9IjMzMS4yIiB4PSIzNDcuMiIvPiYjeGE7PC9nPiYjeGE7PGc+JiN4YTsJPHBvbHlnb24gcG9pbnRzPSIzODguMiwzMzAuMSAzODguMiwzMzMuOCA0MDEuMSwzMzMuOCA0MDEuMSwzNjEuOCAzNjIuNiwzNjEuOCAzNjIuNiwzMzMuOCAzNzQuNywzMzMuOCAzNzQuNywzMzAuMSIvPiYjeGE7CTxyZWN0IGhlaWdodD0iNi4zIiB3aWR0aD0iMTAuNCIgY2xhc3M9InN0MiIgeT0iMzMxLjIiIHg9IjM1OC42Ii8+JiN4YTsJPHJlY3QgaGVpZ2h0PSI2LjMiIHdpZHRoPSIxMC40IiBjbGFzcz0ic3QzIiB5PSIzMzEuMiIgeD0iMzk0Ii8+JiN4YTs8L2c+JiN4YTs8Zz4mI3hhOwk8cG9seWdvbiBwb2ludHM9IjQzNS4xLDMyOS45IDQzNS4xLDMzMy41IDQ0OCwzMzMuNSA0NDgsMzYxLjUgNDA5LjUsMzYxLjUgNDA5LjUsMzMzLjUgNDIxLjYsMzMzLjUgNDIxLjYsMzI5LjkiLz4mI3hhOwk8cmVjdCBoZWlnaHQ9IjYuMyIgd2lkdGg9IjEwLjQiIGNsYXNzPSJzdDIiIHk9IjMzMSIgeD0iNDA1LjQiLz4mI3hhOwk8cmVjdCBoZWlnaHQ9IjYuMyIgd2lkdGg9IjEwLjQiIGNsYXNzPSJzdDMiIHk9IjMzMSIgeD0iNDQwLjkiLz4mI3hhOzwvZz4mI3hhOzxnPiYjeGE7CTxwb2x5Z29uIHBvaW50cz0iMjk0LjUsNDA0LjcgMjk0LjUsNDAxLjEgMzA3LjQsNDAxLjEgMzA3LjQsMzczIDI2OC45LDM3MyAyNjguOSw0MDEuMSAyODEsNDAxLjEgMjgxLDQwNC43Ii8+JiN4YTsJPHJlY3QgaGVpZ2h0PSI2LjMiIHdpZHRoPSIxMC40IiBjbGFzcz0ic3QyIiB5PSIzOTcuMyIgeD0iMjY0LjgiLz4mI3hhOwk8cmVjdCBoZWlnaHQ9IjYuMyIgd2lkdGg9IjEwLjQiIGNsYXNzPSJzdDMiIHk9IjM5Ny4zIiB4PSIzMDAuMyIvPiYjeGE7PC9nPiYjeGE7PGc+JiN4YTsJPHBvbHlnb24gcG9pbnRzPSIzNDEuNCw0MDQuNyAzNDEuNCw0MDEuMSAzNTQuMyw0MDEuMSAzNTQuMywzNzMgMzE1LjgsMzczIDMxNS44LDQwMS4xIDMyNy45LDQwMS4xIDMyNy45LDQwNC43Ii8+JiN4YTsJPHJlY3QgaGVpZ2h0PSI2LjMiIHdpZHRoPSIxMC40IiBjbGFzcz0ic3QyIiB5PSIzOTcuMyIgeD0iMzExLjciLz4mI3hhOwk8cmVjdCBoZWlnaHQ9IjYuMyIgd2lkdGg9IjEwLjQiIGNsYXNzPSJzdDMiIHk9IjM5Ny4zIiB4PSIzNDcuMiIvPiYjeGE7PC9nPiYjeGE7PGc+JiN4YTsJPHBvbHlnb24gcG9pbnRzPSIzODguMiw0MDQuNyAzODguMiw0MDEuMSA0MDEuMSw0MDEuMSA0MDEuMSwzNzMgMzYyLjYsMzczIDM2Mi42LDQwMS4xIDM3NC43LDQwMS4xIDM3NC43LDQwNC43Ii8+JiN4YTsJPHJlY3QgaGVpZ2h0PSI2LjMiIHdpZHRoPSIxMC40IiBjbGFzcz0ic3QyIiB5PSIzOTcuMyIgeD0iMzU4LjYiLz4mI3hhOwk8cmVjdCBoZWlnaHQ9IjYuMyIgd2lkdGg9IjEwLjQiIGNsYXNzPSJzdDMiIHk9IjM5Ny4zIiB4PSIzOTQiLz4mI3hhOzwvZz4mI3hhOzxnPiYjeGE7CTxwb2x5Z29uIHBvaW50cz0iNDM1LjEsNDA0LjcgNDM1LjEsNDAxLjEgNDQ4LDQwMS4xIDQ0OCwzNzMgNDA5LjUsMzczIDQwOS41LDQwMS4xIDQyMS42LDQwMS4xIDQyMS42LDQwNC43Ii8+JiN4YTsJPHJlY3QgaGVpZ2h0PSI2LjMiIHdpZHRoPSIxMC40IiBjbGFzcz0ic3QyIiB5PSIzOTcuMyIgeD0iNDA1LjQiLz4mI3hhOwk8cmVjdCBoZWlnaHQ9IjYuMyIgd2lkdGg9IjEwLjQiIGNsYXNzPSJzdDMiIHk9IjM5Ny4zIiB4PSI0NDAuOSIvPiYjeGE7PC9nPiYjeGE7PGcgaWQ9IkNOX05hbWVfVmVydGljYWwiPiYjeGE7CTxwYXRoIGQ9Ik0xNDkuMiwzMzguMmgxLjFsMy43LDQuOHYtNC44aDEuMnY3aC0xbC0zLjktNXY1aC0xLjJWMzM4LjJ6IiBjbGFzcz0ic3QzIi8+JiN4YTsJPHBhdGggZD0iTTE1Ni4zLDM0Mi42TDE1Ni4zLDM0Mi42YzAtMS41LDEuMS0yLjgsMi42LTIuOGMxLjcsMCwyLjUsMS4zLDIuNSwyLjhjMCwwLjEsMCwwLjIsMCwwLjNoLTMuOSYjMTA7JiM5OyYjOTtjMC4xLDAuOSwwLjcsMS4zLDEuNSwxLjNjMC42LDAsMS0wLjIsMS40LTAuNmwwLjcsMC42Yy0wLjUsMC42LTEuMiwxLTIuMiwxQzE1Ny41LDM0NS4zLDE1Ni4zLDM0NC4yLDE1Ni4zLDM0Mi42eiBNMTYwLjIsMzQyLjImIzEwOyYjOTsmIzk7Yy0wLjEtMC44LTAuNS0xLjQtMS4zLTEuNGMtMC43LDAtMS4zLDAuNi0xLjQsMS40SDE2MC4yeiIgY2xhc3M9InN0MyIvPiYjeGE7CTxwYXRoIGQ9Ik0xNjIuNywzNDMuN1YzNDFIMTYydi0xaDAuN3YtMS40aDEuMnYxLjRoMS40djFoLTEuNHYyLjZjMCwwLjUsMC4yLDAuNywwLjYsMC43YzAuMywwLDAuNS0wLjEsMC43LTAuMnYxJiMxMDsmIzk7JiM5O2MtMC4zLDAuMi0wLjYsMC4zLTEuMSwwLjNDMTYzLjMsMzQ1LjMsMTYyLjcsMzQ0LjksMTYyLjcsMzQzLjd6IiBjbGFzcz0ic3QzIi8+JiN4YTsJPHBhdGggZD0iTTE2NS44LDMzOS45aDEuMmwxLjEsMy42bDEuMi0zLjZoMWwxLjIsMy42bDEuMS0zLjZoMS4ybC0xLjcsNS4zaC0xLjFsLTEuMi0zLjZsLTEuMiwzLjZoLTEuMUwxNjUuOCwzMzkuOXoiIGNsYXNzPSJzdDMiLz4mI3hhOwk8cGF0aCBkPSJNMTc0LDM0Mi42TDE3NCwzNDIuNmMwLTEuNSwxLjItMi44LDIuOC0yLjhjMS42LDAsMi44LDEuMiwyLjgsMi43djBjMCwxLjUtMS4yLDIuNy0yLjgsMi43JiMxMDsmIzk7JiM5O0MxNzUuMiwzNDUuMywxNzQsMzQ0LjEsMTc0LDM0Mi42eiBNMTc4LjQsMzQyLjZMMTc4LjQsMzQyLjZjMC0wLjktMC43LTEuNy0xLjYtMS43Yy0xLDAtMS42LDAuOC0xLjYsMS43djBjMCwwLjksMC43LDEuNywxLjYsMS43JiMxMDsmIzk7JiM5O0MxNzcuOCwzNDQuMywxNzguNCwzNDMuNSwxNzguNCwzNDIuNnoiIGNsYXNzPSJzdDMiLz4mI3hhOwk8cGF0aCBkPSJNMTgwLjYsMzM5LjloMS4ydjEuMmMwLjMtMC44LDAuOS0xLjMsMS45LTEuM3YxLjNoLTAuMWMtMS4xLDAtMS44LDAuNy0xLjgsMi4xdjJoLTEuMlYzMzkuOXoiIGNsYXNzPSJzdDMiLz4mI3hhOwk8cGF0aCBkPSJNMTg0LjUsMzM3LjloMS4ydjQuM2wyLjItMi4zaDEuNWwtMi4xLDIuMWwyLjIsMy4xSDE4OGwtMS42LTIuM2wtMC43LDAuOHYxLjVoLTEuMlYzMzcuOXoiIGNsYXNzPSJzdDMiLz4mI3hhOwk8cGF0aCBkPSJNMTg5LjYsMzQ0LjVsMC41LTAuOGMwLjYsMC40LDEuMiwwLjYsMS43LDAuNmMwLjUsMCwwLjgtMC4yLDAuOC0wLjZ2MGMwLTAuNC0wLjYtMC41LTEuMi0wLjcmIzEwOyYjOTsmIzk7Yy0wLjgtMC4yLTEuNi0wLjUtMS42LTEuNXYwYzAtMSwwLjgtMS42LDEuOS0xLjZjMC43LDAsMS40LDAuMiwxLjksMC42bC0wLjUsMC45Yy0wLjUtMC4zLTEtMC41LTEuNS0wLjVjLTAuNSwwLTAuNywwLjItMC43LDAuNXYwJiMxMDsmIzk7JiM5O2MwLDAuNCwwLjYsMC41LDEuMiwwLjdjMC44LDAuMiwxLjYsMC42LDEuNiwxLjV2MGMwLDEuMS0wLjksMS43LTIsMS43QzE5MS4xLDM0NS4zLDE5MC4yLDM0NSwxODkuNiwzNDQuNXoiIGNsYXNzPSJzdDMiLz4mI3hhOzwvZz4mI3hhOzxnIGlkPSJDTl9JY29uX1ZlcnRpY2FsXzAwMDAwMDAyMzYyNjczMjgxNjEyNjU4OTcwMDAwMDA1OTI1NDgxNTM2NjQ3MzYyNzQ5XyI+JiN4YTsJPHBhdGggZD0iTTE3NC41LDMxMS44Yy0xLjIsMC43LTIuMSwxLjgtMi41LDMuMWMtMC40LDEuMy0wLjIsMi44LDAuNSw0YzAuOSwxLjcsMi43LDIuNyw0LjYsMi43YzAuNiwwLDEuMi0wLjEsMS44LTAuMyYjMTA7JiM5OyYjOTtjMS0xLjUsMS42LTMuMiwxLjYtNS4yYzAtMS42LTAuNC0zLjEtMS4yLTQuNGMtMC43LTAuMy0xLjUtMC41LTIuMy0wLjVDMTc2LjEsMzExLjIsMTc1LjIsMzExLjQsMTc0LjUsMzExLjh6IiBjbGFzcz0ic3QzIi8+JiN4YTsJPHBhdGggZD0iTTE2Ny40LDMxNy43YzAuNSwwLjksMS4xLDEuNiwxLjgsMi4zYy0wLjMtMC40LTAuNi0wLjgtMC45LTEuM2MtMi4zLTQtMC45LTkuMSwyLjktMTEuNiYjMTA7JiM5OyYjOTtjLTEuMSwwLTIuMiwwLjMtMy4xLDAuNkMxNjYsMzEwLjYsMTY1LjUsMzE0LjUsMTY3LjQsMzE3Ljd6IiBjbGFzcz0ic3QzIi8+JiN4YTsJPHBhdGggZD0iTTE2Ni40LDMxOC4zYy0xLjctMy0xLjctNi41LTAuMy05LjRjLTIuMiwxLjYtMy42LDQuMy0zLjYsNy4yYzAsNSw0LDksOSw5YzIsMCwzLjgtMC43LDUuMy0xLjcmIzEwOyYjOTsmIzk7Yy0wLjUsMC4xLTEsMC4xLTEuNSwwLjFDMTcxLjYsMzIzLjUsMTY4LjIsMzIxLjUsMTY2LjQsMzE4LjN6IiBjbGFzcz0ic3QzIi8+JiN4YTsJPHBhdGggZD0iTTE3My40LDMxMGMtMS41LDAuOC0yLjUsMi4yLTMsMy44Yy0wLjUsMS42LTAuMywzLjMsMC42LDQuOGMwLjEsMC4xLDAuMSwwLjMsMC4yLDAuNCYjMTA7JiM5OyYjOTtjLTAuNi0xLjQtMC43LTIuOS0wLjMtNC4zYzAuNS0xLjYsMS41LTMsMy0zLjhjMC45LTAuNSwyLTAuOCwzLjEtMC44YzAuNCwwLDAuOCwwLDEuMiwwLjFjLTAuMy0wLjMtMC42LTAuNy0xLTAuOSYjMTA7JiM5OyYjOTtjLTAuMiwwLTAuNSwwLTAuNywwQzE3NS40LDMwOS4xLDE3NC4zLDMwOS40LDE3My40LDMxMHoiIGNsYXNzPSJzdDMiLz4mI3hhOwk8cGF0aCBkPSJNMTY5LjMsMzE4LjJjMC4yLDAuNCwwLjUsMC43LDAuNywxLjFjMCwwLTAuMS0wLjEtMC4xLTAuMWMtMS0xLjctMS4yLTMuOC0wLjctNS43YzAuNS0xLjksMS44LTMuNSwzLjUtNC41JiMxMDsmIzk7JiM5O2MwLjgtMC41LDEuNy0wLjgsMi43LTAuOWMtMC43LTAuMy0xLjQtMC42LTIuMS0wLjdjLTAuNCwwLjEtMC44LDAuMy0xLjIsMC41QzE2OC42LDMwOS45LDE2Ny4zLDMxNC41LDE2OS4zLDMxOC4yeiIgY2xhc3M9InN0MyIvPiYjeGE7PC9nPiYjeGE7PGc+JiN4YTsJPHBhdGggZD0iTTE0OC45LDMzMy41TDE0OC45LDMzMy41YzAtMiwxLjUtMy42LDMuNi0zLjZjMS4zLDAsMi4xLDAuNCwyLjcsMS4xbC0wLjgsMC45Yy0wLjYtMC41LTEuMi0wLjktMi0wLjkmIzEwOyYjOTsmIzk7Yy0xLjMsMC0yLjMsMS4xLTIuMywyLjV2MGMwLDEuNCwxLDIuNSwyLjMsMi41YzAuOSwwLDEuNC0wLjMsMi0wLjlsMC44LDAuOGMtMC43LDAuOC0xLjUsMS4yLTIuOCwxLjImIzEwOyYjOTsmIzk7QzE1MC41LDMzNy4xLDE0OC45LDMzNS41LDE0OC45LDMzMy41eiIgY2xhc3M9InN0MyIvPiYjeGE7CTxwYXRoIGQ9Ik0xNTkuNCwzMzd2LTAuNmMtMC40LDAuNC0wLjksMC44LTEuNywwLjhjLTEsMC0xLjktMC42LTEuOS0xLjZ2MGMwLTEuMiwwLjktMS43LDIuMS0xLjdjMC42LDAsMSwwLjEsMS41LDAuMiYjMTA7JiM5OyYjOTt2LTAuMWMwLTAuNy0wLjUtMS4xLTEuMy0xLjFjLTAuNiwwLTEsMC4xLTEuNSwwLjNsLTAuMy0xYzAuNi0wLjMsMS4xLTAuNCwyLTAuNGMxLjYsMCwyLjMsMC44LDIuMywyLjJ2My4xSDE1OS40eiBNMTU5LjUsMzM0LjgmIzEwOyYjOTsmIzk7Yy0wLjMtMC4xLTAuNy0wLjItMS4yLTAuMmMtMC44LDAtMS4yLDAuMy0xLjIsMC44djBjMCwwLjUsMC40LDAuOCwxLDAuOGMwLjgsMCwxLjQtMC40LDEuNC0xLjFWMzM0Ljh6IiBjbGFzcz0ic3QzIi8+JiN4YTsJPHBhdGggZD0iTTE2MS44LDMzMS43aDEuMnYwLjhjMC4zLTAuNSwwLjgtMC45LDEuNi0wLjljMC44LDAsMS4zLDAuNCwxLjYsMC45YzAuNC0wLjYsMS0wLjksMS44LTAuOSYjMTA7JiM5OyYjOTtjMS4xLDAsMS44LDAuNywxLjgsMnYzLjRoLTEuMnYtM2MwLTAuOC0wLjQtMS4zLTEuMS0xLjNjLTAuNywwLTEuMSwwLjUtMS4xLDEuM3YzaC0xLjJ2LTNjMC0wLjgtMC40LTEuMy0xLjEtMS4zJiMxMDsmIzk7JiM5O2MtMC43LDAtMS4xLDAuNS0xLjEsMS4zdjNoLTEuMlYzMzEuN3oiIGNsYXNzPSJzdDMiLz4mI3hhOwk8cGF0aCBkPSJNMTcyLjIsMzM2LjF2MC44SDE3MXYtNy4zaDEuMnYyLjljMC40LTAuNSwwLjktMSwxLjgtMWMxLjIsMCwyLjUsMSwyLjUsMi43djBjMCwxLjctMS4yLDIuNy0yLjUsMi43JiMxMDsmIzk7JiM5O0MxNzMuMiwzMzcuMSwxNzIuNiwzMzYuNiwxNzIuMiwzMzYuMXogTTE3NS4zLDMzNC4zTDE3NS4zLDMzNC4zYzAtMS0wLjctMS43LTEuNS0xLjdjLTAuOCwwLTEuNSwwLjctMS41LDEuN3YwJiMxMDsmIzk7JiM5O2MwLDEsMC43LDEuNywxLjUsMS43QzE3NC42LDMzNiwxNzUuMywzMzUuNCwxNzUuMywzMzQuM3oiIGNsYXNzPSJzdDMiLz4mI3hhOwk8cGF0aCBkPSJNMTc3LjUsMzI5LjdoMS4zdjEuMWgtMS4zVjMyOS43eiBNMTc3LjUsMzMxLjdoMS4ydjUuM2gtMS4yVjMzMS43eiIgY2xhc3M9InN0MyIvPiYjeGE7CTxwYXRoIGQ9Ik0xODAsMzM1LjF2LTMuNGgxLjJ2M2MwLDAuOCwwLjQsMS4zLDEuMSwxLjNjMC43LDAsMS4yLTAuNSwxLjItMS4zdi0zaDEuMnY1LjNoLTEuMnYtMC44JiMxMDsmIzk7JiM5O2MtMC4zLDAuNS0wLjgsMC45LTEuNiwwLjlDMTgwLjcsMzM3LjEsMTgwLDMzNi4zLDE4MCwzMzUuMXoiIGNsYXNzPSJzdDMiLz4mI3hhOwk8cGF0aCBkPSJNMTg2LDMzMS43aDEuMnYwLjhjMC4zLTAuNSwwLjgtMC45LDEuNi0wLjljMC44LDAsMS4zLDAuNCwxLjYsMC45YzAuNC0wLjYsMS0wLjksMS44LTAuOWMxLjEsMCwxLjgsMC43LDEuOCwyJiMxMDsmIzk7JiM5O3YzLjRoLTEuMnYtM2MwLTAuOC0wLjQtMS4zLTEuMS0xLjNjLTAuNywwLTEuMSwwLjUtMS4xLDEuM3YzaC0xLjJ2LTNjMC0wLjgtMC40LTEuMy0xLjEtMS4zYy0wLjcsMC0xLjEsMC41LTEuMSwxLjN2M0gxODZWMzMxLjd6IiBjbGFzcz0ic3QzIi8+JiN4YTs8L2c+JiN4YTs8dGV4dCB0cmFuc2Zvcm09Im1hdHJpeCgxIDAgMCAxIDUwOS44MjQ1IDMyNy44NzQxKSI+PHRzcGFuIGNsYXNzPSJzdDMgc3Q0IHN0NSIgeT0iMCIgeD0iMCI+Y248L3RzcGFuPjx0c3BhbiBjbGFzcz0ic3QzIHN0NiBzdDUiIHk9IjAiIHg9IjEyLjgiPk1hdHJpeDwvdHNwYW4+PHRzcGFuIGNsYXNzPSJzdDMgc3Q0IHN0NSIgeT0iMCIgeD0iNDYuNyI+IHw8L3RzcGFuPjx0c3BhbiBjbGFzcz0ic3QzIHN0NiBzdDUiIHk9IjAiIHg9IjUyLjkiPiBUWDwvdHNwYW4+PHRzcGFuIGNsYXNzPSJzdDMgc3Q0IHN0NSIgeT0iMCIgeD0iNzEiPjEwMTItUC1BQzwvdHNwYW4+PC90ZXh0PiYjeGE7PHBhdGggZD0iTTEyMy44LDM5Ny42SDQxLjVjLTIsMC0zLjYtMS42LTMuNi0zLjZ2LTYyLjZjMC0yLDEuNi0zLjYsMy42LTMuNmg4Mi4yYzIsMCwzLjYsMS42LDMuNiwzLjZWMzk0JiMxMDsmIzk7QzEyNy40LDM5NiwxMjUuNywzOTcuNiwxMjMuOCwzOTcuNnoiIGNsYXNzPSJzdDciLz4mI3hhOzxwYXRoIGQ9Ik00NS40LDM4Ny40YzAtMC42LDAtMzQuOCwwLTM0LjhsMTQuNC0xNC40aDQ1LjZsMTQuNSwxNC41djM0LjhMNDUuNCwzODcuNHoiIGNsYXNzPSJzdDgiLz4mI3hhOzxwYXRoIGQ9Ik02MDguNiw0MDguNGgtMzguMmMtMiwwLTMuNi0xLjYtMy42LTMuNnYtMjYuOGMwLTIsMS42LTMuNiwzLjYtMy42aDM4LjJjMiwwLDMuNiwxLjYsMy42LDMuNnYyNi44JiMxMDsmIzk7QzYxMi4yLDQwNi44LDYxMC42LDQwOC40LDYwOC42LDQwOC40eiIgY2xhc3M9InN0OSIvPiYjeGE7PHBhdGggZD0iTTU1Niw0MDguNGgtMzguMmMtMiwwLTMuNi0xLjYtMy42LTMuNnYtMjYuOGMwLTIsMS42LTMuNiwzLjYtMy42SDU1NmMyLDAsMy42LDEuNiwzLjYsMy42djI2LjgmIzEwOyYjOTtDNTU5LjYsNDA2LjgsNTU4LDQwOC40LDU1Niw0MDguNHoiIGNsYXNzPSJzdDkiLz4mI3hhOzxwYXRoIGQ9Ik01MDMuNCw0MDguNGgtMzguMmMtMiwwLTMuNi0xLjYtMy42LTMuNnYtMjYuOGMwLTIsMS42LTMuNiwzLjYtMy42aDM4LjJjMiwwLDMuNiwxLjYsMy42LDMuNnYyNi44JiMxMDsmIzk7QzUwNyw0MDYuOCw1MDUuNCw0MDguNCw1MDMuNCw0MDguNHoiIGNsYXNzPSJzdDkiLz4mI3hhOzxwYXRoIGQ9Ik02NjEuMiw0MDguNGgtMzguMmMtMiwwLTMuNi0xLjYtMy42LTMuNnYtMjYuOGMwLTIsMS42LTMuNiwzLjYtMy42aDM4LjJjMiwwLDMuNiwxLjYsMy42LDMuNnYyNi44JiMxMDsmIzk7QzY2NC44LDQwNi44LDY2My4yLDQwOC40LDY2MS4yLDQwOC40eiIgY2xhc3M9InN0OSIvPiYjeGE7PC9zdmc+;clipPath=inset(40.33% 2.33% 40% 1.67%);fillColor=#09555B;strokeColor=#BAC8D3;fontColor=#EEEEEE;" vertex="1" parent="1">
          <mxGeometry x="65" y="950" width="732.2" height="150" as="geometry" />
        </mxCell>
        <mxCell id="x2NzetM9BmsE3J9apZ8J-4" value="" style="shape=image;verticalLabelPosition=bottom;labelBackgroundColor=none;verticalAlign=top;aspect=fixed;imageAspect=0;image=data:image/svg+xml,PHN2ZyB4bWxuczp4bGluaz0iaHR0cDovL3d3dy53My5vcmcvMTk5OS94bGluayIgeG1sbnM9Imh0dHA6Ly93d3cudzMub3JnLzIwMDAvc3ZnIiB4bWw6c3BhY2U9InByZXNlcnZlIiBzdHlsZT0iZW5hYmxlLWJhY2tncm91bmQ6bmV3IDAgMCA3MjAgNzIwOyIgdmlld0JveD0iMCAwIDcyMCA3MjAiIHk9IjBweCIgeD0iMHB4IiBpZD0iTGF5ZXJfMSIgdmVyc2lvbj0iMS4xIj4mI3hhOzxzdHlsZSB0eXBlPSJ0ZXh0L2NzcyI+JiN4YTsJLnN0MHtmaWxsOiM3ODc4N0Q7c3Ryb2tlOiMwMDAwMDA7c3Ryb2tlLXdpZHRoOjM7c3Ryb2tlLWxpbmVjYXA6cm91bmQ7c3Ryb2tlLWxpbmVqb2luOnJvdW5kO3N0cm9rZS1taXRlcmxpbWl0OjEwO30mI3hhOwkuc3Qxe2ZpbGw6I0Q3RDdENztzdHJva2U6IzAwMDAwMDtzdHJva2Utd2lkdGg6MztzdHJva2UtbGluZWNhcDpyb3VuZDtzdHJva2UtbGluZWpvaW46cm91bmQ7c3Ryb2tlLW1pdGVybGltaXQ6MTA7fSYjeGE7CS5zdDJ7ZmlsbDojODZGRjNFO30mI3hhOwkuc3Qze2ZpbGw6I0ZGRkZGRjt9JiN4YTsJLnN0NHtmb250LWZhbWlseTonR290aGFtLUJvb2snO30mI3hhOwkuc3Q1e2ZvbnQtc2l6ZToxMS4zcHg7fSYjeGE7CS5zdDZ7Zm9udC1mYW1pbHk6J0dvdGhhbS1NZWRpdW0nO30mI3hhOwkuc3Q3e2ZpbGw6IzNCNDA0NTtzdHJva2U6IzAwMDAwMDtzdHJva2Utd2lkdGg6MztzdHJva2UtbWl0ZXJsaW1pdDoxMDt9JiN4YTsJLnN0OHtzdHJva2U6IzAwMDAwMDtzdHJva2Utd2lkdGg6Mi4wMDU3O3N0cm9rZS1saW5lY2FwOnJvdW5kO3N0cm9rZS1saW5lam9pbjpyb3VuZDtzdHJva2UtbWl0ZXJsaW1pdDoxMDt9JiN4YTsJLnN0OXtmaWxsOiNEN0Q3RDc7c3Ryb2tlOiMwMDAwMDA7c3Ryb2tlLXdpZHRoOjM7c3Ryb2tlLW1pdGVybGltaXQ6MTA7fSYjeGE7PC9zdHlsZT4mI3hhOzxwYXRoIGQ9Ik02OTUuMSw0MjUuM0gyMmMtMiwwLTMuNi0xLjYtMy42LTMuNlYzMDFjMC0yLDEuNi0zLjYsMy42LTMuNmg2NzMuMWMyLDAsMy42LDEuNiwzLjYsMy42djEyMC42JiMxMDsmIzk7QzY5OC43LDQyMy43LDY5Ny4xLDQyNS4zLDY5NS4xLDQyNS4zeiIgY2xhc3M9InN0MCIvPiYjeGE7PHJlY3QgaGVpZ2h0PSI0Mi41IiB3aWR0aD0iNTAuMiIgY2xhc3M9InN0MSIgeT0iMzYxLjYiIHg9IjIwNS43Ii8+JiN4YTs8cmVjdCBoZWlnaHQ9IjgyLjciIHdpZHRoPSIxODkuNiIgY2xhc3M9InN0MSIgeT0iMzI1LjciIHg9IjI2Mi41Ii8+JiN4YTs8cG9seWdvbiBwb2ludHM9IjIzOC45LDM3MS4xIDI0Mi44LDM3MS4xIDI0Mi44LDM3Ny4yIDI1MS4xLDM3Ny4yIDI1MS4xLDM5OS41IDIxMC41LDM5OS41IDIxMC41LDM3Ny4yIDIxOC44LDM3Ny4yIDIxOC44LDM3MS4xICYjMTA7JiM5OzIyMi44LDM3MS4xIDIyMi44LDM2Ni4yIDIzOC45LDM2Ni4yIi8+JiN4YTs8Zz4mI3hhOwk8cG9seWdvbiBwb2ludHM9IjI5NC41LDMzMC4xIDI5NC41LDMzMy44IDMwNy40LDMzMy44IDMwNy40LDM2MS44IDI2OC45LDM2MS44IDI2OC45LDMzMy44IDI4MSwzMzMuOCAyODEsMzMwLjEiLz4mI3hhOwk8cmVjdCBoZWlnaHQ9IjYuMyIgd2lkdGg9IjEwLjQiIGNsYXNzPSJzdDIiIHk9IjMzMS4yIiB4PSIyNjQuOCIvPiYjeGE7CTxyZWN0IGhlaWdodD0iNi4zIiB3aWR0aD0iMTAuNCIgY2xhc3M9InN0MyIgeT0iMzMxLjIiIHg9IjMwMC4zIi8+JiN4YTs8L2c+JiN4YTs8Zz4mI3hhOwk8cG9seWdvbiBwb2ludHM9IjM0MS40LDMzMC4xIDM0MS40LDMzMy44IDM1NC4zLDMzMy44IDM1NC4zLDM2MS44IDMxNS44LDM2MS44IDMxNS44LDMzMy44IDMyNy45LDMzMy44IDMyNy45LDMzMC4xIi8+JiN4YTsJPHJlY3QgaGVpZ2h0PSI2LjMiIHdpZHRoPSIxMC40IiBjbGFzcz0ic3QyIiB5PSIzMzEuMiIgeD0iMzExLjciLz4mI3hhOwk8cmVjdCBoZWlnaHQ9IjYuMyIgd2lkdGg9IjEwLjQiIGNsYXNzPSJzdDMiIHk9IjMzMS4yIiB4PSIzNDcuMiIvPiYjeGE7PC9nPiYjeGE7PGc+JiN4YTsJPHBvbHlnb24gcG9pbnRzPSIzODguMiwzMzAuMSAzODguMiwzMzMuOCA0MDEuMSwzMzMuOCA0MDEuMSwzNjEuOCAzNjIuNiwzNjEuOCAzNjIuNiwzMzMuOCAzNzQuNywzMzMuOCAzNzQuNywzMzAuMSIvPiYjeGE7CTxyZWN0IGhlaWdodD0iNi4zIiB3aWR0aD0iMTAuNCIgY2xhc3M9InN0MiIgeT0iMzMxLjIiIHg9IjM1OC42Ii8+JiN4YTsJPHJlY3QgaGVpZ2h0PSI2LjMiIHdpZHRoPSIxMC40IiBjbGFzcz0ic3QzIiB5PSIzMzEuMiIgeD0iMzk0Ii8+JiN4YTs8L2c+JiN4YTs8Zz4mI3hhOwk8cG9seWdvbiBwb2ludHM9IjQzNS4xLDMyOS45IDQzNS4xLDMzMy41IDQ0OCwzMzMuNSA0NDgsMzYxLjUgNDA5LjUsMzYxLjUgNDA5LjUsMzMzLjUgNDIxLjYsMzMzLjUgNDIxLjYsMzI5LjkiLz4mI3hhOwk8cmVjdCBoZWlnaHQ9IjYuMyIgd2lkdGg9IjEwLjQiIGNsYXNzPSJzdDIiIHk9IjMzMSIgeD0iNDA1LjQiLz4mI3hhOwk8cmVjdCBoZWlnaHQ9IjYuMyIgd2lkdGg9IjEwLjQiIGNsYXNzPSJzdDMiIHk9IjMzMSIgeD0iNDQwLjkiLz4mI3hhOzwvZz4mI3hhOzxnPiYjeGE7CTxwb2x5Z29uIHBvaW50cz0iMjk0LjUsNDA0LjcgMjk0LjUsNDAxLjEgMzA3LjQsNDAxLjEgMzA3LjQsMzczIDI2OC45LDM3MyAyNjguOSw0MDEuMSAyODEsNDAxLjEgMjgxLDQwNC43Ii8+JiN4YTsJPHJlY3QgaGVpZ2h0PSI2LjMiIHdpZHRoPSIxMC40IiBjbGFzcz0ic3QyIiB5PSIzOTcuMyIgeD0iMjY0LjgiLz4mI3hhOwk8cmVjdCBoZWlnaHQ9IjYuMyIgd2lkdGg9IjEwLjQiIGNsYXNzPSJzdDMiIHk9IjM5Ny4zIiB4PSIzMDAuMyIvPiYjeGE7PC9nPiYjeGE7PGc+JiN4YTsJPHBvbHlnb24gcG9pbnRzPSIzNDEuNCw0MDQuNyAzNDEuNCw0MDEuMSAzNTQuMyw0MDEuMSAzNTQuMywzNzMgMzE1LjgsMzczIDMxNS44LDQwMS4xIDMyNy45LDQwMS4xIDMyNy45LDQwNC43Ii8+JiN4YTsJPHJlY3QgaGVpZ2h0PSI2LjMiIHdpZHRoPSIxMC40IiBjbGFzcz0ic3QyIiB5PSIzOTcuMyIgeD0iMzExLjciLz4mI3hhOwk8cmVjdCBoZWlnaHQ9IjYuMyIgd2lkdGg9IjEwLjQiIGNsYXNzPSJzdDMiIHk9IjM5Ny4zIiB4PSIzNDcuMiIvPiYjeGE7PC9nPiYjeGE7PGc+JiN4YTsJPHBvbHlnb24gcG9pbnRzPSIzODguMiw0MDQuNyAzODguMiw0MDEuMSA0MDEuMSw0MDEuMSA0MDEuMSwzNzMgMzYyLjYsMzczIDM2Mi42LDQwMS4xIDM3NC43LDQwMS4xIDM3NC43LDQwNC43Ii8+JiN4YTsJPHJlY3QgaGVpZ2h0PSI2LjMiIHdpZHRoPSIxMC40IiBjbGFzcz0ic3QyIiB5PSIzOTcuMyIgeD0iMzU4LjYiLz4mI3hhOwk8cmVjdCBoZWlnaHQ9IjYuMyIgd2lkdGg9IjEwLjQiIGNsYXNzPSJzdDMiIHk9IjM5Ny4zIiB4PSIzOTQiLz4mI3hhOzwvZz4mI3hhOzxnPiYjeGE7CTxwb2x5Z29uIHBvaW50cz0iNDM1LjEsNDA0LjcgNDM1LjEsNDAxLjEgNDQ4LDQwMS4xIDQ0OCwzNzMgNDA5LjUsMzczIDQwOS41LDQwMS4xIDQyMS42LDQwMS4xIDQyMS42LDQwNC43Ii8+JiN4YTsJPHJlY3QgaGVpZ2h0PSI2LjMiIHdpZHRoPSIxMC40IiBjbGFzcz0ic3QyIiB5PSIzOTcuMyIgeD0iNDA1LjQiLz4mI3hhOwk8cmVjdCBoZWlnaHQ9IjYuMyIgd2lkdGg9IjEwLjQiIGNsYXNzPSJzdDMiIHk9IjM5Ny4zIiB4PSI0NDAuOSIvPiYjeGE7PC9nPiYjeGE7PGcgaWQ9IkNOX05hbWVfVmVydGljYWwiPiYjeGE7CTxwYXRoIGQ9Ik0xNDkuMiwzMzguMmgxLjFsMy43LDQuOHYtNC44aDEuMnY3aC0xbC0zLjktNXY1aC0xLjJWMzM4LjJ6IiBjbGFzcz0ic3QzIi8+JiN4YTsJPHBhdGggZD0iTTE1Ni4zLDM0Mi42TDE1Ni4zLDM0Mi42YzAtMS41LDEuMS0yLjgsMi42LTIuOGMxLjcsMCwyLjUsMS4zLDIuNSwyLjhjMCwwLjEsMCwwLjIsMCwwLjNoLTMuOSYjMTA7JiM5OyYjOTtjMC4xLDAuOSwwLjcsMS4zLDEuNSwxLjNjMC42LDAsMS0wLjIsMS40LTAuNmwwLjcsMC42Yy0wLjUsMC42LTEuMiwxLTIuMiwxQzE1Ny41LDM0NS4zLDE1Ni4zLDM0NC4yLDE1Ni4zLDM0Mi42eiBNMTYwLjIsMzQyLjImIzEwOyYjOTsmIzk7Yy0wLjEtMC44LTAuNS0xLjQtMS4zLTEuNGMtMC43LDAtMS4zLDAuNi0xLjQsMS40SDE2MC4yeiIgY2xhc3M9InN0MyIvPiYjeGE7CTxwYXRoIGQ9Ik0xNjIuNywzNDMuN1YzNDFIMTYydi0xaDAuN3YtMS40aDEuMnYxLjRoMS40djFoLTEuNHYyLjZjMCwwLjUsMC4yLDAuNywwLjYsMC43YzAuMywwLDAuNS0wLjEsMC43LTAuMnYxJiMxMDsmIzk7JiM5O2MtMC4zLDAuMi0wLjYsMC4zLTEuMSwwLjNDMTYzLjMsMzQ1LjMsMTYyLjcsMzQ0LjksMTYyLjcsMzQzLjd6IiBjbGFzcz0ic3QzIi8+JiN4YTsJPHBhdGggZD0iTTE2NS44LDMzOS45aDEuMmwxLjEsMy42bDEuMi0zLjZoMWwxLjIsMy42bDEuMS0zLjZoMS4ybC0xLjcsNS4zaC0xLjFsLTEuMi0zLjZsLTEuMiwzLjZoLTEuMUwxNjUuOCwzMzkuOXoiIGNsYXNzPSJzdDMiLz4mI3hhOwk8cGF0aCBkPSJNMTc0LDM0Mi42TDE3NCwzNDIuNmMwLTEuNSwxLjItMi44LDIuOC0yLjhjMS42LDAsMi44LDEuMiwyLjgsMi43djBjMCwxLjUtMS4yLDIuNy0yLjgsMi43JiMxMDsmIzk7JiM5O0MxNzUuMiwzNDUuMywxNzQsMzQ0LjEsMTc0LDM0Mi42eiBNMTc4LjQsMzQyLjZMMTc4LjQsMzQyLjZjMC0wLjktMC43LTEuNy0xLjYtMS43Yy0xLDAtMS42LDAuOC0xLjYsMS43djBjMCwwLjksMC43LDEuNywxLjYsMS43JiMxMDsmIzk7JiM5O0MxNzcuOCwzNDQuMywxNzguNCwzNDMuNSwxNzguNCwzNDIuNnoiIGNsYXNzPSJzdDMiLz4mI3hhOwk8cGF0aCBkPSJNMTgwLjYsMzM5LjloMS4ydjEuMmMwLjMtMC44LDAuOS0xLjMsMS45LTEuM3YxLjNoLTAuMWMtMS4xLDAtMS44LDAuNy0xLjgsMi4xdjJoLTEuMlYzMzkuOXoiIGNsYXNzPSJzdDMiLz4mI3hhOwk8cGF0aCBkPSJNMTg0LjUsMzM3LjloMS4ydjQuM2wyLjItMi4zaDEuNWwtMi4xLDIuMWwyLjIsMy4xSDE4OGwtMS42LTIuM2wtMC43LDAuOHYxLjVoLTEuMlYzMzcuOXoiIGNsYXNzPSJzdDMiLz4mI3hhOwk8cGF0aCBkPSJNMTg5LjYsMzQ0LjVsMC41LTAuOGMwLjYsMC40LDEuMiwwLjYsMS43LDAuNmMwLjUsMCwwLjgtMC4yLDAuOC0wLjZ2MGMwLTAuNC0wLjYtMC41LTEuMi0wLjcmIzEwOyYjOTsmIzk7Yy0wLjgtMC4yLTEuNi0wLjUtMS42LTEuNXYwYzAtMSwwLjgtMS42LDEuOS0xLjZjMC43LDAsMS40LDAuMiwxLjksMC42bC0wLjUsMC45Yy0wLjUtMC4zLTEtMC41LTEuNS0wLjVjLTAuNSwwLTAuNywwLjItMC43LDAuNXYwJiMxMDsmIzk7JiM5O2MwLDAuNCwwLjYsMC41LDEuMiwwLjdjMC44LDAuMiwxLjYsMC42LDEuNiwxLjV2MGMwLDEuMS0wLjksMS43LTIsMS43QzE5MS4xLDM0NS4zLDE5MC4yLDM0NSwxODkuNiwzNDQuNXoiIGNsYXNzPSJzdDMiLz4mI3hhOzwvZz4mI3hhOzxnIGlkPSJDTl9JY29uX1ZlcnRpY2FsXzAwMDAwMDAyMzYyNjczMjgxNjEyNjU4OTcwMDAwMDA1OTI1NDgxNTM2NjQ3MzYyNzQ5XyI+JiN4YTsJPHBhdGggZD0iTTE3NC41LDMxMS44Yy0xLjIsMC43LTIuMSwxLjgtMi41LDMuMWMtMC40LDEuMy0wLjIsMi44LDAuNSw0YzAuOSwxLjcsMi43LDIuNyw0LjYsMi43YzAuNiwwLDEuMi0wLjEsMS44LTAuMyYjMTA7JiM5OyYjOTtjMS0xLjUsMS42LTMuMiwxLjYtNS4yYzAtMS42LTAuNC0zLjEtMS4yLTQuNGMtMC43LTAuMy0xLjUtMC41LTIuMy0wLjVDMTc2LjEsMzExLjIsMTc1LjIsMzExLjQsMTc0LjUsMzExLjh6IiBjbGFzcz0ic3QzIi8+JiN4YTsJPHBhdGggZD0iTTE2Ny40LDMxNy43YzAuNSwwLjksMS4xLDEuNiwxLjgsMi4zYy0wLjMtMC40LTAuNi0wLjgtMC45LTEuM2MtMi4zLTQtMC45LTkuMSwyLjktMTEuNiYjMTA7JiM5OyYjOTtjLTEuMSwwLTIuMiwwLjMtMy4xLDAuNkMxNjYsMzEwLjYsMTY1LjUsMzE0LjUsMTY3LjQsMzE3Ljd6IiBjbGFzcz0ic3QzIi8+JiN4YTsJPHBhdGggZD0iTTE2Ni40LDMxOC4zYy0xLjctMy0xLjctNi41LTAuMy05LjRjLTIuMiwxLjYtMy42LDQuMy0zLjYsNy4yYzAsNSw0LDksOSw5YzIsMCwzLjgtMC43LDUuMy0xLjcmIzEwOyYjOTsmIzk7Yy0wLjUsMC4xLTEsMC4xLTEuNSwwLjFDMTcxLjYsMzIzLjUsMTY4LjIsMzIxLjUsMTY2LjQsMzE4LjN6IiBjbGFzcz0ic3QzIi8+JiN4YTsJPHBhdGggZD0iTTE3My40LDMxMGMtMS41LDAuOC0yLjUsMi4yLTMsMy44Yy0wLjUsMS42LTAuMywzLjMsMC42LDQuOGMwLjEsMC4xLDAuMSwwLjMsMC4yLDAuNCYjMTA7JiM5OyYjOTtjLTAuNi0xLjQtMC43LTIuOS0wLjMtNC4zYzAuNS0xLjYsMS41LTMsMy0zLjhjMC45LTAuNSwyLTAuOCwzLjEtMC44YzAuNCwwLDAuOCwwLDEuMiwwLjFjLTAuMy0wLjMtMC42LTAuNy0xLTAuOSYjMTA7JiM5OyYjOTtjLTAuMiwwLTAuNSwwLTAuNywwQzE3NS40LDMwOS4xLDE3NC4zLDMwOS40LDE3My40LDMxMHoiIGNsYXNzPSJzdDMiLz4mI3hhOwk8cGF0aCBkPSJNMTY5LjMsMzE4LjJjMC4yLDAuNCwwLjUsMC43LDAuNywxLjFjMCwwLTAuMS0wLjEtMC4xLTAuMWMtMS0xLjctMS4yLTMuOC0wLjctNS43YzAuNS0xLjksMS44LTMuNSwzLjUtNC41JiMxMDsmIzk7JiM5O2MwLjgtMC41LDEuNy0wLjgsMi43LTAuOWMtMC43LTAuMy0xLjQtMC42LTIuMS0wLjdjLTAuNCwwLjEtMC44LDAuMy0xLjIsMC41QzE2OC42LDMwOS45LDE2Ny4zLDMxNC41LDE2OS4zLDMxOC4yeiIgY2xhc3M9InN0MyIvPiYjeGE7PC9nPiYjeGE7PGc+JiN4YTsJPHBhdGggZD0iTTE0OC45LDMzMy41TDE0OC45LDMzMy41YzAtMiwxLjUtMy42LDMuNi0zLjZjMS4zLDAsMi4xLDAuNCwyLjcsMS4xbC0wLjgsMC45Yy0wLjYtMC41LTEuMi0wLjktMi0wLjkmIzEwOyYjOTsmIzk7Yy0xLjMsMC0yLjMsMS4xLTIuMywyLjV2MGMwLDEuNCwxLDIuNSwyLjMsMi41YzAuOSwwLDEuNC0wLjMsMi0wLjlsMC44LDAuOGMtMC43LDAuOC0xLjUsMS4yLTIuOCwxLjImIzEwOyYjOTsmIzk7QzE1MC41LDMzNy4xLDE0OC45LDMzNS41LDE0OC45LDMzMy41eiIgY2xhc3M9InN0MyIvPiYjeGE7CTxwYXRoIGQ9Ik0xNTkuNCwzMzd2LTAuNmMtMC40LDAuNC0wLjksMC44LTEuNywwLjhjLTEsMC0xLjktMC42LTEuOS0xLjZ2MGMwLTEuMiwwLjktMS43LDIuMS0xLjdjMC42LDAsMSwwLjEsMS41LDAuMiYjMTA7JiM5OyYjOTt2LTAuMWMwLTAuNy0wLjUtMS4xLTEuMy0xLjFjLTAuNiwwLTEsMC4xLTEuNSwwLjNsLTAuMy0xYzAuNi0wLjMsMS4xLTAuNCwyLTAuNGMxLjYsMCwyLjMsMC44LDIuMywyLjJ2My4xSDE1OS40eiBNMTU5LjUsMzM0LjgmIzEwOyYjOTsmIzk7Yy0wLjMtMC4xLTAuNy0wLjItMS4yLTAuMmMtMC44LDAtMS4yLDAuMy0xLjIsMC44djBjMCwwLjUsMC40LDAuOCwxLDAuOGMwLjgsMCwxLjQtMC40LDEuNC0xLjFWMzM0Ljh6IiBjbGFzcz0ic3QzIi8+JiN4YTsJPHBhdGggZD0iTTE2MS44LDMzMS43aDEuMnYwLjhjMC4zLTAuNSwwLjgtMC45LDEuNi0wLjljMC44LDAsMS4zLDAuNCwxLjYsMC45YzAuNC0wLjYsMS0wLjksMS44LTAuOSYjMTA7JiM5OyYjOTtjMS4xLDAsMS44LDAuNywxLjgsMnYzLjRoLTEuMnYtM2MwLTAuOC0wLjQtMS4zLTEuMS0xLjNjLTAuNywwLTEuMSwwLjUtMS4xLDEuM3YzaC0xLjJ2LTNjMC0wLjgtMC40LTEuMy0xLjEtMS4zJiMxMDsmIzk7JiM5O2MtMC43LDAtMS4xLDAuNS0xLjEsMS4zdjNoLTEuMlYzMzEuN3oiIGNsYXNzPSJzdDMiLz4mI3hhOwk8cGF0aCBkPSJNMTcyLjIsMzM2LjF2MC44SDE3MXYtNy4zaDEuMnYyLjljMC40LTAuNSwwLjktMSwxLjgtMWMxLjIsMCwyLjUsMSwyLjUsMi43djBjMCwxLjctMS4yLDIuNy0yLjUsMi43JiMxMDsmIzk7JiM5O0MxNzMuMiwzMzcuMSwxNzIuNiwzMzYuNiwxNzIuMiwzMzYuMXogTTE3NS4zLDMzNC4zTDE3NS4zLDMzNC4zYzAtMS0wLjctMS43LTEuNS0xLjdjLTAuOCwwLTEuNSwwLjctMS41LDEuN3YwJiMxMDsmIzk7JiM5O2MwLDEsMC43LDEuNywxLjUsMS43QzE3NC42LDMzNiwxNzUuMywzMzUuNCwxNzUuMywzMzQuM3oiIGNsYXNzPSJzdDMiLz4mI3hhOwk8cGF0aCBkPSJNMTc3LjUsMzI5LjdoMS4zdjEuMWgtMS4zVjMyOS43eiBNMTc3LjUsMzMxLjdoMS4ydjUuM2gtMS4yVjMzMS43eiIgY2xhc3M9InN0MyIvPiYjeGE7CTxwYXRoIGQ9Ik0xODAsMzM1LjF2LTMuNGgxLjJ2M2MwLDAuOCwwLjQsMS4zLDEuMSwxLjNjMC43LDAsMS4yLTAuNSwxLjItMS4zdi0zaDEuMnY1LjNoLTEuMnYtMC44JiMxMDsmIzk7JiM5O2MtMC4zLDAuNS0wLjgsMC45LTEuNiwwLjlDMTgwLjcsMzM3LjEsMTgwLDMzNi4zLDE4MCwzMzUuMXoiIGNsYXNzPSJzdDMiLz4mI3hhOwk8cGF0aCBkPSJNMTg2LDMzMS43aDEuMnYwLjhjMC4zLTAuNSwwLjgtMC45LDEuNi0wLjljMC44LDAsMS4zLDAuNCwxLjYsMC45YzAuNC0wLjYsMS0wLjksMS44LTAuOWMxLjEsMCwxLjgsMC43LDEuOCwyJiMxMDsmIzk7JiM5O3YzLjRoLTEuMnYtM2MwLTAuOC0wLjQtMS4zLTEuMS0xLjNjLTAuNywwLTEuMSwwLjUtMS4xLDEuM3YzaC0xLjJ2LTNjMC0wLjgtMC40LTEuMy0xLjEtMS4zYy0wLjcsMC0xLjEsMC41LTEuMSwxLjN2M0gxODZWMzMxLjd6IiBjbGFzcz0ic3QzIi8+JiN4YTs8L2c+JiN4YTs8dGV4dCB0cmFuc2Zvcm09Im1hdHJpeCgxIDAgMCAxIDUwOS44MjQ1IDMyNy44NzQxKSI+PHRzcGFuIGNsYXNzPSJzdDMgc3Q0IHN0NSIgeT0iMCIgeD0iMCI+Y248L3RzcGFuPjx0c3BhbiBjbGFzcz0ic3QzIHN0NiBzdDUiIHk9IjAiIHg9IjEyLjgiPk1hdHJpeDwvdHNwYW4+PHRzcGFuIGNsYXNzPSJzdDMgc3Q0IHN0NSIgeT0iMCIgeD0iNDYuNyI+IHw8L3RzcGFuPjx0c3BhbiBjbGFzcz0ic3QzIHN0NiBzdDUiIHk9IjAiIHg9IjUyLjkiPiBUWDwvdHNwYW4+PHRzcGFuIGNsYXNzPSJzdDMgc3Q0IHN0NSIgeT0iMCIgeD0iNzEiPjEwMTItUC1BQzwvdHNwYW4+PC90ZXh0PiYjeGE7PHBhdGggZD0iTTEyMy44LDM5Ny42SDQxLjVjLTIsMC0zLjYtMS42LTMuNi0zLjZ2LTYyLjZjMC0yLDEuNi0zLjYsMy42LTMuNmg4Mi4yYzIsMCwzLjYsMS42LDMuNiwzLjZWMzk0JiMxMDsmIzk7QzEyNy40LDM5NiwxMjUuNywzOTcuNiwxMjMuOCwzOTcuNnoiIGNsYXNzPSJzdDciLz4mI3hhOzxwYXRoIGQ9Ik00NS40LDM4Ny40YzAtMC42LDAtMzQuOCwwLTM0LjhsMTQuNC0xNC40aDQ1LjZsMTQuNSwxNC41djM0LjhMNDUuNCwzODcuNHoiIGNsYXNzPSJzdDgiLz4mI3hhOzxwYXRoIGQ9Ik02MDguNiw0MDguNGgtMzguMmMtMiwwLTMuNi0xLjYtMy42LTMuNnYtMjYuOGMwLTIsMS42LTMuNiwzLjYtMy42aDM4LjJjMiwwLDMuNiwxLjYsMy42LDMuNnYyNi44JiMxMDsmIzk7QzYxMi4yLDQwNi44LDYxMC42LDQwOC40LDYwOC42LDQwOC40eiIgY2xhc3M9InN0OSIvPiYjeGE7PHBhdGggZD0iTTU1Niw0MDguNGgtMzguMmMtMiwwLTMuNi0xLjYtMy42LTMuNnYtMjYuOGMwLTIsMS42LTMuNiwzLjYtMy42SDU1NmMyLDAsMy42LDEuNiwzLjYsMy42djI2LjgmIzEwOyYjOTtDNTU5LjYsNDA2LjgsNTU4LDQwOC40LDU1Niw0MDguNHoiIGNsYXNzPSJzdDkiLz4mI3hhOzxwYXRoIGQ9Ik01MDMuNCw0MDguNGgtMzguMmMtMiwwLTMuNi0xLjYtMy42LTMuNnYtMjYuOGMwLTIsMS42LTMuNiwzLjYtMy42aDM4LjJjMiwwLDMuNiwxLjYsMy42LDMuNnYyNi44JiMxMDsmIzk7QzUwNyw0MDYuOCw1MDUuNCw0MDguNCw1MDMuNCw0MDguNHoiIGNsYXNzPSJzdDkiLz4mI3hhOzxwYXRoIGQ9Ik02NjEuMiw0MDguNGgtMzguMmMtMiwwLTMuNi0xLjYtMy42LTMuNnYtMjYuOGMwLTIsMS42LTMuNiwzLjYtMy42aDM4LjJjMiwwLDMuNiwxLjYsMy42LDMuNnYyNi44JiMxMDsmIzk7QzY2NC44LDQwNi44LDY2My4yLDQwOC40LDY2MS4yLDQwOC40eiIgY2xhc3M9InN0OSIvPiYjeGE7PC9zdmc+;clipPath=inset(40.33% 2.33% 40% 1.67%);fillColor=#09555B;strokeColor=#BAC8D3;fontColor=#EEEEEE;" vertex="1" parent="1">
          <mxGeometry x="65" y="10" width="720" height="147.5" as="geometry" />
        </mxCell>
        <mxCell id="x2NzetM9BmsE3J9apZ8J-5" value="" style="endArrow=classic;startArrow=classic;html=1;rounded=0;hachureGap=4;fontFamily=Architects Daughter;fontSource=https%3A%2F%2Ffonts.googleapis.com%2Fcss%3Ffamily%3DArchitects%2BDaughter;fontSize=16;exitX=0.5;exitY=0;exitDx=0;exitDy=0;edgeStyle=orthogonalEdgeStyle;elbow=vertical;curved=1;strokeWidth=4;labelBackgroundColor=none;fontColor=default;flowAnimation=1;strokeColor=#0B4D6A;" edge="1" parent="1" source="x2NzetM9BmsE3J9apZ8J-2" target="x2NzetM9BmsE3J9apZ8J-1">
          <mxGeometry width="50" height="50" relative="1" as="geometry">
            <mxPoint x="345" y="750" as="sourcePoint" />
            <mxPoint x="395" y="700" as="targetPoint" />
          </mxGeometry>
        </mxCell>
        <mxCell id="x2NzetM9BmsE3J9apZ8J-6" value="" style="endArrow=classic;html=1;rounded=0;hachureGap=4;fontFamily=Architects Daughter;fontSource=https%3A%2F%2Ffonts.googleapis.com%2Fcss%3Ffamily%3DArchitects%2BDaughter;fontSize=16;labelBackgroundColor=none;fontColor=default;flowAnimation=1;strokeColor=#0B4D6A;" edge="1" parent="1">
          <mxGeometry width="50" height="50" relative="1" as="geometry">
            <mxPoint x="275" y="270" as="sourcePoint" />
            <mxPoint x="350" y="160" as="targetPoint" />
          </mxGeometry>
        </mxCell>
        <mxCell id="x2NzetM9BmsE3J9apZ8J-8" value="" style="endArrow=classic;html=1;rounded=0;hachureGap=4;fontFamily=Architects Daughter;fontSource=https%3A%2F%2Ffonts.googleapis.com%2Fcss%3Ffamily%3DArchitects%2BDaughter;fontSize=16;exitX=0.5;exitY=1;exitDx=0;exitDy=0;labelBackgroundColor=none;fontColor=default;flowAnimation=1;strokeColor=#0B4D6A;" edge="1" parent="1" source="x2NzetM9BmsE3J9apZ8J-2" target="x2NzetM9BmsE3J9apZ8J-3">
          <mxGeometry width="50" height="50" relative="1" as="geometry">
            <mxPoint x="295" y="580" as="sourcePoint" />
            <mxPoint x="345" y="530" as="targetPoint" />
          </mxGeometry>
        </mxCell>
        <mxCell id="x2NzetM9BmsE3J9apZ8J-13" value="&lt;font style=&quot;font-size: 20px;&quot; color=&quot;#000000&quot;&gt;Fibre&lt;/font&gt;" style="text;html=1;align=center;verticalAlign=middle;resizable=0;points=[];autosize=1;strokeColor=default;fillColor=#66FFB8;labelBackgroundColor=none;fontColor=#EEEEEE;rounded=1;rotation=105;" vertex="1" parent="1">
          <mxGeometry x="345" y="505" width="70" height="40" as="geometry" />
        </mxCell>
        <mxCell id="x2NzetM9BmsE3J9apZ8J-16" value="Internet" style="ellipse;shape=cloud;whiteSpace=wrap;html=1;labelBackgroundColor=none;fillColor=#09555B;strokeColor=#BAC8D3;fontColor=#EEEEEE;" vertex="1" parent="1">
          <mxGeometry x="30" y="430" width="120" height="80" as="geometry" />
        </mxCell>
        <mxCell id="x2NzetM9BmsE3J9apZ8J-17" value="Internet" style="ellipse;shape=cloud;whiteSpace=wrap;html=1;labelBackgroundColor=none;fillColor=#09555B;strokeColor=#BAC8D3;fontColor=#EEEEEE;" vertex="1" parent="1">
          <mxGeometry x="640" y="630" width="120" height="80" as="geometry" />
        </mxCell>
        <mxCell id="x2NzetM9BmsE3J9apZ8J-19" value="" style="endArrow=classic;html=1;rounded=0;edgeStyle=isometricEdgeStyle;flowAnimation=1;labelBackgroundColor=none;strokeColor=#0B4D6A;fontColor=default;" edge="1" parent="1" target="x2NzetM9BmsE3J9apZ8J-1">
          <mxGeometry width="50" height="50" relative="1" as="geometry">
            <mxPoint x="120" y="450" as="sourcePoint" />
            <mxPoint x="170" y="400" as="targetPoint" />
          </mxGeometry>
        </mxCell>
        <mxCell id="x2NzetM9BmsE3J9apZ8J-20" value="" style="endArrow=classic;html=1;rounded=0;exitX=0.55;exitY=0.95;exitDx=0;exitDy=0;exitPerimeter=0;entryX=1;entryY=0.5;entryDx=0;entryDy=0;edgeStyle=entityRelationEdgeStyle;flowAnimation=1;labelBackgroundColor=none;strokeColor=#0B4D6A;fontColor=default;" edge="1" parent="1" source="x2NzetM9BmsE3J9apZ8J-17" target="x2NzetM9BmsE3J9apZ8J-2">
          <mxGeometry width="50" height="50" relative="1" as="geometry">
            <mxPoint x="690" y="780" as="sourcePoint" />
            <mxPoint x="740" y="730" as="targetPoint" />
          </mxGeometry>
        </mxCell>
        <mxCell id="x2NzetM9BmsE3J9apZ8J-21" value="&lt;h1&gt;&lt;b&gt;&lt;font color=&quot;#000000&quot;&gt;MAIN LAN 192.168.10.1/24&lt;/font&gt;&lt;/b&gt;&lt;/h1&gt;" style="text;html=1;align=center;verticalAlign=middle;resizable=0;points=[];autosize=1;strokeColor=none;fillColor=none;labelBackgroundColor=none;fontColor=#EEEEEE;" vertex="1" parent="1">
          <mxGeometry x="110" y="188" width="320" height="70" as="geometry" />
        </mxCell>
        <mxCell id="x2NzetM9BmsE3J9apZ8J-22" value="&lt;font size=&quot;1&quot; color=&quot;#000000&quot;&gt;&lt;b style=&quot;font-size: 16px;&quot;&gt;BRANCH LAN 192.168.32.1/24&lt;/b&gt;&lt;/font&gt;" style="text;html=1;align=center;verticalAlign=middle;resizable=0;points=[];autosize=1;strokeColor=none;fillColor=none;labelBackgroundColor=none;fontColor=#EEEEEE;" vertex="1" parent="1">
          <mxGeometry x="225" y="878" width="250" height="30" as="geometry" />
        </mxCell>
      </root>
    </mxGraphModel>
  </diagram>
</mxfile>
